<?xml version="1.0" encoding="utf-8"?>
<!-- Generator: Adobe Illustrator 22.1.0, SVG Export Plug-In . SVG Version: 6.00 Build 0)  -->
<svg version="1.1" id="Layer_1" xmlns="http://www.w3.org/2000/svg" xmlns:xlink="http://www.w3.org/1999/xlink" x="0px" y="0px"
	 viewBox="0 0 140.9 34" style="enable-background:new 0 0 140.9 34;" xml:space="preserve">
<style type="text/css">
	.st0{fill:#FFFFFF;}
</style>
<path class="st0" d="M0,0.1v34h140.9v-34H0z M15.8,20.3c1,0,1.8-0.5,2.5-1.3l2.4,2.2c-1.1,1.5-2.9,2.3-5.1,2.3
	c-3.6-0.1-6.3-2.5-6.3-6s2.7-6,6.3-6c2.2,0,4,0.8,5.1,2.3L18.3,16c-0.7-0.8-1.5-1.3-2.5-1.3c-1.6,0-2.7,1.1-2.7,2.8
	S14.2,20.3,15.8,20.3z M31.3,23.2h-9.5V11.8h9.3v2.9h-5.5V16h4.8v2.8h-4.8v1.5h5.7V23.2z M44,23.2h-3.2L36.5,18v5.2h-3.7V11.8H36
	l4.3,5.2v-5.2H44V23.2z M55.5,14.8h-3.3v8.4h-3.8v-8.4h-0.1H45v-3h10.5V14.8z M77.2,23.2l-0.8-2h-4.3l-0.8,2h-3.9h-3.9l-2.1-2.9h-1
	v2.9h-3.8V11.8h5.5c3.2,0,5.2,1.7,5.2,4.3c0,1.6-0.8,2.9-2.1,3.6l2.3,3.3l-0.1,0.2l5-11.4h3.8l5,11.4H77.2z M90.6,23.2h-9l0.1-11.4
	h3.8v8.4h5.1V23.2z M95.5,23.2h-3.8V11.8h3.8V23.2z M107.5,23.2H97v-2.4l5.2-6h-5v-3h10v2.4l-5.2,6h5.5V23.2z M118.1,23.2h-9.5V11.8
	h9.3v2.9h-5.5V16h4.8v2.8h-4.8v1.5h5.7V23.2z M125.2,23.2h-5.6V11.8h5.6c3.8,0,6.4,2.2,6.4,5.7S129,23.2,125.2,23.2z"/>
<path class="st0" d="M61.7,14.8h-1.4v2.6h1.4c1.1,0,1.6-0.5,1.6-1.3S62.8,14.8,61.7,14.8z"/>
<polygon class="st0" points="73.1,18.4 75.3,18.4 74.2,15.6 "/>
<path class="st0" d="M125,14.8h-1.6v5.4h1.6c1.6,0,2.7-1,2.7-2.7S126.6,14.8,125,14.8z"/>
</svg>
