<?xml version="1.0" encoding="utf-8"?>
<!-- Generator: Adobe Illustrator 22.1.0, SVG Export Plug-In . SVG Version: 6.00 Build 0)  -->
<svg version="1.1" id="Layer_1" xmlns="http://www.w3.org/2000/svg" xmlns:xlink="http://www.w3.org/1999/xlink" x="0px" y="0px"
	 viewBox="0 0 140.9 34" style="enable-background:new 0 0 140.9 34;" xml:space="preserve">
<style type="text/css">
	.st0{fill:#EA4F32;}
	.st1{fill:#1A1A1A;}
</style>
<g>
	<rect y="0.1" class="st0" width="140.9" height="34"/>
</g>
<g>
	<path class="st1" d="M9.3,17.5c0-3.5,2.7-6,6.3-6c2.2,0,4,0.8,5.1,2.3L18.3,16c-0.7-0.8-1.5-1.3-2.5-1.3c-1.6,0-2.7,1.1-2.7,2.8
		c0,1.7,1.1,2.8,2.7,2.8c1,0,1.8-0.5,2.5-1.3l2.4,2.2c-1.1,1.5-2.9,2.3-5.1,2.3C12,23.4,9.3,21,9.3,17.5z"/>
	<path class="st1" d="M31.3,20.3v2.9h-9.5V11.8h9.3v2.9h-5.5V16h4.8v2.8h-4.8v1.5H31.3z"/>
	<path class="st1" d="M44,11.8v11.4h-3.2L36.5,18v5.2h-3.7V11.8H36l4.3,5.2v-5.2H44z"/>
	<path class="st1" d="M48.3,14.8H45v-3h10.5v3h-3.3v8.4h-3.8v-8.4C48.4,14.8,48.3,14.8,48.3,14.8z"/>
	<path class="st1" d="M61.4,20.3h-1v2.9h-3.8V11.8h5.5c3.2,0,5.2,1.7,5.2,4.3c0,1.6-0.8,2.9-2.1,3.6l2.4,3.5h-4.1L61.4,20.3z
		 M61.7,14.8h-1.4v2.6h1.4c1.1,0,1.6-0.5,1.6-1.3C63.3,15.3,62.8,14.8,61.7,14.8z"/>
	<path class="st1" d="M76.4,21.2h-4.3l-0.8,2h-3.9l5-11.4h3.8l5,11.4h-4L76.4,21.2z M75.3,18.4l-1.1-2.8l-1.1,2.8H75.3z"/>
	<path class="st1" d="M81.7,11.8h3.8v8.4h5.1v3h-9L81.7,11.8L81.7,11.8z"/>
	<path class="st1" d="M91.7,11.8h3.8v11.4h-3.8V11.8z"/>
	<path class="st1" d="M107.5,20.2v3H97v-2.4l5.2-6h-5v-3h10v2.4l-5.2,6H107.5z"/>
	<path class="st1" d="M118.1,20.3v2.9h-9.5V11.8h9.3v2.9h-5.5V16h4.8v2.8h-4.8v1.5H118.1z"/>
	<path class="st1" d="M119.6,11.8h5.6c3.8,0,6.4,2.2,6.4,5.7s-2.6,5.7-6.4,5.7h-5.6C119.6,23.2,119.6,11.8,119.6,11.8z M125,20.2
		c1.6,0,2.7-1,2.7-2.7s-1.1-2.7-2.7-2.7h-1.6v5.4H125z"/>
</g>
</svg>
