<?xml version="1.0" encoding="utf-8"?>
<!-- Generator: Adobe Illustrator 22.1.0, SVG Export Plug-In . SVG Version: 6.00 Build 0)  -->
<svg version="1.1" id="Layer_1" xmlns="http://www.w3.org/2000/svg" xmlns:xlink="http://www.w3.org/1999/xlink" x="0px" y="0px"
	 viewBox="0 0 80.2 14.5" style="enable-background:new 0 0 80.2 14.5;" xml:space="preserve">
<style type="text/css">
	.st0{fill:#95C8A1;}
</style>
<g>
	<path class="st0" d="M6.2,12.4c0.5,0,1-0.1,1.4-0.2s0.8-0.2,1.2-0.4l0.3-2.7H7.5c-0.2,0-0.3,0-0.3-0.1C7.1,9,7.1,8.9,7.1,8.8
		l0.2-1.5h4.4l-0.7,5.7c-0.7,0.5-1.5,0.9-2.3,1.2c-0.8,0.2-1.8,0.4-2.8,0.4c-0.9,0-1.7-0.2-2.4-0.5s-1.3-0.7-1.8-1.3s-0.9-1.2-1.2-2
		C0.1,9.9,0,9.1,0,8.2c0-0.8,0.1-1.6,0.3-2.3c0.2-0.7,0.4-1.4,0.7-2s0.7-1.2,1.2-1.6s1-0.9,1.5-1.2s1.2-0.6,1.8-0.8
		C6.2,0.1,6.9,0,7.6,0c0.6,0,1.1,0.1,1.6,0.2c0.5,0.1,0.9,0.2,1.3,0.4c0.4,0.2,0.7,0.4,1,0.6c0.3,0.2,0.6,0.5,0.8,0.7L11.4,3
		c-0.2,0.2-0.4,0.3-0.6,0.3c-0.1,0-0.3,0-0.4-0.1C10.1,3,9.9,2.9,9.7,2.8S9.3,2.6,9.1,2.5C8.9,2.4,8.6,2.3,8.3,2.2
		C8.1,2.2,7.8,2.2,7.4,2.2C6.7,2.2,6,2.3,5.5,2.6C4.9,2.9,4.4,3.3,3.9,3.8C3.5,4.3,3.2,4.9,3,5.7S2.6,7.2,2.6,8.1
		c0,0.7,0.1,1.3,0.3,1.8s0.4,1,0.7,1.4c0.3,0.4,0.7,0.7,1.1,0.9C5.2,12.3,5.7,12.4,6.2,12.4z"/>
	<path class="st0" d="M12.8,14.3l1.2-10h1.2c0.2,0,0.4,0.1,0.6,0.2C15.9,4.5,16,4.7,16,4.9c0,0,0,0.1,0,0.2s0,0.3,0,0.5
		c0,0.2,0,0.6,0,1c0.4-0.8,0.9-1.4,1.4-1.8c0.5-0.4,1-0.6,1.5-0.6c0.3,0,0.5,0.1,0.8,0.2l-0.4,2.3c-0.3-0.1-0.6-0.2-0.9-0.2
		c-0.6,0-1.1,0.3-1.5,0.8c-0.4,0.6-0.8,1.4-1.1,2.6l-0.5,4.4H12.8z"/>
	<path class="st0" d="M23.3,14.4c-0.6,0-1.1-0.1-1.5-0.3c-0.5-0.2-0.9-0.5-1.2-0.8c-0.3-0.4-0.6-0.8-0.8-1.3
		c-0.2-0.5-0.3-1.1-0.3-1.8c0-0.9,0.1-1.7,0.4-2.4c0.3-0.7,0.7-1.4,1.1-1.9s1-1,1.7-1.3c0.6-0.3,1.3-0.5,2-0.5
		c0.6,0,1.1,0.1,1.5,0.3c0.5,0.2,0.9,0.5,1.2,0.8c0.3,0.4,0.6,0.8,0.8,1.3c0.2,0.5,0.3,1.1,0.3,1.8c0,0.9-0.1,1.7-0.4,2.4
		c-0.3,0.7-0.7,1.4-1.1,1.9c-0.5,0.6-1,1-1.7,1.3S24,14.4,23.3,14.4z M23.5,12.6c0.4,0,0.8-0.1,1.1-0.3s0.6-0.5,0.8-0.9
		c0.2-0.4,0.4-0.8,0.5-1.4s0.2-1.1,0.2-1.6c0-0.8-0.1-1.4-0.4-1.8C25.4,6.1,25,6,24.5,6c-0.4,0-0.8,0.1-1.1,0.3
		c-0.3,0.2-0.6,0.5-0.8,0.9c-0.2,0.4-0.4,0.8-0.5,1.4c-0.1,0.5-0.2,1.1-0.2,1.6c0,0.8,0.1,1.4,0.4,1.8S22.9,12.6,23.5,12.6z"/>
	<path class="st0" d="M29.7,4.3h1.8c0.2,0,0.3,0,0.4,0.1c0.1,0.1,0.2,0.2,0.2,0.3l0.6,5.4c0,0.3,0.1,0.6,0.1,0.9s0,0.5,0,0.8
		c0.1-0.3,0.2-0.5,0.3-0.8c0.1-0.3,0.2-0.6,0.3-0.9l2.2-5.4c0.1-0.1,0.1-0.2,0.3-0.3c0.1-0.1,0.2-0.1,0.4-0.1h1c0.2,0,0.3,0,0.4,0.1
		c0.1,0.1,0.2,0.2,0.2,0.3l0.8,5.4c0,0.3,0.1,0.6,0.1,0.9s0.1,0.5,0.1,0.8c0.1-0.3,0.1-0.5,0.2-0.8c0.1-0.3,0.2-0.6,0.3-0.9l1.9-5.4
		c0-0.1,0.1-0.2,0.2-0.3c0.1-0.1,0.2-0.1,0.4-0.1h1.8l-4.1,10h-1.9c-0.2,0-0.3-0.1-0.4-0.4l-1-5.8c0-0.3-0.1-0.5-0.1-0.8
		c0,0.1-0.1,0.3-0.1,0.4c0,0.1-0.1,0.3-0.1,0.4l-2.4,5.8c-0.1,0.3-0.3,0.4-0.5,0.4h-1.8L29.7,4.3z"/>
	<path class="st0" d="M47.2,9.3l-0.6,5h-2.5l1.7-14.1h4.3c0.8,0,1.5,0.1,2.1,0.3s1.1,0.5,1.4,0.8s0.6,0.8,0.8,1.2
		c0.2,0.5,0.3,1,0.3,1.6c0,0.8-0.1,1.5-0.4,2.1c-0.2,0.6-0.6,1.2-1.1,1.7c-0.5,0.5-1.1,0.8-1.8,1.1S49.9,9.3,49,9.3H47.2z M48.1,2.1
		l-0.6,5.2h1.8c0.5,0,0.9-0.1,1.3-0.2c0.4-0.1,0.7-0.4,0.9-0.6s0.4-0.6,0.5-1c0.1-0.4,0.2-0.8,0.2-1.2c0-0.3,0-0.6-0.1-0.9
		c-0.1-0.3-0.2-0.5-0.4-0.7c-0.2-0.2-0.4-0.3-0.7-0.4c-0.3-0.1-0.6-0.2-1-0.2H48.1z"/>
	<path class="st0" d="M58.6,8.7l-0.7,5.6h-2.5l1.7-14.1h4c0.8,0,1.5,0.1,2.1,0.3s1.1,0.4,1.4,0.7c0.4,0.3,0.6,0.7,0.8,1.1
		c0.2,0.4,0.3,0.9,0.3,1.4c0,0.5-0.1,1.1-0.2,1.5c-0.2,0.5-0.4,0.9-0.7,1.3s-0.6,0.7-1.1,1c-0.4,0.3-0.9,0.5-1.4,0.7
		c0.2,0.1,0.3,0.2,0.4,0.3S63,8.8,63.1,9l2.5,5.3h-2.3c-0.2,0-0.4,0-0.5-0.1c-0.1-0.1-0.3-0.2-0.3-0.4l-2.1-4.6
		c-0.1-0.2-0.2-0.3-0.3-0.4c-0.1-0.1-0.3-0.1-0.5-0.1H58.6z M59.4,2.1l-0.6,4.8h1.5c0.5,0,0.9-0.1,1.3-0.2c0.4-0.1,0.7-0.3,0.9-0.6
		c0.2-0.3,0.4-0.6,0.5-0.9c0.1-0.3,0.2-0.7,0.2-1.1c0-0.6-0.2-1.1-0.6-1.4c-0.4-0.3-1-0.5-1.8-0.5H59.4z"/>
	<path class="st0" d="M80.2,6.3c0,0.8-0.1,1.5-0.3,2.2s-0.4,1.4-0.7,2c-0.3,0.6-0.7,1.2-1.2,1.6c-0.5,0.5-1,0.9-1.5,1.3
		s-1.2,0.6-1.8,0.8c-0.7,0.2-1.3,0.3-2.1,0.3c-0.9,0-1.7-0.2-2.4-0.5s-1.3-0.8-1.8-1.3c-0.5-0.6-0.9-1.2-1.2-2
		c-0.3-0.8-0.4-1.6-0.4-2.5c0-0.8,0.1-1.5,0.3-2.2s0.4-1.4,0.7-2s0.7-1.2,1.2-1.6c0.5-0.5,1-0.9,1.5-1.3c0.6-0.3,1.2-0.6,1.8-0.8
		C72.9,0.1,73.6,0,74.4,0c0.9,0,1.7,0.2,2.4,0.5c0.7,0.3,1.3,0.8,1.8,1.3c0.5,0.6,0.9,1.2,1.2,2C80.1,4.6,80.2,5.4,80.2,6.3z
		 M77.6,6.3c0-0.6-0.1-1.2-0.2-1.7c-0.2-0.5-0.4-1-0.7-1.3c-0.3-0.4-0.7-0.7-1.1-0.9c-0.4-0.2-0.9-0.3-1.5-0.3
		c-0.7,0-1.3,0.1-1.9,0.4s-1.1,0.7-1.5,1.2s-0.7,1.2-1,1.9c-0.2,0.7-0.3,1.6-0.3,2.5c0,0.6,0.1,1.2,0.2,1.7c0.2,0.5,0.4,1,0.7,1.3
		c0.3,0.4,0.7,0.7,1.1,0.9c0.4,0.2,0.9,0.3,1.5,0.3c0.7,0,1.4-0.1,1.9-0.4c0.6-0.3,1.1-0.7,1.5-1.2c0.4-0.5,0.7-1.2,1-1.9
		C77.5,8.1,77.6,7.3,77.6,6.3z"/>
</g>
</svg>
