<?xml version="1.0" encoding="utf-8"?>
<!-- Generator: Adobe Illustrator 22.1.0, SVG Export Plug-In . SVG Version: 6.00 Build 0)  -->
<svg version="1.1" id="Layer_1" xmlns="http://www.w3.org/2000/svg" xmlns:xlink="http://www.w3.org/1999/xlink" x="0px" y="0px"
	 viewBox="0 0 63 12.9" style="enable-background:new 0 0 63 12.9;" xml:space="preserve">
<style type="text/css">
	.st0{fill:#FFFFFF;}
</style>
<g>
	<path class="st0" d="M2.8,8.3l-0.5,4.5H0L1.5,0.1h3.8c0.7,0,1.3,0.1,1.8,0.3s0.9,0.4,1.3,0.7C8.8,1.4,9,1.8,9.2,2.2
		c0.2,0.4,0.2,0.9,0.2,1.4c0,0.7-0.1,1.3-0.3,1.9C8.9,6,8.6,6.5,8.2,6.9c-0.4,0.4-1,0.7-1.6,1C6,8.1,5.2,8.3,4.4,8.3H2.8z M3.6,1.9
		L3,6.5h1.6c0.4,0,0.8-0.1,1.1-0.2C6.1,6.2,6.3,6,6.6,5.7C6.8,5.5,6.9,5.2,7,4.9c0.1-0.3,0.2-0.7,0.2-1.1c0-0.3,0-0.5-0.1-0.8
		S6.8,2.6,6.7,2.4C6.5,2.2,6.3,2.1,6.1,2C5.8,1.9,5.5,1.9,5.1,1.9H3.6z"/>
	<path class="st0" d="M17.1,5.9c0,0.4-0.1,0.8-0.2,1.1c-0.2,0.3-0.4,0.6-0.9,0.9c-0.4,0.3-1,0.5-1.7,0.7S12.7,8.9,11.6,9v0.1
		c0,1.4,0.6,2.1,1.8,2.1c0.3,0,0.5,0,0.7-0.1c0.2,0,0.4-0.1,0.5-0.2s0.3-0.1,0.4-0.2c0.1-0.1,0.2-0.2,0.3-0.2
		c0.1-0.1,0.2-0.1,0.3-0.2c0.1,0,0.2-0.1,0.3-0.1c0.1,0,0.1,0,0.2,0c0.1,0,0.1,0.1,0.2,0.1l0.5,0.7c-0.3,0.3-0.6,0.6-0.9,0.8
		s-0.6,0.4-0.9,0.6c-0.3,0.1-0.6,0.3-1,0.3c-0.3,0.1-0.7,0.1-1.1,0.1c-0.5,0-1-0.1-1.4-0.3s-0.8-0.4-1.1-0.7
		c-0.3-0.3-0.5-0.7-0.7-1.2c-0.2-0.5-0.2-1-0.2-1.5c0-0.5,0.1-0.9,0.2-1.4c0.1-0.5,0.2-0.9,0.4-1.3c0.2-0.4,0.4-0.8,0.7-1.1
		s0.6-0.6,0.9-0.9c0.4-0.2,0.7-0.4,1.2-0.6s0.9-0.2,1.4-0.2c0.5,0,0.9,0.1,1.2,0.2c0.4,0.1,0.6,0.3,0.9,0.5c0.2,0.2,0.4,0.4,0.5,0.7
		C17,5.4,17.1,5.6,17.1,5.9z M14.2,5.2c-0.3,0-0.6,0.1-0.8,0.2c-0.2,0.1-0.5,0.3-0.7,0.5c-0.2,0.2-0.4,0.5-0.5,0.8s-0.3,0.6-0.4,1
		c0.7-0.1,1.3-0.2,1.7-0.3c0.4-0.1,0.8-0.2,1-0.4C14.8,6.8,15,6.6,15,6.4s0.1-0.3,0.1-0.5c0-0.1,0-0.2-0.1-0.3
		c0-0.1-0.1-0.2-0.2-0.2c-0.1-0.1-0.2-0.1-0.3-0.2C14.5,5.2,14.4,5.2,14.2,5.2z"/>
	<path class="st0" d="M23.7,5.5c-0.1,0.1-0.1,0.2-0.2,0.2s-0.1,0.1-0.2,0.1c-0.1,0-0.2,0-0.3-0.1c-0.1-0.1-0.2-0.1-0.4-0.2
		c-0.1-0.1-0.3-0.1-0.5-0.2s-0.4-0.1-0.6-0.1c-0.5,0-0.8,0.1-1.1,0.3s-0.4,0.5-0.4,0.8c0,0.2,0.1,0.3,0.2,0.5s0.2,0.2,0.4,0.3
		c0.2,0.1,0.3,0.2,0.6,0.3c0.2,0.1,0.4,0.2,0.6,0.3c0.2,0.1,0.4,0.2,0.6,0.3s0.4,0.3,0.6,0.4c0.2,0.2,0.3,0.4,0.4,0.6
		c0.1,0.2,0.2,0.5,0.2,0.8c0,0.4-0.1,0.8-0.3,1.2c-0.2,0.4-0.4,0.7-0.7,1c-0.3,0.3-0.7,0.5-1.2,0.7s-1,0.3-1.5,0.3
		c-0.3,0-0.6,0-0.8-0.1c-0.3-0.1-0.5-0.1-0.7-0.2s-0.4-0.2-0.6-0.3c-0.2-0.1-0.3-0.3-0.5-0.4l0.5-0.8c0.1-0.1,0.1-0.2,0.2-0.2
		c0.1-0.1,0.2-0.1,0.3-0.1c0.1,0,0.2,0,0.3,0.1s0.2,0.2,0.3,0.2c0.1,0.1,0.3,0.2,0.5,0.2c0.2,0.1,0.4,0.1,0.7,0.1
		c0.2,0,0.4,0,0.6-0.1c0.2-0.1,0.3-0.2,0.5-0.3c0.1-0.1,0.2-0.2,0.3-0.4c0.1-0.1,0.1-0.3,0.1-0.5c0-0.2,0-0.4-0.1-0.5
		c-0.1-0.1-0.2-0.2-0.4-0.3c-0.2-0.1-0.4-0.2-0.6-0.3C20.4,9,20.2,8.9,20,8.8c-0.2-0.1-0.4-0.2-0.6-0.3c-0.2-0.1-0.4-0.2-0.6-0.4
		c-0.2-0.2-0.3-0.4-0.4-0.6c-0.1-0.2-0.1-0.5-0.1-0.8c0-0.4,0.1-0.8,0.2-1.2c0.2-0.4,0.4-0.7,0.7-1c0.3-0.3,0.7-0.5,1.1-0.7
		c0.4-0.2,0.9-0.3,1.5-0.3c0.6,0,1.1,0.1,1.5,0.3s0.8,0.4,1.1,0.7L23.7,5.5z"/>
	<path class="st0" d="M25.5,10.9c0,0,0-0.1,0-0.1c0-0.1,0-0.1,0-0.2s0-0.2,0-0.4c0-0.2,0-0.4,0.1-0.7l0.5-4h-0.8
		c-0.1,0-0.2,0-0.2-0.1c-0.1-0.1-0.1-0.2-0.1-0.3c0,0,0,0,0,0c0,0,0-0.1,0-0.1c0-0.1,0-0.2,0-0.3c0-0.1,0-0.3,0.1-0.5l1.4-0.2
		l0.7-2.4c0-0.1,0.1-0.2,0.2-0.3c0.1-0.1,0.2-0.1,0.3-0.1h1.1l-0.3,2.8h2.2l-0.2,1.5h-2.2l-0.5,3.9c0,0.2-0.1,0.4-0.1,0.6
		c0,0.1,0,0.2,0,0.3c0,0.1,0,0.1,0,0.2c0,0,0,0.1,0,0.1c0,0.2,0.1,0.4,0.2,0.5c0.1,0.1,0.3,0.2,0.5,0.2c0.1,0,0.2,0,0.3,0
		c0.1,0,0.2-0.1,0.2-0.1c0.1,0,0.1-0.1,0.2-0.1s0.1,0,0.1,0c0.1,0,0.1,0,0.2,0c0,0,0.1,0.1,0.1,0.1l0.5,1c-0.3,0.3-0.7,0.5-1.1,0.6
		c-0.4,0.1-0.8,0.2-1.2,0.2c-0.6,0-1.1-0.2-1.5-0.5C25.7,12,25.5,11.5,25.5,10.9z"/>
	<path class="st0" d="M36.2,10.9c0.4,0,0.7,0,0.9-0.1c0.3-0.1,0.5-0.1,0.7-0.2c0.2-0.1,0.4-0.2,0.5-0.3s0.3-0.2,0.4-0.3
		c0.1-0.1,0.2-0.2,0.3-0.2c0.1-0.1,0.2-0.1,0.2-0.1c0.1,0,0.1,0,0.2,0c0,0,0.1,0.1,0.1,0.1l0.8,1c-0.5,0.6-1.2,1.1-1.9,1.4
		c-0.7,0.3-1.6,0.5-2.5,0.5c-0.8,0-1.5-0.1-2.1-0.4s-1.1-0.7-1.5-1.1c-0.4-0.5-0.7-1.1-1-1.7C31.1,8.9,31,8.2,31,7.4
		c0-0.7,0.1-1.4,0.2-2.1c0.2-0.6,0.4-1.2,0.7-1.8c0.3-0.5,0.6-1,1-1.5c0.4-0.4,0.9-0.8,1.3-1.1c0.5-0.3,1-0.5,1.6-0.7
		C36.5,0.1,37,0,37.7,0c0.5,0,0.9,0,1.3,0.1s0.7,0.2,1,0.4c0.3,0.2,0.6,0.3,0.8,0.5c0.2,0.2,0.5,0.4,0.7,0.7l-0.8,0.9
		c-0.1,0.1-0.1,0.1-0.2,0.2s-0.2,0.1-0.3,0.1c-0.1,0-0.2-0.1-0.4-0.2c-0.1-0.1-0.3-0.2-0.4-0.3c-0.2-0.1-0.4-0.2-0.7-0.3
		S38,1.9,37.6,1.9c-0.6,0-1.2,0.1-1.7,0.4s-1,0.6-1.3,1.1c-0.4,0.5-0.7,1-0.9,1.7c-0.2,0.6-0.3,1.4-0.3,2.2c0,0.6,0.1,1.1,0.2,1.6
		s0.4,0.9,0.6,1.2c0.3,0.3,0.6,0.6,0.9,0.7C35.4,10.9,35.8,10.9,36.2,10.9z"/>
	<path class="st0" d="M48.3,12.7h-1.1c-0.3,0-0.4-0.1-0.5-0.2s-0.2-0.3-0.2-0.5l0.1-1.2c-0.4,0.6-0.8,1.1-1.3,1.5s-1,0.5-1.6,0.5
		c-0.3,0-0.7-0.1-0.9-0.2c-0.3-0.1-0.5-0.3-0.8-0.6c-0.2-0.3-0.4-0.6-0.5-1s-0.2-0.9-0.2-1.4c0-0.5,0.1-1.1,0.2-1.6
		c0.1-0.5,0.3-1,0.6-1.4c0.2-0.4,0.5-0.9,0.9-1.2s0.7-0.7,1.2-1c0.4-0.3,0.9-0.5,1.4-0.6c0.5-0.1,1-0.2,1.6-0.2c0.4,0,0.8,0,1.2,0.1
		c0.4,0.1,0.8,0.2,1.2,0.3L48.3,12.7z M44.4,11.1c0.2,0,0.5-0.1,0.7-0.2c0.2-0.2,0.4-0.4,0.6-0.7s0.4-0.6,0.6-1
		c0.2-0.4,0.3-0.8,0.5-1.3l0.3-2.7c-0.2,0-0.3,0-0.4,0c-0.5,0-0.9,0.1-1.3,0.3c-0.4,0.2-0.8,0.5-1.1,0.9c-0.3,0.4-0.5,0.8-0.7,1.3
		c-0.2,0.5-0.3,1-0.3,1.6c0,0.6,0.1,1.1,0.3,1.4S44.1,11.1,44.4,11.1z"/>
	<path class="st0" d="M56.2,5.5c-0.1,0.1-0.1,0.2-0.2,0.2c-0.1,0-0.1,0.1-0.2,0.1c-0.1,0-0.2,0-0.3-0.1c-0.1-0.1-0.2-0.1-0.4-0.2
		c-0.1-0.1-0.3-0.1-0.5-0.2c-0.2-0.1-0.4-0.1-0.6-0.1c-0.5,0-0.8,0.1-1.1,0.3c-0.2,0.2-0.4,0.5-0.4,0.8c0,0.2,0.1,0.3,0.2,0.5
		C52.9,6.8,53,6.9,53.2,7s0.3,0.2,0.6,0.3s0.4,0.2,0.6,0.3c0.2,0.1,0.4,0.2,0.6,0.3c0.2,0.1,0.4,0.3,0.6,0.4
		c0.2,0.2,0.3,0.4,0.4,0.6c0.1,0.2,0.2,0.5,0.2,0.8c0,0.4-0.1,0.8-0.3,1.2c-0.2,0.4-0.4,0.7-0.7,1c-0.3,0.3-0.7,0.5-1.2,0.7
		c-0.5,0.2-1,0.3-1.5,0.3c-0.3,0-0.6,0-0.8-0.1c-0.3-0.1-0.5-0.1-0.7-0.2c-0.2-0.1-0.4-0.2-0.6-0.3c-0.2-0.1-0.3-0.3-0.5-0.4
		l0.5-0.8c0.1-0.1,0.1-0.2,0.2-0.2c0.1-0.1,0.2-0.1,0.3-0.1c0.1,0,0.2,0,0.3,0.1s0.2,0.2,0.3,0.2c0.1,0.1,0.3,0.2,0.5,0.2
		c0.2,0.1,0.4,0.1,0.7,0.1c0.2,0,0.4,0,0.6-0.1c0.2-0.1,0.3-0.2,0.5-0.3c0.1-0.1,0.2-0.2,0.3-0.4c0.1-0.1,0.1-0.3,0.1-0.5
		c0-0.2,0-0.4-0.1-0.5c-0.1-0.1-0.2-0.2-0.4-0.3c-0.2-0.1-0.4-0.2-0.6-0.3c-0.2-0.1-0.4-0.1-0.6-0.2S52,8.7,51.8,8.6
		c-0.2-0.1-0.4-0.2-0.6-0.4C51.1,8,51,7.8,50.9,7.6c-0.1-0.2-0.1-0.5-0.1-0.8c0-0.4,0.1-0.8,0.2-1.2c0.2-0.4,0.4-0.7,0.7-1
		s0.7-0.5,1.1-0.7c0.4-0.2,0.9-0.3,1.5-0.3c0.6,0,1.1,0.1,1.5,0.3s0.8,0.4,1.1,0.7L56.2,5.5z"/>
	<path class="st0" d="M58,10.9c0,0,0-0.1,0-0.1c0-0.1,0-0.1,0-0.2s0-0.2,0-0.4c0-0.2,0-0.4,0.1-0.7l0.5-4h-0.8c-0.1,0-0.2,0-0.2-0.1
		c-0.1-0.1-0.1-0.2-0.1-0.3c0,0,0,0,0,0c0,0,0-0.1,0-0.1c0-0.1,0-0.2,0-0.3c0-0.1,0-0.3,0.1-0.5l1.4-0.2l0.7-2.4
		c0-0.1,0.1-0.2,0.2-0.3s0.2-0.1,0.3-0.1h1.1l-0.3,2.8H63l-0.2,1.5h-2.2l-0.5,3.9c0,0.2-0.1,0.4-0.1,0.6c0,0.1,0,0.2,0,0.3
		s0,0.1,0,0.2c0,0,0,0.1,0,0.1c0,0.2,0.1,0.4,0.2,0.5s0.3,0.2,0.5,0.2c0.1,0,0.2,0,0.3,0s0.2-0.1,0.2-0.1c0.1,0,0.1-0.1,0.2-0.1
		c0,0,0.1,0,0.1,0c0.1,0,0.1,0,0.2,0c0,0,0.1,0.1,0.1,0.1l0.5,1c-0.3,0.3-0.7,0.5-1.1,0.6c-0.4,0.1-0.8,0.2-1.2,0.2
		c-0.6,0-1.1-0.2-1.5-0.5S58,11.5,58,10.9z"/>
</g>
</svg>
