<?xml version="1.0" encoding="utf-8"?>
<!-- Generator: Adobe Illustrator 22.1.0, SVG Export Plug-In . SVG Version: 6.00 Build 0)  -->
<svg version="1.1" id="Layer_1" xmlns="http://www.w3.org/2000/svg" xmlns:xlink="http://www.w3.org/1999/xlink" x="0px" y="0px"
	 viewBox="0 0 204.1 45.4" style="enable-background:new 0 0 204.1 45.4;" xml:space="preserve">
<style type="text/css">
	.st0{fill:#EC1C24;}
	.st1{fill:#231F20;}
	.st2{fill:none;stroke:#EC1C24;stroke-width:0.5;stroke-miterlimit:10;}
</style>
<path class="st0" d="M38.1,0.2c-4.8,0-9.2,1.5-12.8,4h16.9c1.7,1.4,3.1,3.1,4.2,5H20.1c-1.2,1.5-2.1,3.2-2.9,5h31
	c0.2,1.1,0.4,2.3,0.4,3.5v1.5h-0.1H15.8c-0.2,1.1-0.3,2.3-0.3,3.5c0,0.5,0,1,0.1,1.5h31.7c-0.7,1.8-1.8,3.5-3.1,5H16.5
	c2.8,9.3,11.4,16,21.5,16c12.4,0,22.5-10.1,22.5-22.5C60.6,10.3,50.5,0.2,38.1,0.2z M38.1,43.2c-5.2,0-10-2-13.6-5.2l0,0
	c1.8,0.5,3.7,0.8,5.6,0.8c11.3,0,20.5-9.3,20.5-20.8c0-5.8-2.3-11-6-14.7c8.2,2.7,14,10.4,14,19.4C58.6,34,49.4,43.2,38.1,43.2z"/>
<g>
	<path class="st1" d="M85,12.8c-0.5,2.1-1,4.1-1.4,6.2c-0.3,1.2-0.5,2.3-0.7,3.5l-0.2,0.2l-5.7,0.1l-0.1-0.2l1.9-8h-5.5l-1.8,7.9
		l-0.2,0.2c-2.6,0-3.3,0-5.7,0.1l-0.1-0.2l0.8-3.3l1.5-6c0.3-1.2,0.6-2.4,0.8-3.6c0.4-1.6,0.9-4.3,1.2-5.9L70,3.6
		c2.2,0,2.9,0,5.7-0.1l0.1,0.1L75,7.3l-0.8,3.2h5.4l0.5-2.4l0.9-4.3l0.2-0.2c2.6,0,3.2,0,5.7-0.1l0.1,0.1L86,8.4L85,12.8z"/>
	<path class="st1" d="M100,3.7c0.5,7.4,0.6,9.2,1.3,18.8l-0.1,0.2l-5.7,0.1l-0.1-0.2v-2.8l0-1.8h-5l-2.1,4.5L88,22.7
		c-2.4,0-3,0-5.2,0.1l-0.1-0.3c1.1-1.9,2.2-4.1,3.3-6.2l3.2-6c1.7-3.3,2.2-4.3,3.4-6.5l0.2-0.2l7-0.1L100,3.7z M92.1,14.2h3.2V7.3
		L92.1,14.2z"/>
	<path class="st1" d="M111.2,3.6c2.8,0,4.5,0.1,5.8,0.8c1.1,0.6,2.1,1.9,2.1,4c0,1.3-0.3,2.7-1.1,3.8c-1.1,1.5-2.3,2-3.5,2.4L116,19
		l1.2,3.4l-0.1,0.2l-5.7,0.2l-0.2-0.2l-0.7-2.6l-1.2-4.4l-1,0c-0.6,2.6-0.8,3.4-1.4,6.9l-0.2,0.1c-2.5,0-3.2,0-5.5,0.1l-0.2-0.2
		l1.3-5.5l0.8-3.3c1.1-4.7,1.3-5.7,2.1-10l0.1-0.2L111.2,3.6z M109.2,12h0.4c1,0,2.3,0,3.2-1.2c0.5-0.6,0.5-1.6,0.5-1.8
		c0-0.5-0.2-1-0.7-1.3c-0.4-0.3-0.9-0.3-1.8-0.3h-0.5L110,8.8L109.2,12z"/>
	<path class="st1" d="M127.3,3.6c3,0,4,0,5.1,0.1c2.7,0.3,4.3,1.8,4.3,4.1c0,2.1-1.4,3.5-2.6,4.2c-0.5,0.2-0.9,0.4-1.4,0.5
		c0.5,0.2,1.1,0.4,1.5,0.7c0.5,0.4,1.5,1.4,1.5,3c0,1-0.4,2.7-1.3,3.9c-0.6,0.8-1.7,1.7-4,2.2c-1.6,0.4-2.3,0.4-7.9,0.4h-1.8
		l-2.5,0.1l-0.1-0.2l1-4.1l0.8-3.4c1.6-6.8,1.7-7.5,2.3-11.3l0.2-0.2l2.1,0L127.3,3.6z M124.5,19.2l0.9,0c0.8,0,1.8,0,2.5-0.4
		c1.2-0.5,1.5-1.7,1.5-2.3c0-1-0.8-1.4-0.9-1.5c-0.4-0.2-0.9-0.2-1.9-0.2h-1.1L124.5,19.2z M126.4,11.1l0.6,0c0.8,0,1.6,0,2.4-0.4
		c0.8-0.4,1.3-1.3,1.3-2.2c0-0.2,0-0.9-0.9-1.3C129.5,7,129,7,128,7l-0.7,0L126.4,11.1z"/>
	<path class="st1" d="M152.1,20.7c-0.8,0.7-2.8,2.4-6.9,2.4c-0.8,0-1.6-0.1-2.3-0.2c-0.8-0.1-1.5-0.3-2.2-0.7
		c-3-1.5-3.6-4.3-3.6-6.7c0-1.8,0.5-7.4,4.3-10.3c1.6-1.3,3.8-1.9,6.5-1.9c2,0,4.5,0.5,5.9,2c1.7,1.8,2,3.9,2,5.6
		c0,1.3-0.2,2.7-0.6,4C154.7,16.8,153.8,19,152.1,20.7z M149.8,10.3c0-0.9-0.2-3.1-2.5-3.1c-0.6,0-1.8,0.3-2.8,1.9
		c-0.9,1.6-1.7,5-1.7,6.8c0,0.2,0,0.9,0.2,1.4c0.5,1.7,2.1,1.7,2.3,1.7c2.8,0,3.8-4.2,4.2-6.5C149.7,11.8,149.8,11,149.8,10.3z"/>
	<path class="st1" d="M164.8,3.6c2.8,0,4.5,0.1,5.8,0.8c1.1,0.6,2.1,1.9,2.1,4c0,1.3-0.3,2.7-1.1,3.8c-1.1,1.5-2.3,2-3.5,2.4
		l1.5,4.3l1.2,3.4l-0.1,0.2l-5.7,0.2l-0.2-0.2l-0.7-2.6l-1.2-4.4l-1,0c-0.6,2.6-0.8,3.4-1.4,6.9l-0.2,0.1c-2.5,0-3.2,0-5.5,0.1
		l-0.2-0.2l1.3-5.5l0.8-3.3c1.1-4.7,1.3-5.7,2.1-10l0.1-0.2L164.8,3.6z M162.9,12h0.4c1,0,2.3,0,3.2-1.2c0.5-0.6,0.5-1.6,0.5-1.8
		c0-0.5-0.2-1-0.7-1.3c-0.4-0.3-0.9-0.3-1.8-0.3H164l-0.3,1.4L162.9,12z"/>
	<path class="st1" d="M171.6,21.3l1.1-4l0.3-0.1c0.4,0.4,0.6,0.6,1.1,1c1.2,0.7,2.5,0.9,3.2,0.9c2.2,0,2.8-1.2,2.8-1.9
		c0-1-0.9-1.5-2.2-2.2l-0.9-0.5c-1.4-0.8-3.4-2-3.4-4.8c0-2.2,1.1-3.7,1.5-4.2c1.6-1.8,4-2.3,6-2.3c3,0,4.9,1,5.9,1.5l0.1,0.2
		l-1.1,4L185.8,9c-0.3-0.3-0.6-0.6-1-0.9c-1-0.7-2.3-1-3-1c-1.3,0-2.2,0.7-2.2,1.6c0,0.8,0.6,1.4,2.3,2.3l0.5,0.3
		c1.3,0.7,3.7,2.1,3.7,5c0,3.9-3,6.7-8.3,6.7c-1.4,0-2.9-0.2-4.3-0.6c-0.9-0.3-1.3-0.5-2-0.9L171.6,21.3z"/>
	<path class="st1" d="M198.7,22.5l-0.2,0.2h-9.7l-4.4,0.1l-0.2-0.3l2.1-3l8.1-11.7c-2.8,0-3.4,0-6.2,0.1l-0.2-0.2l1.2-3.8l0.2-0.2
		l4.3,0h3.6l5.6-0.1l0.2,0.3c-1.2,1.6-1.7,2.3-2.9,4.2l-7,10.4l3.2-0.1l3.3-0.1l0.1,0.2l-0.6,2.1L198.7,22.5z"/>
</g>
<line class="st2" x1="26.6" y1="3.9" x2="16.3" y2="3.9"/>
<line class="st2" x1="17.6" y1="13.9" x2="10.4" y2="13.9"/>
<line class="st2" x1="16.6" y1="23.9" x2="5.7" y2="23.9"/>
<line class="st2" x1="20.6" y1="36.1" x2="0.9" y2="36.1"/>
</svg>
