<?xml version="1.0" encoding="utf-8"?>
<!-- Generator: Adobe Illustrator 22.1.0, SVG Export Plug-In . SVG Version: 6.00 Build 0)  -->
<svg version="1.1" id="Layer_1" xmlns="http://www.w3.org/2000/svg" xmlns:xlink="http://www.w3.org/1999/xlink" x="0px" y="0px"
	 viewBox="0 0 380.6 141.3" style="enable-background:new 0 0 380.6 141.3;" xml:space="preserve">
<style type="text/css">
	.st0{fill:#F99D1C;}
	.st1{fill:#888B8D;}
	.st2{fill:#9FA1A4;}
</style>
<g>
	<path class="st0" d="M113,42.1L99.8,29.3c-0.2-0.2-0.4-0.3-0.7-0.3c0,0,0,0,0,0c-0.2,0-0.5,0.1-0.6,0.3L84,44c-0.2,0.2,0,0.4,0,0.7
		c0,0.3-0.2,0.5,0,0.7l8.2,7.9c1.3,1.3,2,2.6,2.1,4.1c0.1,1.4-0.5,2.8-2.1,4.3c-0.2,0.2-0.3,0.4-0.3,0.7c0,0.3,0.1,0.5,0.3,0.7
		l15.8,15.5c0.2,0.2,0.5,0.3,0.7,0.3c0.2,0,0.5-0.1,0.6-0.3l4.8-4.9c4.3-4.4,6.3-9.6,6-15.7C120.1,51.9,117.6,46.6,113,42.1z"/>
</g>
<g>
	<path class="st0" d="M141.6,13L128.7,0.3C128.6,0.1,128.3,0,128,0c0,0,0,0,0,0c-0.2,0-0.5,0.1-0.6,0.3L112.9,15
		c-0.2,0.2-0.3,0.4-0.3,0.7c0,0.3,0.1,0.5,0.3,0.7l7.9,7.9c1.3,1.3,2,2.6,2.1,4.1c0.1,1.4-0.6,2.8-2.1,4.3c-0.2,0.2-0.3,0.4-0.3,0.7
		c0,0.3,0.1,0.5,0.3,0.7l15.8,15.5c0.2,0.2,0.5,0.3,0.7,0.3c0.2,0,0.5-0.1,0.6-0.3l4.8-4.9c4.3-4.4,6.3-9.7,6-15.7
		C148.7,22.9,146.2,17.6,141.6,13z"/>
</g>
<path class="st0" d="M179.8,59.8c0,0.5,0.1,1.3,0.1,2.2c0,1,0,1.8,0,2.5c0,6.4-0.4,9.1-1.6,14.4c-1.9,8.4-8.7,17.5-13.1,20.9
	c-7.3,5.9-16,10.6-28,10.6c0,0-29.4,0-31.3,0c-3.1,0-6.4-2.4-6.4-6.4c0-2.2,0-7.4,0-8.2c0-3,2.2-6.4,6.4-6.4c2,0,25.6,0,25.6,0
	c6.8,0,14.5-2.7,19.9-8.7c2.1-2.2,7.4-8,7.3-19.4c0,0,0-28.7,0-37.5c0-5.9,5.7-6.6,5.7-6.6s6.5,0,8.8,0c1.9,0,6.4,1.3,6.4,6.8
	C179.8,33.8,179.8,59.8,179.8,59.8z"/>
<path class="st1" d="M67.3,110.7l-11.5,0.1c-1.8,0-3.3-1.3-3.3-3.2V71.7c0-9.8-8.9-15.8-15.9-15.8H21v48.5c-0.2,4.6-3.9,6.4-6.4,6.4
	H3.2c-2.1,0-3.2-1.9-3.2-3.2v-62c0-4.9,3.3-7,6.4-7h39.9c6.3,0,14.3,2.9,18.8,7.8c5.1,5.5,8.2,11.3,8.2,19.8v38
	C73.4,106.9,71.3,110.7,67.3,110.7z"/>
<path class="st1" d="M310.8,134.1c-0.8,1.4-2,2.6-4.6,2.6h-11.8c-3.1,0-4.1-0.4-4.1-3.2c0-1,0.9-2.6,1.8-4.6l13-28.9l-35.6-57.1
	c-0.5-0.8-0.7-1.5-0.7-2.1c0-1.5,0.8-2.3,2.5-2.3h10.9c3.8,0,6.3,1.1,7.5,3.4L314,79.1l17.2-36.3c1.9-2.9,4.4-4.4,7.5-4.4h11.7
	c1.6,0,2.4,0.8,2.4,2.3c0,0.7-0.2,1.4-0.6,2.1L310.8,134.1z"/>
<g>
	<g>
		<g>
			<path class="st2" d="M368.2,51.7v-9h3.8c1,0,1.7,0.1,2.1,0.2c0.4,0.2,0.8,0.4,1,0.9c0.3,0.4,0.4,0.9,0.4,1.4
				c0,0.7-0.2,1.2-0.6,1.7c-0.4,0.4-1,0.7-1.8,0.8c0.4,0.2,0.7,0.5,1,0.8c0.3,0.3,0.6,0.8,1,1.5l1.1,1.8h-2.2l-1.3-2
				c-0.5-0.7-0.8-1.1-1-1.3c-0.2-0.2-0.4-0.3-0.5-0.4c-0.2-0.1-0.5-0.1-0.9-0.1h-0.4v3.8H368.2z M370.1,46.5h1.3
				c0.9,0,1.4,0,1.6-0.1c0.2-0.1,0.4-0.2,0.5-0.4c0.1-0.2,0.2-0.4,0.2-0.7c0-0.3-0.1-0.5-0.2-0.7c-0.2-0.2-0.4-0.3-0.7-0.4
				c-0.1,0-0.6,0-1.3,0h-1.4V46.5z"/>
		</g>
		<path class="st2" d="M371.9,38.6c-4.7,0-8.6,3.8-8.6,8.6c0,4.7,3.8,8.6,8.6,8.6c4.7,0,8.6-3.8,8.6-8.6
			C380.5,42.4,376.7,38.6,371.9,38.6z M371.9,54.4c-4,0-7.2-3.2-7.2-7.2c0-4,3.2-7.2,7.2-7.2c4,0,7.2,3.2,7.2,7.2
			C379.1,51.2,375.9,54.4,371.9,54.4z"/>
	</g>
</g>
<path class="st1" d="M255.5,47.1c-5.3-5.7-12.6-8.6-21.8-8.6h-13.2c-9.2,0-16.5,2.9-21.8,8.6c-6.3,6.3-8.2,14.1-8.2,27
	c0,29.2,17.5,36.5,29.7,36.5h13.8c12.2,0,29.7-7.4,29.7-36.5C263.6,61.2,261.7,53.3,255.5,47.1z M230.1,93c-1.5,0.1-4.6,0.1-6.2,0
	c-5.5-0.3-12.5-1.4-12.5-18.3c0-17,8.9-18.6,12.7-18.8c2.1-0.1,5,0,6,0c3.8,0.1,12.5,1.8,12.5,18.8C242.7,91.6,235.7,92.7,230.1,93z
	"/>
<g>
	<path class="st1" d="M55.4,123.3l0.1,1.2c0.7-0.5,2-1.5,3.6-1.5c2.3,0,4,1.8,4,5.7c0,4.3-1.3,7.7-4.7,7.7c-1.1,0-2-0.2-2.8-0.7v5.6
		H53v-18H55.4z M55.5,133.6c0.4,0.3,1.2,0.8,2.3,0.8c2,0,2.6-2.4,2.6-5.1c0-3.2-0.9-4-2.1-4c-1,0-2.1,0.7-2.7,1.1V133.6z"/>
	<path class="st1" d="M66.4,123.5c0.8-0.2,2.5-0.5,3.7-0.5c3.9,0,4.8,1.7,4.8,5.5v4.7c0,0.9,0.2,1.1,0.7,1.1c0.2,0,0.4,0,0.7-0.1
		l0.2,1.9c-0.6,0.2-1.3,0.3-1.8,0.3c-1,0-1.7-0.3-1.9-1.6c-0.9,0.9-2.1,1.6-3.7,1.6c-2.6,0-3.8-1.8-3.8-4c0-3,1.8-4.5,5-4.5
		c0.7,0,1.4,0.1,2.1,0.2v-0.7c0-1.7-0.9-2.5-2.7-2.5c-1,0-2.2,0.2-3.1,0.5L66.4,123.5z M72.4,129.9c-0.5-0.1-1.1-0.3-1.7-0.3
		c-1.8,0-2.8,0.7-2.8,2.6c0,1.3,0.6,2.2,1.9,2.2c1,0,2-0.6,2.6-1.2V129.9z"/>
	<path class="st1" d="M78.4,132.9c0.7,0.7,2.4,1.5,3.6,1.5c1.3,0,2.1-0.5,2.1-1.7c0-1.3-1.2-1.7-2.6-2.1l-0.2-0.1
		c-1.7-0.6-3.5-1.2-3.5-3.8c0-2.5,2.1-3.8,4.5-3.8c2.8,0,4.1,1.7,4.4,3l-2,0.8c-0.4-1.2-1.3-1.8-2.4-1.8c-1.1,0-2,0.5-2,1.6
		c0,1.3,1.2,1.7,2.6,2.1l0.2,0.1c1.6,0.5,3.4,1.3,3.4,3.7c0,2.2-1.6,4-4.7,4c-1.9,0-3.7-0.8-4.4-1.4L78.4,132.9z"/>
	<path class="st1" d="M89.2,132.9c0.7,0.7,2.4,1.5,3.6,1.5c1.3,0,2.1-0.5,2.1-1.7c0-1.3-1.2-1.7-2.6-2.1l-0.2-0.1
		c-1.7-0.6-3.5-1.2-3.5-3.8c0-2.5,2.1-3.8,4.5-3.8c2.8,0,4.1,1.7,4.4,3l-2,0.8c-0.4-1.2-1.3-1.8-2.4-1.8c-1.1,0-2,0.5-2,1.6
		c0,1.3,1.2,1.7,2.6,2.1l0.2,0.1c1.6,0.5,3.4,1.3,3.4,3.7c0,2.2-1.6,4-4.7,4c-1.9,0-3.7-0.8-4.4-1.4L89.2,132.9z"/>
	<path class="st1" d="M101.6,118.4c1,0,1.5,0.5,1.5,1.5c0,1-0.7,1.6-1.5,1.6c-0.9,0-1.5-0.6-1.5-1.6
		C100.1,118.9,100.8,118.4,101.6,118.4z M102.9,123.3v12.9h-2.6v-12.9H102.9z"/>
	<path class="st1" d="M105.9,129.8c0-3.7,1.7-6.8,5.4-6.8c4,0,5.1,3.1,5.1,6.6c0,3.4-1.4,6.9-5.4,6.9
		C107,136.5,105.9,133,105.9,129.8z M113.8,129.7c0-2.1-0.3-4.6-2.5-4.6c-2.3,0-2.7,2.7-2.7,4.7c0,2.5,0.6,4.6,2.6,4.6
		C113.3,134.4,113.8,132,113.8,129.7z"/>
	<path class="st1" d="M121.9,124.6c1-0.9,2.4-1.6,4-1.6c2.1,0,3.2,1,3.5,2.7c0.1,0.4,0.1,1.1,0.1,1.6v8.9h-2.6v-8.6
		c0-0.3,0-0.8,0-1.1c-0.1-0.9-0.7-1.3-1.8-1.3c-1.2,0-2.2,0.7-3,1.4v9.6h-2.6v-12.9h2.4L121.9,124.6z"/>
	<path class="st1" d="M134.3,133.1c1,0,1.6,0.7,1.6,1.7c0,0.9-0.6,1.7-1.7,1.7c-1,0-1.6-0.7-1.6-1.7
		C132.7,133.9,133.3,133.1,134.3,133.1z"/>
	<path class="st1" d="M152.5,133.4l0.2,2.2c-0.9,0.4-2.1,0.9-3.7,0.9c-4.5,0-5.5-3.6-5.5-6.7c0-3.5,1.2-6.8,5.2-6.8
		c2.8,0,3.9,1.7,4.3,3.6l-2.1,0.8c-0.3-1.2-0.9-2.2-2.3-2.2c-2.1,0-2.5,2.6-2.5,4.6c0,2.8,0.9,4.6,3.2,4.6
		C150.5,134.3,151.5,134,152.5,133.4z"/>
	<path class="st1" d="M163.7,124.9l-1.9,1.3c-0.4-0.7-0.8-1.1-1.3-1.1c-0.9,0-1.7,0.6-2.6,1.5v9.5h-2.6v-12.9h2.3l0.1,1.4
		c0.7-0.8,1.9-1.6,3.3-1.6C162.3,123,163,123.7,163.7,124.9z"/>
	<path class="st1" d="M166.7,130.1c0,2.7,1.2,4.2,3.3,4.2c1.3,0,2.5-0.4,3.5-0.9l0.2,2.2c-0.8,0.5-2.3,0.9-3.9,0.9
		c-4.4,0-5.6-3.2-5.6-6.9c0-4.7,2.2-6.6,5.1-6.6c3.2,0,4.6,2.2,4.6,6.1v1H166.7z M169.2,125c-1.7,0-2.4,1.7-2.4,3.5h4.6
		C171.3,126.1,170.5,125,169.2,125z"/>
	<path class="st1" d="M176.9,123.5c0.8-0.2,2.5-0.5,3.7-0.5c3.9,0,4.8,1.7,4.8,5.5v4.7c0,0.9,0.2,1.1,0.7,1.1c0.2,0,0.4,0,0.7-0.1
		l0.2,1.9c-0.6,0.2-1.3,0.3-1.8,0.3c-1,0-1.7-0.3-1.9-1.6c-0.9,0.9-2.1,1.6-3.7,1.6c-2.6,0-3.8-1.8-3.8-4c0-3,1.8-4.5,5-4.5
		c0.7,0,1.4,0.1,2.1,0.2v-0.7c0-1.7-0.9-2.5-2.7-2.5c-1,0-2.2,0.2-3.1,0.5L176.9,123.5z M182.9,129.9c-0.5-0.1-1.1-0.3-1.7-0.3
		c-1.8,0-2.8,0.7-2.8,2.6c0,1.3,0.6,2.2,1.9,2.2c1,0,2-0.6,2.6-1.2V129.9z"/>
	<path class="st1" d="M191.8,125.2v6.9c0,1.2,0,2.2,1.3,2.2c0.6,0,1.1-0.2,1.7-0.5l0.3,2c-0.6,0.3-1.7,0.6-2.7,0.6
		c-2.3,0-3.2-1.4-3.2-3.5v-7.9h-1.7v-1.9h1.7v-2.1l2.6-1.3v3.4h3.1v1.9H191.8z"/>
	<path class="st1" d="M199,130.1c0,2.7,1.2,4.2,3.3,4.2c1.3,0,2.5-0.4,3.5-0.9l0.2,2.2c-0.8,0.5-2.3,0.9-3.9,0.9
		c-4.4,0-5.6-3.2-5.6-6.9c0-4.7,2.2-6.6,5.1-6.6c3.2,0,4.6,2.2,4.6,6.1v1H199z M201.5,125c-1.7,0-2.4,1.7-2.4,3.5h4.6
		C203.6,126.1,202.8,125,201.5,125z"/>
	<path class="st1" d="M210.2,133.1c1,0,1.6,0.7,1.6,1.7c0,0.9-0.6,1.7-1.7,1.7c-1,0-1.6-0.7-1.6-1.7
		C208.5,133.9,209.1,133.1,210.2,133.1z"/>
	<path class="st1" d="M219.7,132.9c0.7,0.7,2.4,1.5,3.6,1.5c1.3,0,2.1-0.5,2.1-1.7c0-1.3-1.2-1.7-2.6-2.1l-0.2-0.1
		c-1.7-0.6-3.5-1.2-3.5-3.8c0-2.5,2.1-3.8,4.5-3.8c2.8,0,4.1,1.7,4.4,3l-2,0.8c-0.4-1.2-1.3-1.8-2.4-1.8c-1.1,0-2,0.5-2,1.6
		c0,1.3,1.2,1.7,2.6,2.1l0.2,0.1c1.6,0.5,3.4,1.3,3.4,3.7c0,2.2-1.6,4-4.7,4c-1.9,0-3.7-0.8-4.4-1.4L219.7,132.9z"/>
	<path class="st1" d="M233.2,124.6c1-0.9,2.4-1.6,4-1.6c1.5,0,2.5,0.6,3,1.6c1.1-0.9,2.5-1.6,4-1.6c2.1,0,3.2,1,3.5,2.7
		c0.1,0.4,0.1,1.1,0.1,1.6v8.9h-2.6v-8.6c0-0.3,0-0.8-0.1-1.1c-0.2-0.9-0.7-1.3-1.7-1.3c-1,0-2,0.6-2.7,1.2c0,0.4,0,0.8,0,1.3v8.4
		h-2.6v-8.6c0-0.3,0-0.8-0.1-1.1c-0.2-0.9-0.7-1.3-1.6-1.3c-1.2,0-2.4,0.7-3.1,1.4v9.6h-2.6v-12.9h2.4L233.2,124.6z"/>
	<path class="st1" d="M252.6,118.4c1,0,1.5,0.5,1.5,1.5c0,1-0.7,1.6-1.5,1.6c-0.9,0-1.5-0.6-1.5-1.6
		C251.1,118.9,251.7,118.4,252.6,118.4z M253.9,123.3v12.9h-2.6v-12.9H253.9z"/>
	<path class="st1" d="M257.4,118.7h2.6v13.8c0,1.3,0.3,1.8,1.2,1.8c0.5,0,1.2-0.2,1.8-0.5l0.3,2c-0.8,0.4-1.9,0.6-2.7,0.6
		c-2.5,0-3.2-1.4-3.2-3.6V118.7z"/>
	<path class="st1" d="M267.4,130.1c0,2.7,1.2,4.2,3.3,4.2c1.3,0,2.5-0.4,3.5-0.9l0.2,2.2c-0.8,0.5-2.3,0.9-3.9,0.9
		c-4.4,0-5.6-3.2-5.6-6.9c0-4.7,2.2-6.6,5.1-6.6c3.2,0,4.6,2.2,4.6,6.1v1H267.4z M269.8,125c-1.7,0-2.4,1.7-2.4,3.5h4.6
		C272,126.1,271.2,125,269.8,125z"/>
	<path class="st1" d="M278.5,133.1c1,0,1.6,0.7,1.6,1.7c0,0.9-0.6,1.7-1.7,1.7c-1,0-1.6-0.7-1.6-1.7
		C276.9,133.9,277.5,133.1,278.5,133.1z"/>
</g>
</svg>
