<?xml version="1.0" encoding="utf-8"?>
<!-- Generator: Adobe Illustrator 22.1.0, SVG Export Plug-In . SVG Version: 6.00 Build 0)  -->
<svg version="1.1" id="Layer_1" xmlns="http://www.w3.org/2000/svg" xmlns:xlink="http://www.w3.org/1999/xlink" x="0px" y="0px"
	 viewBox="0 0 410 50" style="enable-background:new 0 0 410 50;" xml:space="preserve">
<style type="text/css">
	.st0{fill:#FFFFFF;}
	.st1{fill:#808080;}
</style>
<rect x="0.8" y="0.6" class="st0" width="48" height="48"/>
<g>
	<path class="st1" d="M0.8,0.6h48v48H27.1c0.3-4.4-0.6-9-2.2-13.2c-0.7-1.7-5.1-9.8-5.7-11.5c-0.6-1.7-0.7-2.8-0.2-3.1
		c0.4-0.2,0.9-0.1,1.4,0.7c0.7,1,1.1,2.2,1.5,3.4c1.4,4,2.1,7.7,4.4,11.4c0.9,1.5,2.8,3.4,7.2,3.5c4.4,0.1,8.6-3,8.6-3
		S24.5,21.6,23.6,20.6C23,20,23.5,19.7,24,20.1c0.1,0.1,0.3,0.3,0.3,0.3l21,18.1c0,0,0.5-0.6,0.5-1.2c0.3-2.9-17.8-16.9-20.4-19.7
		c0,0,0.1-0.9-0.3-2.1c-2.1-6.1-9.9-6.2-14.7-3.9c-1.5,0.7-2.3,1.5-2.5,1.7c-0.2,0.2-0.3,0.3-0.3,0.3s1.7-0.9,3.4-1.3
		c1.5-0.3,2.9-0.1,3.4,0c0,0,0,0,0,0c-0.2,0-2.2,0.2-3.3,0.7c-1.2,0.5-2.4,1.1-3,1.6c-0.6,0.5-0.9,0.9-0.9,0.9s1.3-0.7,2.5-0.9
		c1.2-0.2,2.2,0,2.3,0c0.1,0,0.1,0,0.1,0c0,0,0,0,0,0c-0.1,0-0.7,0.2-1.2,0.5c-0.6,0.3-1.5,0.9-1.9,1.4c-0.5,0.5-0.7,1-0.9,1.4
		C8,18.4,8,18.6,8,18.6s0.4-0.5,1-0.9c0.7-0.4,1.3-0.6,1.8-0.7c0.2,0,0.4,0,0.5,0c-0.3,1.2-0.3,2.6,0.2,4c0.7,2.5,3.2,6.6,6.1,10.3
		c2.9,3.7,3.9,6.8,3,8.6c-0.9,1.8-4.1,1.6-5.6,1.2c-2.1-0.5-3.3-1.2-4.8-2.8c-2-2.3-4.2-9.1-6-12.2c-0.9-1.5-1.9-2.9-3.4-4.2
		L0.8,0.6L0.8,0.6z M21.4,14.2c-0.7,0-1.4,0.6-1.4,1.4c0,0.7,0.6,1.3,1.4,1.3s1.4-0.6,1.4-1.3C22.7,14.9,22.1,14.2,21.4,14.2z"/>
	<path class="st0" d="M67.7,14.4c-4.1,0-6.7,3.1-6.7,7.2c0,3.9,2.4,7,6.5,7c4,0,6.8-2.8,6.8-7.3C74.3,17.6,71.9,14.4,67.7,14.4
		L67.7,14.4z M67.6,16.9c2.2,0,3.3,2.1,3.3,4.6c0,2.7-1.2,4.7-3.3,4.7c-2.1,0-3.4-1.9-3.4-4.6C64.3,18.9,65.5,16.9,67.6,16.9
		L67.6,16.9z M76.8,28.4h3.1V23h0.9c1.3,0,1.9,0.5,2.2,2.2c0.4,1.7,0.7,2.8,1,3.2h3.2c-0.3-0.5-0.7-2.3-1.1-3.9
		c-0.4-1.3-0.9-2.2-1.8-2.6v-0.1c1.2-0.4,2.4-1.6,2.4-3.4c0-1.3-0.4-2.2-1.3-2.9c-1-0.8-2.4-1.1-4.5-1.1c-1.7,0-3.1,0.1-4.2,0.3
		L76.8,28.4L76.8,28.4z M79.9,16.9c0.2,0,0.7-0.1,1.4-0.1c1.4,0,2.3,0.7,2.3,1.9c0,1.2-0.9,2-2.5,2h-1.2V16.9L79.9,16.9z M89,27.8
		c0.8,0.4,2.3,0.9,3.9,0.9c3.8,0,5.6-2,5.6-4.3c0-1.9-1.1-3.2-3.6-4.1c-1.8-0.7-2.6-1.1-2.6-1.9c0-0.7,0.7-1.3,2-1.3
		c1.4,0,2.3,0.4,2.9,0.7l0.7-2.5c-0.8-0.4-2-0.7-3.5-0.7c-3.3,0-5.2,1.8-5.2,4.2c0,2,1.5,3.3,3.8,4.1c1.7,0.6,2.3,1.1,2.3,1.9
		c0,0.9-0.8,1.5-2.2,1.5c-1.3,0-2.6-0.4-3.5-0.9L89,27.8L89,27.8z M100.2,28.4h10.7v-2.6h-6.5v-0.1l6.4-9.3v-1.8h-10v2.6h6v0.1
		l-6.6,9.5L100.2,28.4L100.2,28.4z M120.7,24.9l1.1,3.5h3.4l-4.3-13.8h-4.1l-4.2,13.8h3.2l1-3.5H120.7L120.7,24.9z M117.2,22.5
		l0.8-2.9c0.2-0.8,0.4-1.8,0.6-2.7h0c0.2,0.8,0.4,1.8,0.7,2.7l0.9,2.9H117.2L117.2,22.5z M119.1,11.4l-1.7,2.5h2.5l2.5-2.5
		L119.1,11.4L119.1,11.4z M138.5,20.5h-5.1V23h2.1v2.9c-0.2,0.1-0.8,0.2-1.5,0.2c-2.6,0-4.3-1.7-4.3-4.5c0-3,2-4.5,4.6-4.5
		c1.5,0,2.5,0.3,3.2,0.6l0.7-2.5c-0.7-0.3-2.1-0.7-3.8-0.7c-4.5,0-7.9,2.6-7.9,7.2c0,2,0.7,3.8,1.9,5c1.3,1.2,3.1,1.9,5.6,1.9
		c1.8,0,3.6-0.4,4.6-0.8L138.5,20.5L138.5,20.5z M147.6,14.4c-4.1,0-6.7,3.1-6.7,7.2c0,3.9,2.4,7,6.5,7c4,0,6.8-2.8,6.8-7.3
		C154.1,17.6,151.8,14.4,147.6,14.4L147.6,14.4z M147.5,16.9c2.1,0,3.3,2.1,3.3,4.6c0,2.7-1.2,4.7-3.3,4.7c-2.1,0-3.4-1.9-3.4-4.6
		C144.1,18.9,145.4,16.9,147.5,16.9L147.5,16.9z M156.1,27.8c0.8,0.4,2.3,0.9,3.9,0.9c3.8,0,5.6-2,5.6-4.3c0-1.9-1.1-3.2-3.6-4.1
		c-1.8-0.7-2.6-1.1-2.6-1.9c0-0.7,0.7-1.3,2-1.3c1.3,0,2.3,0.4,2.9,0.7l0.7-2.5c-0.8-0.4-2-0.7-3.5-0.7c-3.3,0-5.2,1.8-5.2,4.2
		c0,2,1.5,3.3,3.8,4.1c1.7,0.6,2.3,1.1,2.3,1.9c0,0.9-0.8,1.5-2.2,1.5c-1.3,0-2.6-0.4-3.5-0.9L156.1,27.8L156.1,27.8z M180.9,28.4
		l4.6-13.8h-3.3l-1.8,5.9c-0.5,1.6-0.9,3.2-1.2,4.9h-0.1c-0.3-1.7-0.8-3.3-1.2-4.9l-1.7-5.8h-3.4l4.4,13.8L180.9,28.4L180.9,28.4z
		 M195.7,20h-5.1v-2.9h5.4v-2.6h-8.5v13.8h8.8v-2.6h-5.7v-3.3h5.1L195.7,20L195.7,20z M192.1,11.4l-1.7,2.5h2.5l2.5-2.5L192.1,11.4
		L192.1,11.4z M199,28.4h3.1V23h0.9c1.3,0,1.9,0.5,2.2,2.2c0.4,1.7,0.7,2.8,1,3.2h3.2c-0.3-0.5-0.7-2.3-1.1-3.9
		c-0.3-1.3-0.9-2.2-1.8-2.6v-0.1c1.2-0.4,2.4-1.6,2.4-3.4c0-1.3-0.5-2.2-1.3-2.9c-1-0.8-2.4-1.1-4.5-1.1c-1.7,0-3.2,0.1-4.2,0.3
		L199,28.4L199,28.4z M202.1,16.9c0.2,0,0.7-0.1,1.4-0.1c1.4,0,2.3,0.7,2.3,1.9c0,1.2-0.9,2-2.5,2h-1.2V16.9L202.1,16.9z M219.8,20
		h-5.1v-2.9h5.4v-2.6h-8.5v13.8h8.8v-2.6h-5.7v-3.3h5.1L219.8,20L219.8,20z M223.1,28.4h8.6v-2.6h-5.5V14.6h-3.1V28.4L223.1,28.4z
		 M234.1,28.4h8.6v-2.6h-5.5V14.6h-3.1V28.4L234.1,28.4z M252.3,24.9l1.1,3.5h3.3l-4.3-13.8h-4.1l-4.2,13.8h3.2l1-3.5H252.3
		L252.3,24.9z M248.8,22.5l0.8-2.9c0.2-0.8,0.4-1.8,0.6-2.7h0c0.2,0.8,0.4,1.8,0.7,2.7l0.9,2.9H248.8L248.8,22.5z M250.7,11.4
		l-1.7,2.5h2.5l2.5-2.5L250.7,11.4L250.7,11.4z M260.1,28.4V17.2h-3.7v-2.6H267v2.6h-3.8v11.2H260.1L260.1,28.4z M274.6,14.4
		c-4.1,0-6.7,3.1-6.7,7.2c0,3.9,2.4,7,6.5,7c4,0,6.8-2.8,6.8-7.3C281.2,17.6,278.9,14.4,274.6,14.4L274.6,14.4z M274.5,16.9
		c2.2,0,3.3,2.1,3.3,4.6c0,2.7-1.2,4.7-3.3,4.7c-2.1,0-3.4-1.9-3.4-4.6C271.2,18.9,272.4,16.9,274.5,16.9L274.5,16.9z M274.8,11.4
		l-1.7,2.5h2.5l2.5-2.5H274.8L274.8,11.4z M289.7,27.8c0.8,0.4,2.3,0.9,3.9,0.9c3.8,0,5.6-2,5.6-4.3c0-1.9-1.2-3.2-3.6-4.1
		c-1.8-0.7-2.6-1.1-2.6-1.9c0-0.7,0.7-1.3,2-1.3c1.4,0,2.3,0.4,2.9,0.7l0.7-2.5c-0.8-0.4-2-0.7-3.5-0.7c-3.2,0-5.2,1.8-5.2,4.2
		c0,2,1.5,3.3,3.8,4.1c1.7,0.6,2.3,1.1,2.3,1.9c0,0.9-0.7,1.5-2.2,1.5c-1.3,0-2.6-0.4-3.5-0.9L289.7,27.8L289.7,27.8z M300.9,28.4
		h10.7v-2.6h-6.5v-0.1l6.4-9.3v-1.8h-10v2.6h5.9v0.1l-6.6,9.5L300.9,28.4L300.9,28.4z M319.8,14.4c-4.1,0-6.7,3.1-6.7,7.2
		c0,3.9,2.4,7,6.5,7c4,0,6.8-2.8,6.8-7.3C326.3,17.6,324,14.4,319.8,14.4L319.8,14.4z M319.7,16.9c2.1,0,3.3,2.1,3.3,4.6
		c0,2.7-1.2,4.7-3.3,4.7c-2.1,0-3.4-1.9-3.4-4.6C316.4,18.9,317.6,16.9,319.7,16.9L319.7,16.9z M328.9,28.4h8.6v-2.6H332V14.6h-3.1
		L328.9,28.4L328.9,28.4z M350.6,20.5h-5.1V23h2.1v2.9c-0.2,0.1-0.8,0.2-1.5,0.2c-2.5,0-4.3-1.7-4.3-4.5c0-3,2-4.5,4.6-4.5
		c1.5,0,2.4,0.3,3.2,0.6l0.6-2.5c-0.7-0.3-2-0.7-3.8-0.7c-4.5,0-7.9,2.6-7.9,7.2c0,2,0.7,3.8,2,5c1.3,1.2,3.1,1.9,5.6,1.9
		c1.8,0,3.6-0.4,4.6-0.8V20.5L350.6,20.5z M360.7,24.9l1.1,3.5h3.4l-4.3-13.8h-4.1l-4.2,13.8h3.2l1-3.5H360.7L360.7,24.9z
		 M357.2,22.5l0.8-2.9c0.2-0.8,0.4-1.8,0.6-2.7h0c0.2,0.8,0.4,1.8,0.7,2.7l0.9,2.9H357.2L357.2,22.5z M359.1,11.4l-1.7,2.5h2.5
		l2.5-2.5L359.1,11.4L359.1,11.4z M367.5,28.4h8.6v-2.6h-5.5V14.6h-3.1V28.4L367.5,28.4z M385.8,24.9l1.1,3.5h3.3l-4.3-13.8h-4.1
		l-4.2,13.8h3.2l1-3.5H385.8L385.8,24.9z M382.3,22.5l0.8-2.9c0.2-0.8,0.4-1.8,0.6-2.7h0c0.2,0.8,0.4,1.8,0.7,2.7l0.9,2.9H382.3
		L382.3,22.5z M394.1,28.4h3.1V17.2h3.8v-2.6h-10.6v2.6h3.7V28.4z"/>
</g>
</svg>
