<?xml version="1.0" encoding="utf-8"?>
<!-- Generator: Adobe Illustrator 22.1.0, SVG Export Plug-In . SVG Version: 6.00 Build 0)  -->
<svg version="1.1" id="Layer_1" xmlns="http://www.w3.org/2000/svg" xmlns:xlink="http://www.w3.org/1999/xlink" x="0px" y="0px"
	 viewBox="0 0 53.9 66.6" style="enable-background:new 0 0 53.9 66.6;" xml:space="preserve">
<style type="text/css">
	.st0{fill:#254F51;}
</style>
<path class="st0" d="M0.4,0.4v41C0.4,35.8,0.5,0.4,0.4,0.4L0.4,0.4z"/>
<path class="st0" d="M0.5,0.3c0,0,0,35.4,0,41c0,4.4,3.7,12.1,10,17c7,5.5,16.7,8,16.7,8s8.4-2.5,15.3-8c6.2-5,11-12.6,11-17v-41
	H0.5z M34.2,23.4h-5.3v21.7h1v-1.7h4v3h-2.4v4h2.4v3h-4v-1.7h-1v1.7h-4v-30h-5.3c-2.5,0-4.5-2-4.5-4.5c0-2.5,2-4.5,4.5-4.5h2.9
	c-0.3-0.6-0.4-1.2-0.4-1.9c0-2.6,2.1-4.8,4.8-4.8c2.6,0,4.8,2.1,4.8,4.8c0,0.7-0.2,1.3-0.4,1.9h2.9c2.5,0,4.5,2,4.5,4.5
	C38.7,21.3,36.7,23.4,34.2,23.4z"/>
</svg>
