<svg width="23" height="23" viewBox="0 0 23 23" fill="none" xmlns="http://www.w3.org/2000/svg">
<path d="M11.5724 0C5.26079 0 0.144775 5.0604 0.144775 11.3034C0.144775 17.5464 5.26079 22.6068 11.5724 22.6068C17.884 22.6068 23 17.5458 23 11.3034C23 5.06101 17.884 0 11.5724 0ZM17.9207 6.52881L16.9069 7.48978C16.82 7.55579 16.7766 7.66418 16.7937 7.77135V14.8342C16.7766 14.9414 16.8188 15.0498 16.9069 15.1158L17.8975 16.0768V16.2887H12.918V16.0768L13.944 15.0928C14.0444 14.9929 14.0444 14.9638 14.0444 14.8112V9.1017L11.1934 16.2645H10.8084L7.48913 9.1017V13.9029C7.46097 14.1052 7.52892 14.308 7.67279 14.4534L9.00673 16.0544V16.2651H5.22467V16.0544L6.55861 14.4534C6.70125 14.3074 6.76492 14.1028 6.73064 13.9029V8.35206C6.74594 8.19765 6.68717 8.04566 6.57086 7.94151L5.38506 6.52942V6.31748H9.06611L11.9122 12.4908L14.4135 6.31748H17.9226V6.52942L17.9207 6.52881Z" fill="#6C6C7A"/>
<path d="M16.7937 7.77136V14.8342C16.7765 14.9414 16.8188 15.0498 16.9069 15.1158L17.8974 16.0768V16.2887H12.9179V16.0768L13.944 15.0928C14.0444 14.9929 14.0444 14.9638 14.0444 14.8112V9.1017L11.1934 16.2645H10.8084L7.4891 9.1017V13.9029C7.46094 14.1052 7.5289 14.308 7.67276 14.4534L9.0067 16.0544V16.2651H5.22464V16.0544L6.55859 14.4534C6.70122 14.3074 6.76489 14.1028 6.73061 13.9029V8.35206C6.74591 8.19765 6.68714 8.04566 6.57083 7.94151L5.38503 6.52942V6.31748H9.06609L11.9121 12.4908L14.4135 6.31748H17.9225V6.52942L16.9088 7.49039C16.8218 7.55639 16.7784 7.66478 16.7955 7.77196L16.7937 7.77136Z" fill="white"/>
</svg>
