<svg width="24" height="23" viewBox="0 0 24 23" fill="none" xmlns="http://www.w3.org/2000/svg">
<path d="M12.2253 22.6068C18.5366 22.6068 23.653 17.5461 23.653 11.3034C23.653 5.06071 18.5366 0 12.2253 0C5.91405 0 0.797729 5.06071 0.797729 11.3034C0.797729 17.5461 5.91405 22.6068 12.2253 22.6068Z" fill="#6C6C7A"/>
<path fill-rule="evenodd" clip-rule="evenodd" d="M9.16322 4.77762H15.2875C17.2551 4.77762 18.8731 6.37803 18.8731 8.3242V14.3504C18.8731 16.2966 17.2551 17.897 15.2875 17.897H9.16322C7.19567 17.897 5.57767 16.2966 5.57767 14.3504V8.3242C5.57767 6.37803 7.19567 4.77762 9.16322 4.77762ZM15.795 7.06894C16.2076 7.06894 16.5566 7.41409 16.5566 7.82222C16.5566 8.23034 16.2076 8.57549 15.795 8.57549C15.3506 8.57549 15.0334 8.23034 15.0334 7.82222C15.0334 7.41409 15.3506 7.06894 15.795 7.06894ZM12.2094 7.75924H12.2413C14.2088 7.75924 15.8587 9.39114 15.8587 11.3373C15.8587 13.3144 14.2088 14.9154 12.2413 14.9154H12.2094C10.2419 14.9154 8.62389 13.315 8.62389 11.3373C8.62389 9.39114 10.2419 7.75924 12.2094 7.75924ZM12.2094 8.98301H12.2413C13.5422 8.98301 14.6208 10.05 14.6208 11.3367C14.6208 12.6549 13.5422 13.7219 12.2413 13.7219H12.2094C10.9086 13.7219 9.82989 12.6549 9.82989 11.3367C9.82989 10.05 10.9086 8.98301 12.2094 8.98301ZM9.19505 5.90693H15.2557C16.6202 5.90693 17.7307 7.00536 17.7307 8.35508V14.3183C17.7307 15.668 16.6202 16.7665 15.2557 16.7665H9.19505C7.8305 16.7665 6.72 15.668 6.72 14.3183V8.35508C6.72 7.00536 7.8305 5.90693 9.19505 5.90693Z" fill="white"/>
</svg>
