<svg width="24" height="23" viewBox="0 0 24 23" fill="none" xmlns="http://www.w3.org/2000/svg">
<path d="M11.8989 22.6068C18.1416 22.6068 23.2023 17.5461 23.2023 11.3034C23.2023 5.06071 18.1416 0 11.8989 0C5.65616 0 0.595459 5.06071 0.595459 11.3034C0.595459 17.5461 5.65616 22.6068 11.8989 22.6068Z" fill="#6C6C7A"/>
<path d="M18.7365 10.3346C18.728 10.6864 18.702 11.0394 18.6541 11.3882C18.616 11.6625 18.5385 11.9326 18.4658 12.2008C18.2684 12.9268 17.9245 13.5729 17.3813 14.1028C16.6262 14.8391 15.6864 15.1909 14.6734 15.3847C14.4227 15.4325 14.1696 15.4694 13.8953 15.5149C13.9346 15.576 13.9595 15.6214 13.9909 15.6626C14.4015 16.1882 14.5674 16.7962 14.5704 17.4513C14.5747 18.3051 14.5644 19.1595 14.5626 20.0139C14.5626 20.1302 14.5614 20.2471 14.5626 20.3633V21.3122C13.7154 21.5332 12.8277 21.6507 11.9134 21.6507C10.999 21.6507 10.1101 21.5326 9.26238 21.3116V20.4614C9.26056 19.997 9.25027 19.5338 9.24663 19.0693C9.24361 18.7108 9.24663 18.7187 8.88513 18.755C8.40071 18.8029 7.91508 18.8489 7.43126 18.7393C6.74641 18.5843 6.1978 18.2307 5.84296 17.6173C5.70066 17.3708 5.59651 17.1026 5.47419 16.8446C5.25196 16.3741 4.95828 15.9617 4.52714 15.6566C4.39695 15.5651 4.27403 15.464 4.15111 15.3623C4.07724 15.3011 4.01789 15.2236 4.05241 15.1201C4.08753 15.0141 4.17957 14.9868 4.2813 14.9735C4.78328 14.9051 5.19746 15.097 5.57531 15.4004C5.86052 15.6299 6.06276 15.9266 6.2529 16.2342C6.58473 16.7707 7.0419 17.1365 7.6771 17.2497C8.15971 17.3351 8.62233 17.2449 9.07709 17.0838C9.22483 17.0317 9.29447 16.9403 9.32051 16.7877C9.39499 16.3469 9.56756 15.9496 9.86912 15.613C9.8897 15.5893 9.90605 15.5615 9.93391 15.5221C9.81401 15.5034 9.71168 15.487 9.60995 15.4725C8.93721 15.3786 8.28142 15.2212 7.66196 14.936C6.51267 14.4073 5.75939 13.533 5.38639 12.3255C5.20534 11.7394 5.12662 11.1381 5.0921 10.5283C5.06788 10.0851 5.08302 9.64486 5.16598 9.20828C5.29919 8.5095 5.59045 7.88277 6.04278 7.33174C6.14209 7.21124 6.15602 7.07924 6.11605 6.93331C6.09122 6.84429 6.06761 6.75467 6.04823 6.66385C5.88232 5.88877 5.98041 5.1367 6.23897 4.39675C6.27833 4.28351 6.34494 4.24173 6.45999 4.23689C6.80938 4.22175 7.13697 4.31016 7.46093 4.42642C8.0386 4.63351 8.56602 4.93506 9.07043 5.27961C9.16913 5.34682 9.2654 5.37225 9.38409 5.34803C9.79524 5.26326 10.2046 5.1688 10.62 5.10764C11.8904 4.91932 13.1474 5.00349 14.3876 5.3341C14.5238 5.37044 14.6364 5.35288 14.7569 5.28142C15.156 5.04527 15.5556 4.8079 15.9656 4.59052C16.3901 4.36465 16.8472 4.2381 17.3323 4.23023C17.4945 4.2278 17.5254 4.24355 17.5787 4.39675C17.6284 4.54026 17.672 4.68619 17.7089 4.83394C17.8887 5.5418 17.9148 6.25148 17.698 6.95571C17.652 7.10588 17.681 7.21064 17.7779 7.32811C18.177 7.81374 18.4585 8.36114 18.6014 8.97636C18.7044 9.42324 18.7486 9.87799 18.7377 10.3352L18.7365 10.3346Z" fill="white"/>
</svg>
