<svg width="23" height="23" viewBox="0 0 23 23" fill="none" xmlns="http://www.w3.org/2000/svg">
<g clip-path="url(#clip0_7_293)">
<path d="M11.3753 23.0006C17.6577 23.0006 22.7506 17.8518 22.7506 11.5003C22.7506 5.14886 17.6577 0 11.3753 0C5.0929 0 0 5.14886 0 11.5003C0 17.8518 5.0929 23.0006 11.3753 23.0006Z" fill="#6C6C7A"/>
<path fill-rule="evenodd" clip-rule="evenodd" d="M11.4996 9.58862C10.9652 6.74173 14.3509 5.04813 16.3466 7.10213C16.3466 7.10213 17.2375 6.85016 18.0218 6.34559C18.0218 6.34559 17.7366 7.31838 16.7744 7.93076C16.7744 7.93076 17.8439 7.78659 18.307 7.49827C18.307 7.49827 17.8439 8.47106 16.9883 8.83146C17.4514 15.3533 10.5014 19.3171 4.87016 16.0741C4.87016 16.0741 7.65016 16.2182 8.82626 14.8487C8.82626 14.8487 7.11573 14.9928 6.26016 12.9031C6.26016 12.9031 6.90184 13.1551 7.54352 12.831C7.54352 12.831 5.54779 12.507 5.36925 10.0926C5.36925 10.0926 6.01092 10.5971 6.7239 10.4166C6.7239 10.4166 4.51429 9.08344 5.76169 6.66903C5.76169 6.66903 8.1139 9.69582 11.5002 9.588L11.4996 9.58862Z" fill="white"/>
</g>
<defs>
<clipPath id="clip0_7_293">
<rect width="22.75" height="23" fill="white"/>
</clipPath>
</defs>
</svg>
