<svg width="23" height="23" viewBox="0 0 23 23" fill="none" xmlns="http://www.w3.org/2000/svg">
<g clip-path="url(#clip0_7_288)">
<path d="M11.5003 23.0006C17.8518 23.0006 23.0006 17.8518 23.0006 11.5003C23.0006 5.14886 17.8518 0 11.5003 0C5.14886 0 0 5.14886 0 11.5003C0 17.8518 5.14886 23.0006 11.5003 23.0006Z" fill="#6C6C7A"/>
<path fill-rule="evenodd" clip-rule="evenodd" d="M9.2467 18.9203H12.0049V12.5569H14.0422L14.4495 9.98661H12.0043V8.04289C12.0043 7.32208 12.6936 6.91424 13.3522 6.91424H14.5431V4.78261L12.4115 4.68835C10.3741 4.56329 9.24546 6.16139 9.24546 8.07369V9.98599H6.92593V12.5563H9.24546V18.9197L9.2467 18.9203Z" fill="white"/>
</g>
<defs>
<clipPath id="clip0_7_288">
<rect width="23" height="23" fill="white"/>
</clipPath>
</defs>
</svg>
