<svg width="23" height="23" viewBox="0 0 23 23" fill="none" xmlns="http://www.w3.org/2000/svg">
<g clip-path="url(#clip0_7_271)">
<path d="M19.6323 19.6458C24.1235 15.1547 24.1235 7.8731 19.6323 3.38195C15.1412 -1.1092 7.85958 -1.1092 3.36843 3.38195C-1.12272 7.8731 -1.12272 15.1547 3.36843 19.6458C7.85958 24.137 15.1412 24.137 19.6323 19.6458Z" fill="#6C6C7A"/>
<path fill-rule="evenodd" clip-rule="evenodd" d="M5.7911 9.46113H8.07674V17.1356H5.7911V9.46113ZM6.91975 5.56752C7.68184 5.56752 8.30223 6.18853 8.30223 6.95C8.30223 7.71147 7.68122 8.33247 6.91975 8.33247C6.15828 8.33247 5.56561 7.71147 5.56561 6.95C5.56561 6.18853 6.15828 5.56752 6.91975 5.56752ZM9.43088 9.46113H11.6882V10.5331C12.1681 9.82769 12.9579 9.37611 13.8605 9.37611H14.4815C15.9206 9.37611 17.077 10.5614 17.077 11.9716V17.135H14.8197V16.4296V12.9876C14.7914 12.1127 14.1987 11.4357 13.3245 11.4357C12.4497 11.4357 11.7165 12.1127 11.6882 12.9876V17.135H9.43088V9.46051V9.46113Z" fill="white"/>
</g>
<defs>
<clipPath id="clip0_7_271">
<rect width="23" height="23" fill="white"/>
</clipPath>
</defs>
</svg>
