<?xml version="1.0" encoding="utf-8"?>
<!-- Generator: Adobe Illustrator 22.1.0, SVG Export Plug-In . SVG Version: 6.00 Build 0)  -->
<svg version="1.1" id="Layer_1" xmlns="http://www.w3.org/2000/svg" xmlns:xlink="http://www.w3.org/1999/xlink" x="0px" y="0px"
	 viewBox="0 0 394 57.7" style="enable-background:new 0 0 394 57.7;" xml:space="preserve">
<style type="text/css">
	.st0{clip-path:url(#SVGID_2_);}
	.st1{fill:#F6AE2D;}
	.st2{fill:#4F46E5;}
</style>
<g>
	<defs>
		<rect id="SVGID_1_" y="0" width="394" height="57"/>
	</defs>
	<clipPath id="SVGID_2_">
		<use xlink:href="#SVGID_1_"  style="overflow:visible;"/>
	</clipPath>
	<g class="st0">
		<path class="st1" d="M26.2,2.2L2,25c-0.2,0.2-0.4,0.3-0.6,0.3c-0.2,0-0.5,0-0.7-0.1c-0.2-0.1-0.4-0.3-0.5-0.5
			C0.1,24.6,0,24.4,0,24.1V1.3c0-0.3,0.1-0.6,0.4-0.9C0.6,0.1,0.9,0,1.2,0h24.3c0.2,0,0.5,0.1,0.7,0.3c0.2,0.1,0.3,0.3,0.4,0.6
			c0.1,0.2,0.1,0.5,0,0.7C26.5,1.8,26.4,2,26.2,2.2z"/>
		<path class="st2" d="M9,43.8v12c0,0.3-0.1,0.6-0.4,0.9C8.4,56.9,8.1,57,7.7,57H1.2c-0.3,0-0.6-0.1-0.9-0.4C0.1,56.4,0,56.1,0,55.8
			V40.3c0-0.2,0-0.3,0.1-0.5c0.1-0.2,0.2-0.3,0.3-0.4l9.7-9.2l6.9-6.6l18.9-18l5.7-5.3C41.8,0.1,42.1,0,42.4,0H52
			c0.2,0,0.5,0.1,0.7,0.2c0.2,0.1,0.4,0.3,0.4,0.6c0.1,0.2,0.1,0.5,0.1,0.7C53.1,1.8,53,2,52.8,2.2l-23,21.8
			c-0.2,0.2-0.3,0.6-0.3,0.9c0,0.3,0.1,0.6,0.3,0.9L56,54.9c0.2,0.2,0.3,0.4,0.3,0.6c0,0.2,0,0.5-0.1,0.7c-0.1,0.2-0.3,0.4-0.5,0.5
			c-0.2,0.1-0.4,0.2-0.7,0.2h-9.7c-0.2,0-0.3,0-0.5-0.1c-0.2-0.1-0.3-0.2-0.4-0.3L22.7,32.2c-0.1-0.1-0.2-0.2-0.4-0.3
			c-0.1-0.1-0.3-0.1-0.5-0.1c-0.2,0-0.3,0-0.5,0.1c-0.1,0.1-0.3,0.2-0.4,0.3L9.3,42.9c-0.1,0.1-0.2,0.3-0.3,0.4
			C9,43.4,9,43.6,9,43.8z"/>
		<path class="st2" d="M82.8,0c-3.7,0-7.3,0.7-10.7,2.2c-3.4,1.4-6.4,3.5-9,6.2c-2.6,2.7-4.6,5.8-5.9,9.3c-1.4,3.5-2,7.2-1.9,10.9
			c-0.1,3.8,0.5,7.5,1.9,11.1c1.3,3.5,3.4,6.7,5.9,9.4c2.6,2.7,5.7,4.9,9.1,6.3c3.4,1.5,7.1,2.2,10.8,2.2c3.7,0,7.4-0.8,10.8-2.2
			c3.4-1.5,6.5-3.6,9.1-6.3c2.6-2.7,4.6-5.9,5.9-9.4s2-7.3,1.9-11.1c0.1-3.7-0.6-7.5-2-10.9c-1.4-3.5-3.4-6.6-6-9.3
			c-2.6-2.7-5.7-4.8-9-6.2C90.1,0.7,86.4,0,82.8,0z M102.9,28.6c0.1,2.8-0.4,5.5-1.3,8.1c-1,2.6-2.4,4.9-4.3,6.9
			c-1.9,2-4.1,3.6-6.6,4.6c-2.5,1.1-5.2,1.6-7.8,1.6c-2.7,0-5.4-0.6-7.8-1.6c-2.5-1.1-4.7-2.7-6.6-4.6c-1.9-2-3.3-4.3-4.3-6.9
			c-1-2.6-1.4-5.3-1.3-8.1c-0.1-2.8,0.4-5.5,1.3-8.1c1-2.6,2.4-4.9,4.3-6.9c1.9-2,4.1-3.6,6.6-4.6c2.5-1.1,5.2-1.6,7.8-1.6
			c2.7,0,5.4,0.6,7.8,1.6s4.7,2.7,6.6,4.6c1.9,2,3.3,4.3,4.3,6.9C102.6,23.1,103,25.8,102.9,28.6z"/>
		<path class="st2" d="M118,3.1v52.7c0,0.3,0.1,0.6,0.4,0.9c0.2,0.2,0.5,0.4,0.9,0.4h4.9c0.3,0,0.6-0.1,0.9-0.4
			c0.2-0.2,0.4-0.5,0.4-0.9V21.9c0-0.2,0.1-0.5,0.2-0.7c0.1-0.2,0.3-0.4,0.6-0.5c0.2-0.1,0.5-0.1,0.7-0.1c0.2,0.1,0.5,0.2,0.6,0.4
			l18.1,19.1l0.4-0.5l8-8.7c3.2-3.4,6.3-6.9,9.1-9.9c0.2-0.2,0.4-0.3,0.6-0.4c0.2-0.1,0.5,0,0.7,0.1c0.2,0.1,0.4,0.2,0.6,0.4
			c0.1,0.2,0.2,0.4,0.2,0.7v33.9c0,0.3,0.1,0.6,0.4,0.9c0.2,0.2,0.5,0.4,0.9,0.4h4.9c0.3,0,0.6-0.1,0.9-0.4c0.2-0.2,0.4-0.5,0.4-0.9
			V3.1c0-0.2-0.1-0.5-0.2-0.7c-0.1-0.2-0.3-0.4-0.6-0.4c-0.2-0.1-0.5-0.1-0.7-0.1c-0.2,0.1-0.4,0.2-0.6,0.4l-23.9,26
			c-0.1,0.1-0.3,0.2-0.4,0.3c-0.2,0.1-0.3,0.1-0.5,0.1c-0.2,0-0.3,0-0.5-0.1c-0.2-0.1-0.3-0.2-0.4-0.3L120,2.3
			c-0.2-0.2-0.4-0.3-0.6-0.4c-0.2-0.1-0.5,0-0.7,0.1c-0.2,0.1-0.4,0.2-0.6,0.4C118,2.6,118,2.9,118,3.1z"/>
		<path class="st2" d="M200,0h-16.6c-0.3,0-0.6,0.1-0.9,0.4c-0.2,0.2-0.4,0.5-0.4,0.9v54.5c0,0.3,0.1,0.6,0.4,0.9
			c0.2,0.2,0.5,0.4,0.9,0.4h5.3c0.3,0,0.6-0.1,0.9-0.4c0.2-0.2,0.4-0.5,0.4-0.9v-13c0-0.3,0.1-0.6,0.4-0.9c0.2-0.2,0.5-0.4,0.9-0.4
			h8.9c12.3,0,21.2-8.6,21.2-20.4c0-2.8-0.5-5.6-1.6-8.2c-1.1-2.6-2.6-5-4.6-7c-2-2-4.3-3.5-6.9-4.5C205.5,0.4,202.8-0.1,200,0z
			 M213.3,21.2c0,7.4-5.6,12.7-13.3,12.7h-8.9c-0.3,0-0.6-0.1-0.9-0.4c-0.2-0.2-0.4-0.5-0.4-0.9V9c0-0.3,0.1-0.6,0.4-0.9
			c0.2-0.2,0.5-0.4,0.9-0.4h8.9c1.7-0.1,3.5,0.3,5.1,0.9c1.6,0.7,3.1,1.6,4.3,2.9c1.2,1.3,2.2,2.8,2.9,4.4
			C213,17.6,213.3,19.4,213.3,21.2z"/>
		<path class="st2" d="M255.6,0c-3.7,0-7.3,0.7-10.7,2.2c-3.4,1.4-6.4,3.5-9,6.2c-2.6,2.7-4.6,5.8-5.9,9.3c-1.4,3.5-2,7.2-2,10.9
			c-0.1,3.8,0.5,7.5,1.9,11.1c1.3,3.5,3.4,6.7,5.9,9.4c2.6,2.7,5.7,4.9,9.1,6.3c3.4,1.5,7.1,2.2,10.8,2.2c3.7,0,7.4-0.8,10.8-2.2
			c3.4-1.5,6.5-3.6,9.1-6.3c2.6-2.7,4.6-5.9,5.9-9.4c1.3-3.5,2-7.3,1.9-11.1c0.1-3.7-0.6-7.5-2-10.9c-1.4-3.5-3.4-6.6-6-9.3
			c-2.6-2.7-5.6-4.8-9-6.2C262.9,0.7,259.3,0,255.6,0z M275.8,28.6c0.1,2.8-0.4,5.5-1.3,8.1c-1,2.6-2.4,4.9-4.3,6.9
			c-1.9,2-4.1,3.6-6.6,4.6c-2.5,1.1-5.2,1.6-7.8,1.6c-2.7,0-5.4-0.6-7.8-1.6c-2.5-1.1-4.7-2.7-6.6-4.6c-1.9-2-3.3-4.3-4.3-6.9
			c-1-2.6-1.4-5.3-1.3-8.1c-0.1-2.8,0.4-5.5,1.3-8.1c1-2.6,2.4-4.9,4.3-6.9c1.9-2,4.1-3.6,6.6-4.6c2.5-1.1,5.2-1.6,7.8-1.6
			c2.7,0,5.4,0.6,7.8,1.6c2.5,1.1,4.7,2.7,6.6,4.6c1.9,2,3.3,4.3,4.3,6.9C275.4,23.1,275.9,25.8,275.8,28.6z"/>
		<path class="st2" d="M289.6,1.3v5.3c0,0.3,0.1,0.6,0.4,0.9c0.2,0.2,0.5,0.4,0.9,0.4h24.3c0.2,0,0.4,0.1,0.6,0.2
			c0.2,0.1,0.3,0.3,0.4,0.5c0.1,0.2,0.1,0.4,0.1,0.6c0,0.2-0.1,0.4-0.2,0.6l-30.3,45.4c-0.1,0.2-0.2,0.4-0.2,0.6
			c0,0.2,0,0.5,0.1,0.6s0.3,0.4,0.5,0.5c0.2,0.1,0.4,0.2,0.6,0.2h42c0.3,0,0.6-0.1,0.9-0.4c0.2-0.2,0.4-0.5,0.4-0.9v-5.4
			c0-0.3-0.1-0.6-0.4-0.9c-0.2-0.2-0.5-0.4-0.9-0.4H301c-0.2,0-0.4-0.1-0.6-0.2c-0.2-0.1-0.3-0.3-0.4-0.5c-0.1-0.2-0.1-0.4-0.1-0.6
			c0-0.2,0.1-0.4,0.2-0.6L330,1.9c0.1-0.2,0.2-0.4,0.2-0.6c0-0.2,0-0.5-0.1-0.6c-0.1-0.2-0.3-0.4-0.5-0.5c-0.2-0.1-0.4-0.2-0.6-0.2
			h-38.1c-0.3,0-0.6,0.1-0.9,0.4C289.7,0.6,289.6,0.9,289.6,1.3z"/>
		<path class="st2" d="M343.7,0h-5.3c-0.7,0-1.2,0.6-1.2,1.2v54.5c0,0.7,0.5,1.2,1.2,1.2h5.3c0.7,0,1.2-0.6,1.2-1.2V1.3
			C344.9,0.6,344.3,0,343.7,0z"/>
		<path class="st2" d="M352,1.3v5.3c0,0.3,0.1,0.6,0.4,0.9c0.2,0.2,0.5,0.4,0.9,0.4h14.7c0.3,0,0.6,0.1,0.9,0.4
			c0.2,0.2,0.4,0.5,0.4,0.9v46.7c0,0.3,0.1,0.6,0.4,0.9c0.2,0.2,0.5,0.4,0.9,0.4h5.3c0.3,0,0.6-0.1,0.9-0.4c0.2-0.2,0.4-0.5,0.4-0.9
			V9c0-0.3,0.1-0.6,0.4-0.9c0.2-0.2,0.5-0.4,0.9-0.4h14.7c0.3,0,0.6-0.1,0.9-0.4c0.2-0.2,0.4-0.5,0.4-0.9V1.3c0-0.3-0.1-0.6-0.4-0.9
			c-0.2-0.2-0.5-0.4-0.9-0.4h-39.5c-0.3,0-0.6,0.1-0.9,0.4C352.2,0.6,352,0.9,352,1.3z"/>
	</g>
</g>
</svg>
