<?xml version="1.0" encoding="utf-8"?>
<!-- Generator: Adobe Illustrator 22.1.0, SVG Export Plug-In . SVG Version: 6.00 Build 0)  -->
<svg version="1.1" id="Layer_1" xmlns="http://www.w3.org/2000/svg" xmlns:xlink="http://www.w3.org/1999/xlink" x="0px" y="0px"
	 viewBox="0 0 354.3 137.5" style="enable-background:new 0 0 354.3 137.5;" xml:space="preserve">
<style type="text/css">
	.st0{fill:#FFFFFF;}
</style>
<g>
	<g>
		<path class="st0" d="M113.7,42.5l-13.2-12.7c-0.2-0.2-0.4-0.3-0.7-0.3l0,0c-0.2,0-0.5,0.1-0.6,0.3L84.8,44.5c-0.2,0.2,0,0.4,0,0.7
			s-0.2,0.5,0,0.7l8.2,7.9c1.3,1.3,2,2.6,2.1,4.1c0.1,1.4-0.5,2.8-2.1,4.3c-0.2,0.2-0.3,0.4-0.3,0.7s0.1,0.5,0.3,0.7l15.8,15.5
			c0.2,0.2,0.5,0.3,0.7,0.3s0.5-0.1,0.6-0.3l4.8-4.9c4.3-4.4,6.3-9.7,6-15.7C120.8,52.3,118.3,47,113.7,42.5z"/>
	</g>
	<g>
		<path class="st0" d="M142.4,13.5L129.5,0.7c-0.2-0.2-0.4-0.3-0.7-0.3l0,0c-0.2,0-0.5,0.1-0.6,0.3l-14.5,14.8
			c-0.2,0.2-0.3,0.4-0.3,0.7c0,0.3,0.1,0.5,0.3,0.7l7.9,7.9c1.3,1.3,2,2.6,2.1,4.1c0.1,1.4-0.6,2.8-2.1,4.3
			c-0.2,0.2-0.3,0.4-0.3,0.7s0.1,0.5,0.3,0.7l15.8,15.5c0.2,0.2,0.5,0.3,0.7,0.3s0.5-0.1,0.6-0.3l4.8-4.9c4.3-4.4,6.3-9.7,6-15.7
			C149.5,23.3,147,18,142.4,13.5z"/>
	</g>
	<path class="st0" d="M180.5,60.3c0,0.5,0.1,1.3,0.1,2.2c0,1,0,1.8,0,2.5c0,6.4-0.4,9.1-1.6,14.4c-1.9,8.4-8.7,17.5-13.1,20.9
		c-7.3,5.9-16,10.6-28,10.6c0,0-29.4,0-31.3,0c-3.1,0-6.4-2.4-6.4-6.4c0-2.2,0-7.4,0-8.2c0-3,2.2-6.4,6.4-6.4c2,0,25.6,0,25.6,0
		c6.8,0,14.5-2.7,19.9-8.7c2.1-2.2,7.4-8,7.3-19.4c0,0,0-28.7,0-37.5c0-5.9,5.7-6.6,5.7-6.6s6.5,0,8.8,0c1.9,0,6.4,1.3,6.4,6.8
		C180.5,34.2,180.5,60.3,180.5,60.3z"/>
	<path class="st0" d="M68.1,111.1l-11.5,0.1c-1.8,0-3.3-1.3-3.3-3.2V72.1c0-9.8-8.9-15.8-15.9-15.8H21.8v48.5
		c-0.2,4.6-3.9,6.4-6.4,6.4H4c-2.1,0-3.2-1.9-3.2-3.2V46c0-4.9,3.3-7,6.4-7h39.9c6.3,0,14.3,2.9,18.8,7.8c5.1,5.5,8.2,11.3,8.2,19.8
		v38C74.2,107.3,72.1,111.1,68.1,111.1z"/>
	<path class="st0" d="M311.6,134.5c-0.8,1.4-2,2.6-4.6,2.6h-11.8c-3.1,0-4.1-0.4-4.1-3.2c0-1,0.9-2.6,1.8-4.6l13-28.9l-35.6-57.1
		c-0.5-0.8-0.7-1.5-0.7-2.1c0-1.5,0.8-2.3,2.5-2.3H283c3.8,0,6.3,1.1,7.5,3.4l24.2,37.3l17.2-36.4c1.9-2.9,4.4-4.4,7.5-4.4h11.7
		c1.6,0,2.4,0.8,2.4,2.3c0,0.7-0.2,1.4-0.6,2.1L311.6,134.5z"/>
	<path class="st0" d="M256.2,47.5c-5.3-5.7-12.6-8.6-21.8-8.6h-13.2c-9.2,0-16.5,2.9-21.8,8.6c-6.3,6.3-8.2,14.1-8.2,27
		c0,29.2,17.5,36.5,29.7,36.5h13.8c12.2,0,29.7-7.4,29.7-36.5C264.4,61.6,262.5,53.8,256.2,47.5z M230.9,93.4
		c-1.5,0.1-4.6,0.1-6.2,0c-5.5-0.3-12.5-1.4-12.5-18.3c0-17,8.9-18.6,12.7-18.8c2.1-0.1,5,0,6,0c3.8,0.1,12.5,1.8,12.5,18.8
		C243.4,92,236.4,93.1,230.9,93.4z"/>
</g>
</svg>
