<?xml version="1.0" encoding="UTF-8"?>
<svg version="1.1" viewBox="0 0 1065 427" xmlns="http://www.w3.org/2000/svg">
  <path transform="matrix(1.3333 0 0 -1.3333 500.25 395.72)" d="m-81 120c0-78.276-20.746-142.73-142.51-142.73h-8.551c-120.29 0-142.51 64.456-142.51 142.73v34.016c0 78.276 17.196 141.73 142.51 141.73h8.551c118.56 0 142.51-63.456 142.51-141.73z" fill="#499dda"/>
  <path transform="matrix(1.3333 0 0 -1.3333 284.14 385.72)" d="m-81 120c0-11.574-1.921-19.929-5.764-25.069-4.696-6.287-12.951-9.429-24.762-9.429-11.814 0-20.139 3.142-24.976 9.429-3.842 5.283-5.763 13.642-5.763 25.069v44.568c0 11.567 1.921 19.926 5.763 25.069 4.837 6.427 13.162 9.642 24.976 9.642 11.811 0 20.066-3.215 24.762-9.642 3.843-5.143 5.764-13.502 5.764-25.069zm59.023 30.699c-15.827 0-28.094-3.811-36.823-11.409v25.194c0 37.854-17.578 56.783-52.726 56.783-35.295 0-52.94-18.929-52.94-56.783v-44.401c0-37.713 17.645-56.568 52.94-56.568 15.723 0 27.919 3.784 36.609 11.331v-37.284h22.201v56.569c0 11.527 1.921 19.852 5.764 24.975 4.836 6.404 13.161 9.606 24.975 9.606 11.811 0 20.066-3.202 24.763-9.606 3.842-5.123 5.763-13.448 5.763-24.975v-56.569h22.2v56.462c0 37.784-17.577 56.675-52.726 56.675" fill="#ffffff"/>
  <path transform="matrix(1.3333 0 0 -1.3333 611.66 375.69)" d="m-81 120c-13.666 0-23.106-1.902-28.316-5.706-3.804-2.819-5.705-7.184-5.705-13.101v-71.423h-21.977v71.288c0 27.137 18.665 40.707 55.998 40.707z" fill="#7e878e"/>
  <path transform="matrix(1.3333 0 0 -1.3333 735.34 421.47)" d="m-81 120c0 11.444-1.902 19.711-5.705 24.799-4.649 6.36-12.821 9.539-24.513 9.539-11.695 0-19.863-3.179-24.512-9.539-3.803-5.088-5.706-13.355-5.706-24.799 0-11.447 1.903-19.715 5.706-24.799 4.649-6.221 12.817-9.328 24.512-9.328 11.692 0 19.864 3.107 24.513 9.328 3.803 5.084 5.705 13.352 5.705 24.799m21.977 0c0-37.264-17.401-55.892-52.195-55.892-34.939 0-52.405 18.628-52.405 55.892 0 37.402 17.466 56.104 52.405 56.104 34.794 0 52.195-18.702 52.195-56.104" fill="#7e878e"/>
  <path transform="matrix(1.3333 0 0 -1.3333 896.02 421.47)" d="m-81 120c0 11.444-1.902 19.711-5.706 24.799-4.791 6.36-13.032 9.539-24.724 9.539h-30.217v-34.338c0-11.305 1.902-19.503 5.706-24.588 4.648-6.359 12.817-9.539 24.511-9.539 11.692 0 19.933 3.18 24.724 9.539 3.804 5.085 5.706 13.283 5.706 24.588m21.977 0c0-37.264-17.47-55.892-52.407-55.892-34.796 0-52.193 18.665-52.193 55.997v100.16h21.976v-44.164h30.217c34.937 0 52.407-18.702 52.407-56.104" fill="#7e878e"/>
  <path transform="matrix(1.3333 0 0 -1.3333 1046.8 421.47)" d="m-81 120c0 11.444-1.902 19.711-5.705 24.799-4.649 6.36-12.821 9.539-24.513 9.539-11.695 0-19.863-3.179-24.513-9.539-3.802-5.088-5.705-13.355-5.705-24.799 0-11.447 1.903-19.715 5.705-24.799 4.65-6.221 12.818-9.328 24.513-9.328 11.692 0 19.864 3.107 24.513 9.328 3.803 5.084 5.705 13.352 5.705 24.799m21.977 0c0-37.264-17.401-55.892-52.195-55.892-34.939 0-52.405 18.628-52.405 55.892 0 37.402 17.466 56.104 52.405 56.104 34.794 0 52.195-18.702 52.195-56.104" fill="#7e878e"/>
  <path transform="matrix(1.3333 0 0 -1.3333 1172.8 496.28)" d="m-81 120c-37.333 0-55.998 13.593-55.998 40.783v115.59h21.977v-44.164h34.021v-21.765h-34.021v-49.754c0-5.954 1.901-10.348 5.705-13.181 5.21-3.83 14.65-5.742 28.316-5.742z" fill="#7e878e"/>
</svg>
