<svg version="1.2" xmlns="http://www.w3.org/2000/svg" viewBox="0 0 799 319" width="799" height="319"><style>.a{fill:#fff}</style><path class="a" d="m101.6 89c-11.8 0-20.1 3.2-24.9 9.7-3.9 5.1-5.7 13.5-5.7 25v44.6c0 11.4 1.8 19.8 5.7 25.1 4.8 6.2 13.1 9.4 24.9 9.4 11.8 0 20-3.2 24.7-9.4 3.9-5.2 5.7-13.5 5.7-25.1v-44.6c0-11.5-1.9-19.9-5.7-25-4.7-6.5-12.9-9.7-24.7-9.7z"/><path fill-rule="evenodd" class="a" d="m294.2 141.8v34c0 78.3-20.8 142.7-142.5 142.7h-8.6c-120.3 0-142.5-64.4-142.5-142.7v-34c0-78.3 17.2-141.8 142.5-141.8h8.6c118.5 0 142.5 63.5 142.5 141.8zm-50.3 52.5q0-56.7-52.8-56.7-23.7 0-36.8 11.4v-25.2q0-56.8-52.7-56.8-53 0-53 56.8v44.4q0 56.6 53 56.6 23.6 0 36.6-11.4v37.3h22.2v-56.5q0-17.3 5.8-25 7.2-9.6 24.9-9.6 17.7 0 24.8 9.6 5.8 7.7 5.8 25v56.5h22.2z"/><path class="a" d="m377.7 160.8q-20.5 0-28.3 5.7-5.7 4.2-5.7 13.1v71.4h-22v-71.3q0-40.7 56-40.7z"/><path fill-rule="evenodd" class="a" d="m492.5 195.1q0 55.9-52.2 55.9-52.4 0-52.4-55.9 0-56.1 52.4-56.1 52.2 0 52.2 56.1zm-22 0q0-17.2-5.7-24.8-7-9.5-24.5-9.5-17.6 0-24.5 9.5-5.7 7.6-5.7 24.8 0 17.2 5.7 24.8 6.9 9.3 24.5 9.3 17.5 0 24.5-9.3 5.7-7.6 5.7-24.8z"/><path fill-rule="evenodd" class="a" d="m613 195.1q0 55.9-52.4 55.9-52.2 0-52.2-56v-100.2h22v44.2h30.2q52.4 0 52.4 56.1zm-22 0q0-17.2-5.7-24.8-7.2-9.5-24.7-9.5h-30.2v34.3q0 17 5.7 24.6 6.9 9.5 24.5 9.5 17.5 0 24.7-9.5 5.7-7.6 5.7-24.6z"/><path fill-rule="evenodd" class="a" d="m726.1 195.1q0 55.9-52.2 55.9-52.4 0-52.4-55.9 0-56.1 52.4-56.1 52.2 0 52.2 56.1zm-22 0q0-17.2-5.7-24.8-7-9.5-24.5-9.5-17.5 0-24.5 9.5-5.7 7.6-5.7 24.8 0 17.2 5.7 24.8 7 9.3 24.5 9.3 17.5 0 24.5-9.3 5.7-7.6 5.7-24.8z"/><path class="a" d="m798.6 251.2q-56 0-56-40.8v-115.6h22v44.2h34v21.8h-34v49.7q0 8.9 5.7 13.2 7.8 5.7 28.3 5.7z"/></svg>