<?xml version="1.0" encoding="utf-8"?>
<!-- Generator: Adobe Illustrator 22.1.0, SVG Export Plug-In . SVG Version: 6.00 Build 0)  -->
<svg version="1.1" id="Layer_1" xmlns="http://www.w3.org/2000/svg" xmlns:xlink="http://www.w3.org/1999/xlink" x="0px" y="0px"
	 viewBox="0 0 83.7 8.3" style="enable-background:new 0 0 83.7 8.3;" xml:space="preserve">
<style type="text/css">
	.st0{fill:#F05A24;}
</style>
<g>
	<path d="M0,4.1C0,1.7,1.9,0,4.4,0c2.5,0,4.4,1.7,4.4,4.1c0,2.5-1.9,4.1-4.4,4.1C1.9,8.3,0,6.6,0,4.1z M6.3,4.1c0-1.1-0.8-2-1.9-2
		c-1.2,0-1.9,0.9-1.9,2c0,1.1,0.8,2,1.9,2C5.5,6.1,6.3,5.3,6.3,4.1z"/>
	<path d="M15,8.1l-3-4.1v4.1H9.6v-8h2.5l2.8,3.8V0.1h2.4v8H15z"/>
	<path d="M18.6,8.1v-8h6.1v2.1H21V3h3.6v2.1H21V6h3.6v2.1H18.6z"/>
	<path class="st0" d="M25.8,8.1v-8H30c1.9,0,2.9,1.2,2.9,2.7c0,1.5-1,2.7-2.9,2.7h-1.8v2.5H25.8z M30.5,2.9c0-0.4-0.3-0.6-0.7-0.6
		h-1.5v1.3h1.5C30.1,3.5,30.5,3.3,30.5,2.9z"/>
	<path class="st0" d="M38.2,8.1l-0.3-0.9h-2.9l-0.3,0.9H32l3-8h3l3,8H38.2z M36.5,2.5l-0.8,2.6h1.6L36.5,2.5z"/>
	<path class="st0" d="M40.6,4.1c0-2.6,2-4.1,4.4-4.1c1.9,0,3,1.1,3.5,2.1l-2,1c-0.2-0.5-0.8-1-1.5-1c-1.2,0-1.9,0.9-1.9,2
		c0,1.1,0.8,2,1.9,2c0.5,0,1-0.2,1.2-0.4V5.5h-1.5V3.4h3.9v3.3c-0.9,1-2.1,1.6-3.7,1.6C42.6,8.3,40.6,6.7,40.6,4.1z"/>
	<path class="st0" d="M49.8,8.1v-8h6.1v2.1h-3.6V3h3.6v2.1h-3.6V6h3.6v2.1H49.8z"/>
	<path d="M56.9,8.1v-8h2.4V6h3v2.1H56.9z"/>
	<path d="M63.3,8.1v-8h2.4v8H63.3z"/>
	<path d="M72.4,8.1l-3-4.1v4.1h-2.4v-8h2.5l2.8,3.8V0.1h2.4v8H72.4z"/>
	<path d="M80.7,8.1l-1.8-2.8l-0.4,0.6v2.2h-2.4v-8h2.4v3l2.1-3h3l-3,3.7l3.2,4.3H80.7z"/>
</g>
</svg>
