<?xml version="1.0" encoding="utf-8"?>
<!-- Generator: Adobe Illustrator 16.0.0, SVG Export Plug-In . SVG Version: 6.00 Build 0)  -->
<!DOCTYPE svg PUBLIC "-//W3C//DTD SVG 1.1//EN" "http://www.w3.org/Graphics/SVG/1.1/DTD/svg11.dtd">
<svg version="1.1" id="Layer_1" xmlns="http://www.w3.org/2000/svg" xmlns:xlink="http://www.w3.org/1999/xlink" x="0px" y="0px"
	 width="410px" height="50px" viewBox="0 0 410 50" enable-background="new 0 0 410 50" xml:space="preserve">
<g>
	<path fill-rule="evenodd" clip-rule="evenodd" fill="#808080" d="M0.757,0.576h47.98v47.979H27.073
		c0.26-4.359-0.554-8.986-2.204-13.216c-0.682-1.741-5.061-9.775-5.698-11.504c-0.648-1.721-0.747-2.775-0.159-3.061
		c0.427-0.206,0.912-0.094,1.436,0.679c0.716,1.037,1.103,2.232,1.523,3.436c1.382,3.965,2.064,7.731,4.36,11.352
		c0.929,1.472,2.789,3.375,7.182,3.499c4.388,0.104,8.592-2.955,8.592-2.955s-17.604-15.21-18.479-16.167
		c-0.622-0.665-0.163-0.933,0.384-0.497c0.137,0.104,0.303,0.259,0.303,0.259l20.993,18.107c0,0,0.471-0.572,0.526-1.229
		c0.271-2.873-17.75-16.946-20.376-19.713c0,0,0.056-0.86-0.305-2.107c-2.079-6.12-9.862-6.205-14.734-3.893
		c-1.483,0.703-2.302,1.503-2.47,1.718c-0.178,0.222-0.283,0.346-0.283,0.346s1.699-0.937,3.359-1.26
		c1.468-0.285,2.902-0.077,3.425,0.01c-0.006,0.001-0.008,0.006-0.013,0.007c-0.231-0.001-2.168,0.188-3.34,0.674
		c-1.248,0.519-2.419,1.132-2.967,1.639c-0.555,0.499-0.885,0.946-0.885,0.946s1.347-0.731,2.518-0.898
		c1.168-0.166,2.172,0.012,2.289,0c0.093-0.017,0.118,0.025,0.134,0.036c-0.009,0.01-0.01,0.014-0.012,0.016
		c-0.081,0.025-0.656,0.218-1.225,0.533c-0.616,0.333-1.453,0.898-1.938,1.367c-0.48,0.468-0.733,1.015-0.881,1.355
		c-0.154,0.332-0.173,0.536-0.173,0.536s0.353-0.536,1.023-0.937c0.664-0.399,1.288-0.633,1.834-0.672
		c0.21-0.008,0.371-0.004,0.488,0.002c-0.267,1.215-0.252,2.568,0.163,4.025c0.709,2.512,3.229,6.609,6.142,10.33
		c2.923,3.737,3.897,6.783,2.975,8.567c-0.929,1.789-4.059,1.603-5.601,1.248c-2.089-0.503-3.323-1.161-4.806-2.849
		c-2.019-2.295-4.236-9.144-6.044-12.205c-0.899-1.528-1.858-2.866-3.373-4.182V0.576L0.757,0.576z M21.354,14.242
		c-0.748,0-1.354,0.608-1.354,1.354c0,0.74,0.606,1.349,1.354,1.349s1.356-0.609,1.356-1.349
		C22.71,14.851,22.102,14.242,21.354,14.242z"/>
	<polyline fill-rule="evenodd" clip-rule="evenodd" fill="#E5173F" points="409.243,38.953 51.142,38.953 51.142,0.555 
		408.891,0.555 	"/>
	<path fill-rule="evenodd" clip-rule="evenodd" fill="#FFFFFF" d="M67.719,14.405c-4.074,0-6.719,3.085-6.719,7.214
		c0,3.93,2.4,7.03,6.494,7.03c4.032,0,6.766-2.756,6.766-7.27C74.259,17.573,71.949,14.405,67.719,14.405L67.719,14.405z
		 M67.63,16.88c2.153,0,3.34,2.122,3.34,4.597c0,2.684-1.212,4.689-3.317,4.689c-2.09,0-3.357-1.909-3.357-4.599
		C64.296,18.88,65.53,16.88,67.63,16.88L67.63,16.88z M76.834,28.422h3.083v-5.446h0.943c1.269,0.022,1.863,0.487,2.23,2.2
		c0.409,1.723,0.735,2.822,0.968,3.246h3.184c-0.264-0.543-0.695-2.338-1.118-3.904c-0.354-1.28-0.882-2.196-1.845-2.587v-0.063
		c1.19-0.427,2.432-1.629,2.432-3.383c0-1.259-0.444-2.22-1.266-2.882c-0.979-0.775-2.412-1.075-4.461-1.075
		c-1.656,0-3.144,0.121-4.151,0.286V28.422L76.834,28.422z M79.918,16.932c0.233-0.028,0.656-0.096,1.42-0.096
		c1.432,0.023,2.289,0.654,2.289,1.919c0,1.19-0.926,1.97-2.476,1.97h-1.233V16.932L79.918,16.932z M88.965,27.792
		c0.775,0.42,2.332,0.857,3.902,0.857c3.781,0,5.568-1.986,5.568-4.307c0-1.94-1.147-3.21-3.587-4.106
		c-1.778-0.678-2.555-1.069-2.555-1.947c0-0.716,0.659-1.333,1.999-1.333c1.353,0,2.34,0.391,2.889,0.655l0.699-2.499
		c-0.821-0.384-1.966-0.707-3.522-0.707c-3.251,0-5.218,1.799-5.218,4.155c0,1.999,1.497,3.272,3.788,4.061
		c1.658,0.603,2.311,1.09,2.311,1.944c0,0.906-0.759,1.492-2.19,1.492c-1.332,0-2.618-0.419-3.451-0.853L88.965,27.792
		L88.965,27.792z M100.185,28.422h10.717v-2.586h-6.517v-0.078l6.417-9.33v-1.804h-10.008v2.579h5.953v0.076l-6.562,9.458V28.422
		L100.185,28.422z M120.715,24.875l1.065,3.546h3.357l-4.279-13.798h-4.088l-4.219,13.798h3.233l0.986-3.546H120.715L120.715,24.875
		z M117.216,22.545l0.819-2.926c0.224-0.796,0.436-1.842,0.638-2.664h0.039c0.202,0.822,0.45,1.844,0.697,2.664l0.858,2.926H117.216
		L117.216,22.545z M119.103,11.373l-1.724,2.52h2.5l2.498-2.52H119.103L119.103,11.373z M138.508,20.536h-5.129v2.44h2.124v2.86
		c-0.244,0.119-0.814,0.208-1.537,0.208c-2.551,0-4.336-1.66-4.336-4.498c0-3.008,1.965-4.486,4.561-4.486
		c1.522,0,2.454,0.263,3.221,0.6l0.654-2.501c-0.677-0.332-2.054-0.678-3.831-0.678c-4.52,0-7.855,2.619-7.875,7.231
		c-0.022,2.016,0.669,3.792,1.947,4.996c1.266,1.221,3.084,1.854,5.608,1.854c1.819,0,3.638-0.439,4.594-0.769V20.536
		L138.508,20.536z M147.55,14.405c-4.071,0-6.712,3.085-6.712,7.214c0,3.93,2.391,7.03,6.484,7.03c4.033,0,6.774-2.756,6.774-7.27
		C154.096,17.573,151.787,14.405,147.55,14.405L147.55,14.405z M147.466,16.88c2.144,0,3.333,2.122,3.333,4.597
		c0,2.684-1.21,4.689-3.31,4.689c-2.085,0-3.355-1.909-3.355-4.599C144.134,18.88,145.358,16.88,147.466,16.88L147.466,16.88z
		 M156.137,27.792c0.776,0.42,2.332,0.857,3.906,0.857c3.791,0,5.566-1.986,5.566-4.307c0-1.94-1.142-3.21-3.586-4.106
		c-1.78-0.678-2.555-1.069-2.555-1.947c0-0.716,0.654-1.333,2.011-1.333c1.346,0,2.333,0.391,2.874,0.655l0.7-2.499
		c-0.822-0.384-1.963-0.707-3.52-0.707c-3.253,0-5.216,1.799-5.216,4.155c0,1.999,1.498,3.272,3.782,4.061
		c1.665,0.603,2.313,1.09,2.313,1.944c0,0.906-0.753,1.492-2.189,1.492c-1.325,0-2.62-0.419-3.454-0.853L156.137,27.792
		L156.137,27.792z M180.882,28.422l4.642-13.798h-3.312l-1.764,5.898c-0.468,1.574-0.899,3.212-1.244,4.875h-0.066
		c-0.325-1.73-0.756-3.301-1.221-4.943l-1.678-5.83h-3.42l4.423,13.798H180.882L180.882,28.422z M195.722,20.047h-5.071V17.18h5.387
		v-2.556h-8.518v13.798h8.804v-2.574h-5.673v-3.263h5.071V20.047L195.722,20.047z M192.082,11.373l-1.717,2.52h2.498l2.497-2.52
		H192.082L192.082,11.373z M198.975,28.422h3.084v-5.446h0.948c1.264,0.022,1.851,0.487,2.229,2.2
		c0.409,1.723,0.734,2.822,0.955,3.246h3.195c-0.263-0.543-0.701-2.338-1.13-3.904c-0.344-1.28-0.882-2.196-1.844-2.587v-0.063
		c1.186-0.427,2.442-1.629,2.442-3.383c0-1.259-0.453-2.22-1.267-2.882c-0.99-0.775-2.417-1.075-4.464-1.075
		c-1.653,0-3.152,0.121-4.151,0.286V28.422L198.975,28.422z M202.06,16.932c0.226-0.028,0.654-0.096,1.413-0.096
		c1.431,0.023,2.297,0.654,2.297,1.919c0,1.19-0.917,1.97-2.476,1.97h-1.234V16.932L202.06,16.932z M219.84,20.047h-5.078V17.18
		h5.386v-2.556h-8.524v13.798h8.803v-2.574h-5.664v-3.263h5.078V20.047L219.84,20.047z M223.085,28.422h8.606v-2.619h-5.493V14.624
		h-3.113V28.422L223.085,28.422z M234.064,28.422h8.607v-2.619h-5.482V14.624h-3.125V28.422L234.064,28.422z M252.328,24.875
		l1.07,3.546h3.342l-4.274-13.798h-4.089l-4.219,13.798h3.242l0.977-3.546H252.328L252.328,24.875z M248.822,22.545l0.817-2.926
		c0.23-0.796,0.437-1.842,0.645-2.664h0.035c0.204,0.822,0.445,1.844,0.699,2.664l0.852,2.926H248.822L248.822,22.545z
		 M250.709,11.373l-1.723,2.52h2.492l2.503-2.52H250.709L250.709,11.373z M260.059,28.422V17.25h-3.692v-2.626h10.599v2.626h-3.761
		v11.172H260.059L260.059,28.422z M274.633,14.405c-4.076,0-6.713,3.085-6.713,7.214c0,3.93,2.396,7.03,6.487,7.03
		c4.034,0,6.771-2.756,6.771-7.27C281.178,17.573,278.86,14.405,274.633,14.405L274.633,14.405z M274.54,16.88
		c2.157,0,3.342,2.122,3.342,4.597c0,2.684-1.215,4.689-3.31,4.689c-2.09,0-3.353-1.909-3.353-4.599
		C271.22,18.88,272.437,16.88,274.54,16.88L274.54,16.88z M274.827,11.351l-1.716,2.521h2.5l2.499-2.521H274.827L274.827,11.351z
		 M289.721,27.792c0.781,0.42,2.331,0.857,3.898,0.857c3.792,0,5.579-1.986,5.579-4.307c0-1.94-1.158-3.21-3.6-4.106
		c-1.773-0.678-2.556-1.069-2.556-1.947c0-0.716,0.664-1.333,2.021-1.333c1.352,0,2.333,0.391,2.869,0.655l0.695-2.499
		c-0.798-0.384-1.955-0.707-3.508-0.707c-3.249,0-5.211,1.799-5.211,4.155c0,1.999,1.479,3.272,3.783,4.061
		c1.657,0.603,2.3,1.09,2.3,1.944c0,0.906-0.747,1.492-2.182,1.492c-1.321,0-2.618-0.419-3.457-0.853L289.721,27.792L289.721,27.792
		z M300.942,28.422h10.728v-2.586h-6.53v-0.078l6.423-9.33v-1.804h-10v2.579h5.949v0.076l-6.569,9.458V28.422L300.942,28.422z
		 M319.79,14.405c-4.077,0-6.709,3.085-6.709,7.214c0,3.93,2.388,7.03,6.468,7.03c4.029,0,6.785-2.756,6.785-7.27
		C326.334,17.573,324.018,14.405,319.79,14.405L319.79,14.405z M319.696,16.88c2.141,0,3.347,2.122,3.347,4.597
		c0,2.684-1.222,4.689-3.312,4.689c-2.092,0-3.373-1.909-3.373-4.599C316.357,18.88,317.596,16.88,319.696,16.88L319.696,16.88z
		 M328.887,28.422h8.627v-2.619h-5.479V14.624h-3.147V28.422L328.887,28.422z M350.631,20.536h-5.15v2.44h2.138v2.86
		c-0.243,0.119-0.829,0.208-1.548,0.208c-2.547,0-4.334-1.66-4.334-4.498c0-3.008,1.965-4.486,4.574-4.486
		c1.503,0,2.436,0.263,3.203,0.6l0.646-2.501c-0.659-0.332-2.047-0.678-3.809-0.678c-4.524,0-7.865,2.619-7.899,7.231
		c-0.015,2.016,0.678,3.792,1.961,4.996c1.276,1.221,3.08,1.854,5.607,1.854c1.81,0,3.64-0.439,4.611-0.769V20.536L350.631,20.536z
		 M360.734,24.875l1.068,3.546h3.356l-4.272-13.798h-4.094l-4.215,13.798h3.24l0.975-3.546H360.734L360.734,24.875z M357.24,22.545
		l0.818-2.926c0.24-0.796,0.435-1.842,0.631-2.664h0.047c0.204,0.822,0.449,1.844,0.691,2.664l0.868,2.926H357.24L357.24,22.545z
		 M359.127,11.373l-1.72,2.52h2.501l2.479-2.52H359.127L359.127,11.373z M367.534,28.422h8.605v-2.619h-5.492V14.624h-3.113V28.422
		L367.534,28.422z M385.795,24.875l1.067,3.546h3.345l-4.272-13.798h-4.084l-4.225,13.798h3.23l0.994-3.546H385.795L385.795,24.875z
		 M382.291,22.545l0.832-2.926c0.203-0.796,0.426-1.842,0.629-2.664h0.042c0.197,0.822,0.438,1.844,0.692,2.664l0.86,2.926H382.291
		L382.291,22.545z M394.107,28.422h3.138V17.25H401v-2.626h-10.591v2.626h3.698V28.422z"/>
</g>
</svg>
