<?xml version="1.0" encoding="utf-8"?>
<!-- Generator: Adobe Illustrator 22.1.0, SVG Export Plug-In . SVG Version: 6.00 Build 0)  -->
<svg version="1.1" id="Layer_1" xmlns="http://www.w3.org/2000/svg" xmlns:xlink="http://www.w3.org/1999/xlink" x="0px" y="0px"
	 viewBox="0 0 70.5 12.8" style="enable-background:new 0 0 70.5 12.8;" xml:space="preserve">
<style type="text/css">
	.st0{fill:#95C8A1;}
</style>
<g>
	<path class="st0" d="M2.8,8.2l-0.5,4.4H0L1.5,0.1h3.8c0.7,0,1.3,0.1,1.8,0.3c0.5,0.2,0.9,0.4,1.3,0.7S9,1.8,9.1,2.2
		s0.2,0.9,0.2,1.4c0,0.7-0.1,1.3-0.3,1.9S8.5,6.5,8.1,6.9c-0.4,0.4-0.9,0.7-1.6,1C5.9,8.1,5.2,8.2,4.3,8.2H2.8z M3.6,1.9L3,6.5h1.6
		c0.4,0,0.8-0.1,1.1-0.2C6,6.1,6.3,5.9,6.5,5.7S6.9,5.2,7,4.9c0.1-0.3,0.2-0.7,0.2-1.1c0-0.3,0-0.5-0.1-0.8C6.9,2.8,6.8,2.6,6.6,2.4
		C6.5,2.2,6.3,2.1,6,2C5.8,1.9,5.5,1.9,5.1,1.9H3.6z"/>
	<path class="st0" d="M17,5.8c0,0.4-0.1,0.8-0.2,1.1c-0.2,0.3-0.4,0.6-0.9,0.9c-0.4,0.3-1,0.5-1.7,0.7c-0.7,0.2-1.6,0.3-2.7,0.4V9
		c0,1.4,0.6,2.1,1.8,2.1c0.3,0,0.5,0,0.7-0.1c0.2,0,0.4-0.1,0.5-0.2c0.1-0.1,0.3-0.1,0.4-0.2c0.1-0.1,0.2-0.2,0.3-0.2
		c0.1-0.1,0.2-0.1,0.3-0.2c0.1,0,0.2-0.1,0.3-0.1c0.1,0,0.1,0,0.2,0c0.1,0,0.1,0.1,0.2,0.1l0.5,0.7c-0.3,0.3-0.6,0.6-0.9,0.8
		c-0.3,0.2-0.6,0.4-0.9,0.6c-0.3,0.1-0.6,0.3-1,0.3c-0.3,0.1-0.7,0.1-1.1,0.1c-0.5,0-1-0.1-1.4-0.3c-0.4-0.2-0.8-0.4-1.1-0.7
		c-0.3-0.3-0.5-0.7-0.7-1.2c-0.2-0.5-0.2-1-0.2-1.5c0-0.5,0.1-0.9,0.2-1.4s0.2-0.9,0.4-1.3c0.2-0.4,0.4-0.8,0.7-1.1
		C11,5,11.4,4.7,11.7,4.4c0.3-0.2,0.7-0.4,1.1-0.6c0.4-0.1,0.9-0.2,1.3-0.2c0.5,0,0.9,0.1,1.2,0.2c0.3,0.1,0.6,0.3,0.9,0.5
		c0.2,0.2,0.4,0.4,0.5,0.7C16.9,5.3,17,5.6,17,5.8z M14.1,5.1c-0.3,0-0.6,0.1-0.8,0.2c-0.2,0.1-0.5,0.3-0.7,0.5
		c-0.2,0.2-0.4,0.5-0.5,0.8c-0.1,0.3-0.3,0.6-0.4,1c0.7-0.1,1.3-0.2,1.7-0.3c0.4-0.1,0.8-0.2,1-0.4c0.2-0.1,0.4-0.3,0.5-0.4
		c0.1-0.2,0.1-0.3,0.1-0.5c0-0.1,0-0.2-0.1-0.3c0-0.1-0.1-0.2-0.2-0.2c-0.1-0.1-0.2-0.1-0.3-0.2C14.4,5.2,14.3,5.1,14.1,5.1z"/>
	<path class="st0" d="M23.6,5.4c-0.1,0.1-0.1,0.2-0.2,0.2c-0.1,0-0.1,0.1-0.2,0.1c-0.1,0-0.2,0-0.3-0.1c-0.1-0.1-0.2-0.1-0.4-0.2
		c-0.1-0.1-0.3-0.1-0.5-0.2c-0.2-0.1-0.4-0.1-0.6-0.1c-0.5,0-0.8,0.1-1,0.3S20,5.9,20,6.2c0,0.2,0,0.3,0.2,0.5
		c0.1,0.1,0.2,0.2,0.4,0.3s0.3,0.2,0.6,0.3c0.2,0.1,0.4,0.2,0.6,0.3c0.2,0.1,0.4,0.2,0.6,0.3c0.2,0.1,0.4,0.2,0.6,0.4
		c0.2,0.2,0.3,0.4,0.4,0.6c0.1,0.2,0.2,0.5,0.2,0.8c0,0.4-0.1,0.8-0.3,1.2c-0.2,0.4-0.4,0.7-0.7,1c-0.3,0.3-0.7,0.5-1.1,0.7
		c-0.4,0.2-1,0.3-1.5,0.3c-0.3,0-0.6,0-0.8-0.1c-0.3-0.1-0.5-0.1-0.7-0.2c-0.2-0.1-0.4-0.2-0.6-0.3c-0.2-0.1-0.3-0.3-0.5-0.4
		l0.5-0.8c0.1-0.1,0.1-0.2,0.2-0.2c0.1-0.1,0.2-0.1,0.3-0.1s0.2,0,0.3,0.1c0.1,0.1,0.2,0.2,0.3,0.2c0.1,0.1,0.3,0.2,0.5,0.2
		c0.2,0.1,0.4,0.1,0.7,0.1c0.2,0,0.4,0,0.6-0.1c0.2-0.1,0.3-0.1,0.5-0.3c0.1-0.1,0.2-0.2,0.3-0.4c0.1-0.1,0.1-0.3,0.1-0.5
		c0-0.2,0-0.4-0.1-0.5c-0.1-0.1-0.2-0.2-0.4-0.3c-0.2-0.1-0.3-0.2-0.6-0.3c-0.2-0.1-0.4-0.1-0.6-0.2c-0.2-0.1-0.4-0.2-0.6-0.3
		c-0.2-0.1-0.4-0.2-0.6-0.4c-0.2-0.2-0.3-0.4-0.4-0.6c-0.1-0.2-0.1-0.5-0.1-0.8c0-0.4,0.1-0.8,0.2-1.1c0.1-0.4,0.4-0.7,0.7-1
		c0.3-0.3,0.6-0.5,1.1-0.7c0.4-0.2,0.9-0.3,1.5-0.3c0.6,0,1.1,0.1,1.5,0.3c0.4,0.2,0.8,0.4,1.1,0.7L23.6,5.4z"/>
	<path class="st0" d="M25.3,10.8c0,0,0-0.1,0-0.1c0-0.1,0-0.1,0-0.2c0-0.1,0-0.2,0-0.4c0-0.2,0-0.4,0.1-0.7l0.5-4h-0.8
		c-0.1,0-0.2,0-0.2-0.1c-0.1-0.1-0.1-0.2-0.1-0.3c0,0,0,0,0,0c0,0,0-0.1,0-0.1c0-0.1,0-0.2,0-0.3c0-0.1,0-0.3,0.1-0.5l1.3-0.2
		l0.7-2.4c0-0.1,0.1-0.2,0.2-0.3c0.1-0.1,0.2-0.1,0.3-0.1h1.1l-0.3,2.8h2.1l-0.2,1.5H28l-0.5,3.9c0,0.2-0.1,0.4-0.1,0.6
		c0,0.1,0,0.2,0,0.3c0,0.1,0,0.1,0,0.2c0,0,0,0.1,0,0.1c0,0.2,0.1,0.4,0.2,0.5c0.1,0.1,0.3,0.2,0.5,0.2c0.1,0,0.2,0,0.3,0
		s0.2-0.1,0.2-0.1c0.1,0,0.1-0.1,0.2-0.1c0,0,0.1,0,0.1,0c0.1,0,0.1,0,0.2,0c0,0,0.1,0.1,0.1,0.1l0.5,1c-0.3,0.3-0.7,0.5-1.1,0.6
		s-0.8,0.2-1.2,0.2c-0.6,0-1.1-0.2-1.5-0.5C25.5,11.9,25.3,11.4,25.3,10.8z"/>
	<path class="st0" d="M36,10.9c0.4,0,0.7,0,0.9-0.1c0.3-0.1,0.5-0.1,0.7-0.2c0.2-0.1,0.4-0.2,0.5-0.3c0.1-0.1,0.3-0.2,0.4-0.3
		c0.1-0.1,0.2-0.2,0.3-0.2c0.1-0.1,0.2-0.1,0.2-0.1c0.1,0,0.1,0,0.2,0c0,0,0.1,0.1,0.1,0.1l0.8,1c-0.5,0.6-1.2,1.1-1.9,1.4
		c-0.7,0.3-1.6,0.5-2.5,0.5c-0.8,0-1.4-0.1-2-0.4c-0.6-0.3-1.1-0.7-1.5-1.1c-0.4-0.5-0.7-1.1-0.9-1.7c-0.2-0.7-0.3-1.4-0.3-2.2
		c0-0.7,0.1-1.4,0.2-2c0.2-0.6,0.4-1.2,0.7-1.8c0.3-0.5,0.6-1,1-1.5c0.4-0.4,0.8-0.8,1.3-1.1c0.5-0.3,1-0.5,1.6-0.7
		C36.2,0.1,36.8,0,37.4,0c0.5,0,0.9,0,1.2,0.1c0.4,0.1,0.7,0.2,1,0.4C40,0.6,40.3,0.8,40.5,1s0.5,0.4,0.7,0.7l-0.8,0.9
		c-0.1,0.1-0.1,0.1-0.2,0.2c-0.1,0.1-0.2,0.1-0.3,0.1c-0.1,0-0.2-0.1-0.4-0.2c-0.1-0.1-0.3-0.2-0.4-0.3c-0.2-0.1-0.4-0.2-0.7-0.3
		c-0.3-0.1-0.6-0.2-1.1-0.2c-0.6,0-1.2,0.1-1.7,0.4c-0.5,0.2-1,0.6-1.3,1c-0.4,0.5-0.7,1-0.9,1.6c-0.2,0.6-0.3,1.4-0.3,2.2
		c0,0.6,0.1,1.1,0.2,1.6c0.1,0.5,0.4,0.9,0.6,1.2c0.3,0.3,0.6,0.6,0.9,0.7C35.2,10.8,35.6,10.9,36,10.9z"/>
	<path class="st0" d="M51.3,12.6h-1.7c-0.2,0-0.4,0-0.5-0.1c-0.1-0.1-0.2-0.2-0.2-0.4l-0.5-2.6h-4.7l-1.2,2.6
		c-0.1,0.1-0.2,0.3-0.3,0.4c-0.1,0.1-0.3,0.2-0.5,0.2h-1.8l6-12.5h2.3L51.3,12.6z M44.4,7.9H48l-0.8-4.3c0-0.2-0.1-0.4-0.1-0.7
		c0-0.2-0.1-0.5-0.1-0.8c-0.1,0.3-0.2,0.6-0.3,0.8s-0.2,0.5-0.3,0.6L44.4,7.9z"/>
	<path class="st0" d="M59.7,2.4c-0.1,0.1-0.2,0.2-0.2,0.3c-0.1,0.1-0.2,0.1-0.3,0.1c-0.1,0-0.2,0-0.4-0.1s-0.3-0.2-0.4-0.3
		C58.2,2.2,58,2.1,57.8,2c-0.2-0.1-0.5-0.1-0.8-0.1c-0.3,0-0.6,0-0.8,0.1s-0.4,0.2-0.6,0.4c-0.2,0.2-0.3,0.4-0.4,0.6
		c-0.1,0.2-0.1,0.5-0.1,0.7c0,0.3,0.1,0.5,0.2,0.7c0.1,0.2,0.3,0.3,0.5,0.5C56,4.9,56.3,5,56.5,5.1c0.3,0.1,0.6,0.2,0.9,0.3
		c0.3,0.1,0.6,0.2,0.9,0.4C58.5,6,58.8,6.2,59,6.4c0.2,0.2,0.4,0.5,0.5,0.8c0.1,0.3,0.2,0.7,0.2,1.1c0,0.6-0.1,1.2-0.3,1.7
		c-0.2,0.5-0.5,1-0.9,1.4c-0.4,0.4-0.9,0.7-1.4,1c-0.6,0.2-1.2,0.4-1.9,0.4c-0.4,0-0.7,0-1.1-0.1c-0.4-0.1-0.7-0.2-1-0.3
		c-0.3-0.1-0.6-0.3-0.9-0.5c-0.3-0.2-0.5-0.4-0.7-0.7l0.8-1.1c0.1-0.1,0.1-0.1,0.2-0.2c0.1-0.1,0.2-0.1,0.3-0.1c0.1,0,0.2,0,0.3,0.1
		c0.1,0.1,0.2,0.1,0.3,0.2c0.1,0.1,0.2,0.2,0.3,0.3c0.1,0.1,0.3,0.2,0.4,0.3c0.2,0.1,0.3,0.2,0.5,0.2c0.2,0.1,0.4,0.1,0.7,0.1
		c0.7,0,1.2-0.2,1.5-0.6s0.6-0.9,0.6-1.5c0-0.3-0.1-0.5-0.2-0.7c-0.1-0.2-0.3-0.3-0.5-0.5c-0.2-0.1-0.5-0.2-0.7-0.3
		c-0.3-0.1-0.6-0.2-0.9-0.3c-0.3-0.1-0.6-0.2-0.9-0.4c-0.3-0.1-0.5-0.3-0.7-0.5c-0.2-0.2-0.4-0.5-0.5-0.8C53,5,52.9,4.6,52.9,4.1
		c0-0.5,0.1-1.1,0.3-1.5c0.2-0.5,0.5-0.9,0.9-1.3c0.4-0.4,0.8-0.7,1.3-0.9C55.9,0.1,56.5,0,57.2,0c0.3,0,0.7,0,1,0.1
		c0.3,0.1,0.6,0.2,0.9,0.3c0.3,0.1,0.5,0.3,0.7,0.5C60,1,60.2,1.2,60.4,1.4L59.7,2.4z"/>
	<path class="st0" d="M70.5,0.1L70.3,2h-3.4l-1.3,10.7h-2.2L64.6,2h-3.4l0.2-1.8H70.5z"/>
</g>
</svg>
