<?xml version="1.0" encoding="utf-8"?>
<!-- Generator: Adobe Illustrator 22.1.0, SVG Export Plug-In . SVG Version: 6.00 Build 0)  -->
<svg version="1.1" id="Layer_1" xmlns="http://www.w3.org/2000/svg" xmlns:xlink="http://www.w3.org/1999/xlink" x="0px" y="0px"
	 viewBox="0 0 245.2 66.6" style="enable-background:new 0 0 245.2 66.6;" xml:space="preserve">
<style type="text/css">
	.st0{fill:#FFFFFF;}
</style>
<path class="st0" d="M0.3,0.4v41C0.3,35.8,0.4,0.4,0.3,0.4L0.3,0.4z"/>
<path class="st0" d="M0.4,0.3c0,0,0,35.4,0,41c0,4.4,3.7,12.1,10,17c7,5.5,16.7,8,16.7,8s8.4-2.5,15.3-8c6.2-5,11-12.6,11-17v-41
	C53.4,0.3,0.4,0.3,0.4,0.3z M34.1,23.4h-5.3v21.7h1v-1.7h4v3h-2.4v4h2.4v3h-4v-1.7h-1v1.7h-4v-30h-5.3c-2.5,0-4.5-2-4.5-4.5
	s2-4.5,4.5-4.5h2.9c-0.3-0.6-0.4-1.2-0.4-1.9c0-2.6,2.1-4.8,4.8-4.8c2.6,0,4.8,2.1,4.8,4.8c0,0.7-0.2,1.3-0.4,1.9h2.9
	c2.5,0,4.5,2,4.5,4.5C38.6,21.3,36.6,23.4,34.1,23.4z"/>
<g>
	<path class="st0" d="M84.8,16.4c1.9,0.6,3.8,1.7,5.7,3.4l-4.2,6.1c-1.2-1.1-2.5-2-3.8-2.5c-1.3-0.5-2.7-0.8-4.3-0.8
		c-1,0-1.7,0.2-2.3,0.4c-0.6,0.3-0.9,0.7-0.9,1.1c0,0.3,0.3,0.5,0.9,0.7c0.5,0.2,1.6,0.3,2.9,0.6c4,0.7,6.9,1.8,8.7,3.3
		c1.7,1.5,2.6,3.5,2.6,6.2c0,1.9-0.5,3.5-1.6,4.9c-1,1.3-2.5,2.3-4.4,3c-1.8,0.7-3.9,1-6.2,1c-3.2,0-5.8-0.3-7.8-1
		c-2-0.6-3.8-1.6-5.7-2.9l4.2-6.6c1.1,1.1,2.4,2,3.8,2.5c1.4,0.5,2.9,0.8,4.8,0.8c2,0,3-0.4,3-1.2c0-0.4-0.3-0.8-1-1
		s-1.6-0.4-3.1-0.7c-2.1-0.3-3.9-0.9-5.4-1.3c-1.5-0.5-2.8-1.4-3.9-2.5C65.5,28.7,65,27,65,24.9c0-1.9,0.5-3.6,1.5-4.9
		c1-1.4,2.4-2.5,4.4-3.3c1.9-0.8,4.2-1.2,6.9-1.2C80.6,15.5,82.9,15.7,84.8,16.4z"/>
	<path class="st0" d="M118.4,22.9h-8.6v20.4h-9.7V22.9h-8.6v-7.1h26.9V22.9z"/>
	<path class="st0" d="M144.6,36.2v7.1h-23.3V15.8h22.8v7.1H131v3.4h10.6v6.6H131v3.2L144.6,36.2L144.6,36.2z"/>
	<path class="st0" d="M157.1,43.3h-9.7V15.8h9.7V43.3z"/>
	<path class="st0" d="M174.6,27.9h12.7v15.5h-6.4l-0.3-3.1c-1.4,2.3-3.9,3.6-7.5,3.6c-2.4,0-4.6-0.5-6.5-1.6c-1.9-1-3.5-2.7-4.6-4.8
		s-1.6-4.7-1.6-7.7c0-4.5,1.2-8,3.7-10.5c2.5-2.5,6-3.7,10.5-3.7c3.4,0,6.2,0.6,8.1,1.7c2,1.1,3.6,3.1,4.7,5.8l-9,3.2
		c-0.3-2.3-1.5-3.5-3.5-3.5c-1.6,0-2.8,0.5-3.6,1.6s-1.1,2.9-1.1,5.2c0,2.5,0.4,4.3,1.2,5.5c0.8,1.1,2.1,1.6,3.8,1.6
		c1.2,0,2.2-0.3,2.9-0.7c0.7-0.5,1-1.2,1-2.2l0,0h-4.6V27.9L174.6,27.9z"/>
	<path class="st0" d="M214.6,36.2v7.1h-23.3V15.8h22.8v7.1H201v3.4h10.6v6.6H201v3.2L214.6,36.2L214.6,36.2z"/>
	<path class="st0" d="M229.5,34.2h-2.7v9.1h-9.4V15.8h14.9c3.6,0,6.4,0.8,8.3,2.3c1.9,1.6,2.8,3.8,2.8,6.8c0,4-1.6,6.8-4.9,8.1
		l6.5,10.1h-10.5L229.5,34.2z M226.8,27.9h3.5c1.2,0,2.1-0.2,2.6-0.5c0.5-0.3,0.8-1,0.8-2s-0.3-1.6-0.8-2c-0.5-0.3-1.4-0.6-2.6-0.6
		h-3.5V27.9z"/>
</g>
</svg>
