<?xml version="1.0" encoding="utf-8"?>
<!-- Generator: Adobe Illustrator 16.0.0, SVG Export Plug-In . SVG Version: 6.00 Build 0)  -->
<!DOCTYPE svg PUBLIC "-//W3C//DTD SVG 1.1//EN" "http://www.w3.org/Graphics/SVG/1.1/DTD/svg11.dtd">
<svg version="1.1" id="Layer_1" xmlns="http://www.w3.org/2000/svg" xmlns:xlink="http://www.w3.org/1999/xlink" x="0px" y="0px"
	 width="189.54px" height="53.636px" viewBox="117.586 114.912 189.54 53.636"
	 enable-background="new 117.586 114.912 189.54 53.636" xml:space="preserve">
<g>
	<path fill="#2A3938" d="M304.319,165.814c-1.922,1.633-4.225,2.449-6.912,2.449c-4.609,0-8.064-2.09-10.369-6.266l2.521-1.513
		c0.814,1.489,1.799,2.642,2.951,3.457c1.199,0.912,2.832,1.367,4.896,1.367c4.51,0,6.768-1.919,6.768-5.761
		c0-1.68-0.793-3.143-2.377-4.391c-0.48-0.289-1.164-0.613-2.051-0.973c-0.89-0.359-1.98-0.779-3.277-1.26
		c-2.4-0.864-4.127-1.729-5.184-2.594c-1.537-1.246-2.304-3.047-2.304-5.398c0-2.018,0.767-3.744,2.304-5.185
		c1.487-1.487,3.432-2.231,5.832-2.231c3.312,0,6.121,1.151,8.424,3.456l-2.16,1.872c-1.631-1.632-3.719-2.448-6.264-2.448
		c-3.455,0-5.185,1.512-5.185,4.536c0,1.344,0.526,2.447,1.584,3.312c0.862,0.672,2.231,1.32,4.104,1.943
		c1.633,0.576,2.977,1.116,4.033,1.62c1.055,0.504,1.846,0.948,2.375,1.332c2.062,1.584,3.096,3.72,3.096,6.407
		C307.125,162.143,306.19,164.23,304.319,165.814z"/>
	<path fill="#2A3938" d="M280.646,164.083c-2.978,2.977-6.625,4.465-10.942,4.465c-4.32,0-7.945-1.465-10.873-4.394
		c-2.978-2.976-4.465-6.624-4.465-10.944c0-4.271,1.487-7.895,4.465-10.871c2.928-3.024,6.553-4.537,10.873-4.537
		c4.271,0,7.895,1.488,10.871,4.464c2.977,2.977,4.465,6.624,4.465,10.943C285.04,157.531,283.573,161.156,280.646,164.083z
		 M278.558,144.355c-2.399-2.449-5.354-3.672-8.854-3.672c-3.361,0-6.267,1.249-8.713,3.744c-2.496,2.496-3.744,5.425-3.744,8.783
		c0,3.41,1.225,6.338,3.672,8.785s5.375,3.672,8.785,3.672c3.455,0,6.383-1.199,8.782-3.601c2.447-2.446,3.673-5.399,3.673-8.856
		C282.157,149.707,280.956,146.755,278.558,144.355z"/>
	<path fill="#2A3938" d="M247.411,168.264V150.48c0-6.288-2.832-9.432-8.494-9.432c-2.785,0-4.896,0.816-6.338,2.448
		c-1.488,1.633-2.229,3.863-2.229,6.695v18.072h-2.953v-29.736h2.953v3.6c1.342-2.639,4.198-3.96,8.567-3.96
		c3.695,0,6.525,1.057,8.494,3.168c1.969,2.114,2.953,5.065,2.953,8.856v18.072L247.411,168.264L247.411,168.264z"/>
	<path fill="#2A3938" d="M189.139,142.919c-0.769-0.576-1.584-1.031-2.448-1.368c-0.863-0.336-1.776-0.504-2.735-0.504
		c-0.817,0-1.584,0.252-2.305,0.756c-0.72,0.504-1.344,1.128-1.872,1.871c-0.528,0.744-0.948,1.572-1.26,2.484
		s-0.468,1.752-0.468,2.521v19.584h-2.952v-29.736h2.952v4.032c0.623-1.104,1.439-2.111,2.448-3.024
		c1.008-0.911,2.111-1.368,3.312-1.368c1.487,0,2.711,0.169,3.672,0.505c0.96,0.336,2.04,0.936,3.24,1.8L189.139,142.919z"/>
	<path fill="#2A3938" d="M167.146,168.264v-17.929c0-6.287-2.929-9.432-8.784-9.432c-2.4,0-4.464,0.72-6.191,2.16
		c-1.776,1.439-2.664,3.359-2.664,5.76v19.368h-2.952v-53.28h2.952v27.503c1.775-2.926,4.727-4.392,8.855-4.392
		c7.823,0,11.736,4.008,11.736,12.022v18.217L167.146,168.264L167.146,168.264z"/>
	<g>
		<path fill="#A3B01D" d="M216.915,144.355c2.398,2.4,3.601,5.352,3.601,8.855c0,3.455-1.226,6.408-3.673,8.855
			c-0.086,0.086-0.178,0.159-0.266,0.243l1.543,2.577c0.299-0.26,0.598-0.52,0.883-0.805c2.929-2.928,4.394-6.553,4.394-10.873
			c0-4.319-1.487-7.967-4.465-10.943c-0.281-0.282-0.576-0.538-0.869-0.794l-1.519,2.534
			C216.667,144.125,216.795,144.232,216.915,144.355z"/>
		<path fill="#2A3938" d="M214.204,164.089c-1.82,1.045-3.865,1.578-6.145,1.578c-1.449,0-2.807-0.235-4.082-0.678
			c-0.93-0.322-1.816-0.756-2.653-1.312c-0.716-0.477-1.4-1.033-2.049-1.682c-2.447-2.447-3.672-5.375-3.672-8.785
			c0-3.358,1.248-6.287,3.744-8.785c0.65-0.661,1.335-1.229,2.05-1.717c0.834-0.567,1.716-1.009,2.639-1.337
			c1.261-0.449,2.599-0.688,4.023-0.688c2.268,0,4.303,0.521,6.109,1.548l1.481-2.477c-2.251-1.292-4.777-1.951-7.592-1.951
			c-2.008,0-3.857,0.341-5.565,0.994c-0.922,0.353-1.8,0.8-2.634,1.343c-0.945,0.615-1.841,1.339-2.673,2.197
			c-2.977,2.979-4.465,6.602-4.465,10.873c0,4.32,1.488,7.97,4.465,10.944c0.812,0.812,1.682,1.499,2.601,2.087
			c0.838,0.534,1.72,0.975,2.646,1.322c1.723,0.646,3.595,0.982,5.625,0.982c2.842,0,5.388-0.657,7.647-1.946L214.204,164.089z"/>
		<polyline fill="none" stroke="#2A3938" stroke-miterlimit="10" points="212.001,144.982 207.06,153.195 212.743,162.625 		"/>
	</g>
	<g>
		<path fill="#2A3938" d="M132.995,168.548c-4.417,0-8.089-1.465-11.017-4.393s-4.392-6.6-4.392-11.018
			c0-4.416,1.464-8.088,4.392-11.015c2.928-2.928,6.6-4.393,11.017-4.393c3.791,0,6.815,0.864,9.072,2.592v3.529l-1.872-1.225
			l-2.017-1.08c-1.824-0.623-3.553-0.937-5.184-0.937c-3.697,0-6.696,1.152-9,3.456c-2.353,2.354-3.528,5.377-3.528,9.072
			c0,3.648,1.176,6.648,3.528,9.001c2.351,2.353,5.352,3.528,9,3.528c3.456,0,6.479-1.152,9.072-3.457v3.672
			C139.377,167.66,136.354,168.548,132.995,168.548z"/>
	</g>
</g>
</svg>
