<svg xmlns="http://www.w3.org/2000/svg" viewBox="0 0 400.01 1047.44"><defs><style>.cls-1{fill:none;stroke:#352f7f;stroke-miterlimit:10;stroke-width:2px;}.cls-2,.cls-3,.cls-7{fill:#352f7f;}.cls-3{font-size:35px;font-family:WorkSans-Black, Work Sans;font-weight:800;}.cls-4{letter-spacing:0em;}.cls-5{letter-spacing:-0.01em;}.cls-6{letter-spacing:-0.01em;}.cls-7{font-size:22px;font-family:WorkSans-Medium, Work Sans;font-weight:500;}.cls-8{letter-spacing:0em;}.cls-9{letter-spacing:-0.02em;}.cls-10{letter-spacing:0em;}.cls-11{letter-spacing:-0.02em;}.cls-12{letter-spacing:0em;}.cls-13{letter-spacing:-0.01em;}.cls-14{letter-spacing:-0.01em;}.cls-15{letter-spacing:-0.02em;}.cls-16{letter-spacing:-0.01em;}.cls-17{letter-spacing:-0.02em;}.cls-18{letter-spacing:-0.02em;}.cls-19{letter-spacing:-0.03em;}.cls-20{letter-spacing:-0.02em;}.cls-21{letter-spacing:-0.02em;}</style></defs><g id="Layer_2" data-name="Layer 2"><g id="Layer_1-2" data-name="Layer 1"><line class="cls-1" x1="391.49" y1="697.75" x2="391.49" y2="862.56"/><polygon class="cls-2" points="384.71 860.58 391.49 872.32 398.27 860.58 384.71 860.58"/><line class="cls-1" x1="391.49" y1="498.82" x2="391.49" y2="661.86"/><polygon class="cls-2" points="384.71 659.88 391.49 671.62 398.27 659.88 384.71 659.88"/><line class="cls-1" x1="391.49" y1="297.22" x2="391.49" y2="460.26"/><polygon class="cls-2" points="384.71 458.28 391.49 470.02 398.27 458.28 384.71 458.28"/><line class="cls-1" x1="391.49" y1="90.76" x2="391.49" y2="257.46"/><polygon class="cls-2" points="384.71 255.48 391.49 267.22 398.27 255.48 384.71 255.48"/><polyline class="cls-1" points="391.24 904.72 391.24 1046.44 1 1046.44 1 1 391.24 1 391.24 53.28"/><polygon class="cls-2" points="384.46 51.3 391.24 63.04 398.02 51.3 384.46 51.3"/><text class="cls-3" transform="translate(207.75 102.11)">Di<tspan class="cls-4" x="35.84" y="0">s</tspan><tspan x="54.49" y="0">c</tspan><tspan class="cls-5" x="74.48" y="0">ov</tspan><tspan x="114.94" y="0">e</tspan><tspan class="cls-6" x="135.24" y="0">r</tspan></text><text class="cls-7" transform="translate(45.76 145.41)"><tspan class="cls-8">U</tspan><tspan x="15.51" y="0">nde</tspan><tspan class="cls-9" x="55.64" y="0">r</tspan><tspan x="64.37" y="0">s</tspan><tspan class="cls-10" x="76.01" y="0">t</tspan><tspan x="85.4" y="0">anding</tspan><tspan class="cls-11" x="156.88" y="0"> </tspan><tspan class="cls-12" x="163.57" y="0">y</tspan><tspan x="175.16" y="0">ou</tspan><tspan class="cls-11" x="201.96" y="0">r</tspan><tspan x="210.6" y="0" xml:space="preserve"> business </tspan><tspan x="49.15" y="26.4">needs and </tspan><tspan class="cls-13" x="167.88" y="26.4">r</tspan><tspan x="176.7" y="26.4">equi</tspan><tspan class="cls-13" x="222.83" y="26.4">r</tspan><tspan x="231.66" y="26.4">eme</tspan><tspan class="cls-14" x="277.97" y="26.4">n</tspan><tspan x="291.45" y="26.4">ts </tspan></text><text class="cls-3" transform="translate(248.39 302.99)">Ide<tspan class="cls-15" x="53.9" y="0">a</tspan><tspan x="73.78" y="0">te</tspan></text><path class="cls-2" d="M127.93,333.79h-8.14V338h6.38v2h-6.38v6.25h-2.35V331.77h10.49Z"/><path class="cls-2" d="M131.74,333.44a1.69,1.69,0,0,1-1.18-.38,1.43,1.43,0,0,1-.4-1.09,1.4,1.4,0,0,1,.4-1.08,1.69,1.69,0,0,1,1.18-.37,1.62,1.62,0,0,1,1.15.37,1.4,1.4,0,0,1,.41,1.08,1.44,1.44,0,0,1-.41,1.09A1.63,1.63,0,0,1,131.74,333.44Zm1.17,1.85v11h-2.36v-11Z"/><path class="cls-2" d="M140.8,346.51a4.66,4.66,0,0,1-2.47-.68,4.71,4.71,0,0,1-1.75-2,6.71,6.71,0,0,1-.64-3.06,6.6,6.6,0,0,1,.68-3.12,4.93,4.93,0,0,1,1.83-1.95,4.84,4.84,0,0,1,2.51-.67,3.65,3.65,0,0,1,3.67,2.77l-.26.24v-7.74h2.35v16h-2.09l-.18-3,.31,0A3.48,3.48,0,0,1,144,345a3.74,3.74,0,0,1-1.42,1.1A4.31,4.31,0,0,1,140.8,346.51Zm.51-1.89a2.71,2.71,0,0,0,1.63-.49,3.1,3.1,0,0,0,1.05-1.36,5.37,5.37,0,0,0,.38-2.11,4.74,4.74,0,0,0-.38-2,3,3,0,0,0-1-1.27,2.81,2.81,0,0,0-1.55-.44,2.75,2.75,0,0,0-2.29,1,4.33,4.33,0,0,0-.82,2.79,4.49,4.49,0,0,0,.8,2.81A2.64,2.64,0,0,0,141.31,344.62Z"/><path class="cls-2" d="M151.56,333.44a1.71,1.71,0,0,1-1.18-.38A1.43,1.43,0,0,1,150,332a1.4,1.4,0,0,1,.4-1.08,1.7,1.7,0,0,1,1.18-.37,1.67,1.67,0,0,1,1.16.37,1.4,1.4,0,0,1,.4,1.08,1.43,1.43,0,0,1-.4,1.09A1.67,1.67,0,0,1,151.56,333.44Zm1.17,1.85v11h-2.36v-11Z"/><path class="cls-2" d="M156.4,346.29v-11h2.09l.15,2.86-.3-.31a4.08,4.08,0,0,1,.89-1.57,3.44,3.44,0,0,1,1.38-.91,5.12,5.12,0,0,1,1.71-.29,4.76,4.76,0,0,1,2.1.45,3.44,3.44,0,0,1,1.48,1.35,4.34,4.34,0,0,1,.55,2.29v7.13H164.1v-6.4a3,3,0,0,0-.67-2.26,2.36,2.36,0,0,0-1.68-.62,3.05,3.05,0,0,0-1.41.34,2.76,2.76,0,0,0-1.14,1.09,3.82,3.82,0,0,0-.45,2v5.85Z"/><path class="cls-2" d="M176.22,344.57a4.08,4.08,0,0,1,2.6.74,2.48,2.48,0,0,1,.92,2,2.88,2.88,0,0,1-.72,2,4.52,4.52,0,0,1-2,1.27,8.62,8.62,0,0,1-2.85.44,7.53,7.53,0,0,1-4-.84,2.43,2.43,0,0,1-1.29-2.09,2.2,2.2,0,0,1,.62-1.54,3.08,3.08,0,0,1,2.13-.74l-.14.35a3,3,0,0,1-1.48-.72,1.89,1.89,0,0,1-.56-1.46,2.11,2.11,0,0,1,.72-1.61,3.44,3.44,0,0,1,2.05-.77l1.23.6h-.26a2.47,2.47,0,0,0-1.43.46,1.11,1.11,0,0,0-.42.84.89.89,0,0,0,.41.81,2.06,2.06,0,0,0,1.15.26Zm-2.11-9.5a6.27,6.27,0,0,1,2.52.46,3.8,3.8,0,0,1,1.65,1.3,3.6,3.6,0,0,1,0,3.92,3.78,3.78,0,0,1-1.65,1.29,6.26,6.26,0,0,1-2.52.47,5.32,5.32,0,0,1-3.51-1,3.57,3.57,0,0,1-.63-4.65,3.89,3.89,0,0,1,1.66-1.3A6.2,6.2,0,0,1,174.11,335.07Zm.09,14.19a7.35,7.35,0,0,0,2-.23,2.9,2.9,0,0,0,1.17-.6,1.08,1.08,0,0,0,.38-.8,1,1,0,0,0-.41-.81,2.49,2.49,0,0,0-1.46-.31h-3.54a1.69,1.69,0,0,0-1,.32,1,1,0,0,0-.41.87,1.27,1.27,0,0,0,.88,1.14A5.75,5.75,0,0,0,174.2,349.26Zm-.09-12.54a2.54,2.54,0,0,0-1.68.56,1.87,1.87,0,0,0-.67,1.51,1.9,1.9,0,0,0,.67,1.52,2.5,2.5,0,0,0,1.68.57,2.56,2.56,0,0,0,1.71-.57,1.93,1.93,0,0,0,.67-1.52,1.9,1.9,0,0,0-.67-1.51A2.61,2.61,0,0,0,174.11,336.72ZM179.7,333l.37,1.85h-.26a2.49,2.49,0,0,0-1.61.45,1.58,1.58,0,0,0-.55,1.31l-1.14-.53a3.29,3.29,0,0,1,.37-1.58,2.71,2.71,0,0,1,1.07-1.08,3.06,3.06,0,0,1,1.57-.4h.18Z"/><path class="cls-2" d="M193.23,346.51a7,7,0,0,1-3-.64,5.14,5.14,0,0,1-2.15-1.8l1.63-1.41a3.63,3.63,0,0,0,1.39,1.44,4.23,4.23,0,0,0,2.19.54,3.2,3.2,0,0,0,1.61-.35,1.13,1.13,0,0,0,.32-1.73,2,2,0,0,0-1-.49l-2.31-.49a4.7,4.7,0,0,1-2.51-1.13,2.76,2.76,0,0,1-.74-2,2.89,2.89,0,0,1,.52-1.67,3.77,3.77,0,0,1,1.55-1.25,5.93,5.93,0,0,1,2.46-.47,6.18,6.18,0,0,1,2.81.58,4.23,4.23,0,0,1,1.79,1.66l-1.63,1.37a2.8,2.8,0,0,0-1.23-1.31,3.58,3.58,0,0,0-1.7-.43,3.63,3.63,0,0,0-1.21.18,1.64,1.64,0,0,0-.77.48,1.12,1.12,0,0,0-.26.73,1.06,1.06,0,0,0,.33.77,2.37,2.37,0,0,0,1.19.5l2.5.53a4,4,0,0,1,2.24,1,2.65,2.65,0,0,1,.65,1.8,3.28,3.28,0,0,1-.55,1.86,3.58,3.58,0,0,1-1.59,1.24A6.32,6.32,0,0,1,193.23,346.51Z"/><path class="cls-2" d="M205.44,335.07a5.85,5.85,0,0,1,2.84.68,4.8,4.8,0,0,1,1.92,2,7.17,7.17,0,0,1,0,6.14,4.8,4.8,0,0,1-1.92,2,6.27,6.27,0,0,1-5.68,0,4.91,4.91,0,0,1-1.94-2,7.08,7.08,0,0,1,0-6.14,4.91,4.91,0,0,1,1.94-2A5.82,5.82,0,0,1,205.44,335.07Zm0,1.85a3.07,3.07,0,0,0-1.69.45,2.9,2.9,0,0,0-1.06,1.31,6,6,0,0,0,0,4.21,2.88,2.88,0,0,0,1.06,1.32,3.07,3.07,0,0,0,1.69.45,2.76,2.76,0,0,0,2.73-1.77,6.17,6.17,0,0,0,0-4.21,2.77,2.77,0,0,0-2.73-1.76Z"/><path class="cls-2" d="M216.15,330.34v12.87a1.66,1.66,0,0,0,.29,1.12,1.21,1.21,0,0,0,.94.31,3.13,3.13,0,0,0,.67-.06,4.11,4.11,0,0,0,.7-.2l-.27,1.76a3.78,3.78,0,0,1-.86.27,4.47,4.47,0,0,1-1,.1,2.78,2.78,0,0,1-2.17-.76,3.41,3.41,0,0,1-.69-2.34V330.34Z"/><path class="cls-2" d="M224.64,346.51a4.85,4.85,0,0,1-2-.4,3.2,3.2,0,0,1-1.46-1.27,4.24,4.24,0,0,1-.55-2.29v-7.26H223V342a2.63,2.63,0,0,0,.64,2.05,2.59,2.59,0,0,0,1.78.56,3.21,3.21,0,0,0,1.07-.18,2.68,2.68,0,0,0,1.58-1.64,4.3,4.3,0,0,0,.23-1.5v-6h2.36v11h-2.07l-.11-1.78a3.58,3.58,0,0,1-1.54,1.52A5.09,5.09,0,0,1,224.64,346.51Z"/><path class="cls-2" d="M241.32,335.29v1.85h-8.25v-1.85Zm-3.78-3.23V343a1.52,1.52,0,0,0,.42,1.19,1.7,1.7,0,0,0,1.16.37,2.71,2.71,0,0,0,1-.18,3.08,3.08,0,0,0,.82-.52l.52,1.71a3.55,3.55,0,0,1-1.24.7,5,5,0,0,1-1.64.25,4.68,4.68,0,0,1-1.74-.31,2.52,2.52,0,0,1-1.23-1,3.56,3.56,0,0,1-.46-1.81V332.72Z"/><path class="cls-2" d="M244.84,333.44a1.69,1.69,0,0,1-1.18-.38,1.44,1.44,0,0,1-.41-1.09,1.4,1.4,0,0,1,.41-1.08,1.69,1.69,0,0,1,1.18-.37,1.62,1.62,0,0,1,1.15.37,1.37,1.37,0,0,1,.41,1.08,1.4,1.4,0,0,1-.41,1.09A1.63,1.63,0,0,1,244.84,333.44Zm1.16,1.85v11h-2.35v-11Z"/><path class="cls-2" d="M254.45,335.07a5.82,5.82,0,0,1,2.84.68,4.88,4.88,0,0,1,1.93,2,7.17,7.17,0,0,1,0,6.14,4.88,4.88,0,0,1-1.93,2,6.25,6.25,0,0,1-5.67,0,4.84,4.84,0,0,1-1.94-2,7,7,0,0,1,0-6.14,4.84,4.84,0,0,1,1.94-2A5.78,5.78,0,0,1,254.45,335.07Zm0,1.85a3,3,0,0,0-1.68.45,2.92,2.92,0,0,0-1.07,1.31,6.17,6.17,0,0,0,0,4.21,2.9,2.9,0,0,0,1.07,1.32,3,3,0,0,0,1.68.45,3,3,0,0,0,1.67-.45,2.88,2.88,0,0,0,1.06-1.32,6.17,6.17,0,0,0,0-4.21,2.9,2.9,0,0,0-1.06-1.31A3,3,0,0,0,254.45,336.92Z"/><path class="cls-2" d="M262.88,346.29v-11H265l.15,2.86-.31-.31a4.36,4.36,0,0,1,.89-1.57,3.47,3.47,0,0,1,1.39-.91,5.12,5.12,0,0,1,1.71-.29,4.82,4.82,0,0,1,2.1.45,3.44,3.44,0,0,1,1.48,1.35,4.34,4.34,0,0,1,.55,2.29v7.13h-2.35v-6.4a3.06,3.06,0,0,0-.67-2.26,2.37,2.37,0,0,0-1.69-.62,3,3,0,0,0-1.4.34,2.7,2.7,0,0,0-1.14,1.09,3.82,3.82,0,0,0-.45,2v5.85Z"/><path class="cls-2" d="M280.68,346.51a7,7,0,0,1-3-.64,5.08,5.08,0,0,1-2.15-1.8l1.62-1.41a3.72,3.72,0,0,0,1.4,1.44,4.23,4.23,0,0,0,2.19.54,3.23,3.23,0,0,0,1.61-.35,1.13,1.13,0,0,0,.32-1.73,2,2,0,0,0-1-.49l-2.31-.49a4.7,4.7,0,0,1-2.51-1.13,2.76,2.76,0,0,1-.75-2,2.9,2.9,0,0,1,.53-1.67,3.7,3.7,0,0,1,1.55-1.25,5.9,5.9,0,0,1,2.46-.47,6.21,6.21,0,0,1,2.81.58,4.15,4.15,0,0,1,1.78,1.66l-1.62,1.37a2.77,2.77,0,0,0-1.24-1.31,3.51,3.51,0,0,0-1.69-.43,3.63,3.63,0,0,0-1.21.18,1.64,1.64,0,0,0-.77.48,1.07,1.07,0,0,0-.26.73,1.06,1.06,0,0,0,.33.77,2.37,2.37,0,0,0,1.18.5l2.51.53a3.91,3.91,0,0,1,2.23,1,2.61,2.61,0,0,1,.65,1.8,3.21,3.21,0,0,1-.55,1.86,3.49,3.49,0,0,1-1.58,1.24A6.32,6.32,0,0,1,280.68,346.51Z"/><path class="cls-2" d="M301.93,335.29v1.85h-8.25v-1.85Zm-3.79-3.23V343a1.53,1.53,0,0,0,.43,1.19,1.7,1.7,0,0,0,1.16.37,2.71,2.71,0,0,0,1-.18,3.08,3.08,0,0,0,.82-.52l.52,1.71a3.55,3.55,0,0,1-1.24.7,5,5,0,0,1-1.64.25,4.68,4.68,0,0,1-1.74-.31,2.52,2.52,0,0,1-1.23-1,3.46,3.46,0,0,1-.46-1.81V332.72Z"/><path class="cls-2" d="M309,335.07a5.82,5.82,0,0,1,2.84.68,4.88,4.88,0,0,1,1.93,2,7.17,7.17,0,0,1,0,6.14,4.88,4.88,0,0,1-1.93,2,6.25,6.25,0,0,1-5.67,0,4.84,4.84,0,0,1-1.94-2,7.08,7.08,0,0,1,0-6.14,4.84,4.84,0,0,1,1.94-2A5.78,5.78,0,0,1,309,335.07Zm0,1.85a3,3,0,0,0-1.68.45,2.92,2.92,0,0,0-1.07,1.31,6.17,6.17,0,0,0,0,4.21,2.9,2.9,0,0,0,1.07,1.32,3.36,3.36,0,0,0,3.36,0,2.92,2.92,0,0,0,1.05-1.32,6,6,0,0,0,0-4.21,3,3,0,0,0-1.05-1.31A3,3,0,0,0,309,336.92Z"/><path class="cls-2" d="M331.25,335.29v1.85H323v-1.85Zm-3.78-3.23V343a1.49,1.49,0,0,0,.43,1.19,1.67,1.67,0,0,0,1.15.37,2.76,2.76,0,0,0,1-.18,3.19,3.19,0,0,0,.81-.52l.53,1.71a3.65,3.65,0,0,1-1.24.7,5,5,0,0,1-1.64.25,4.68,4.68,0,0,1-1.74-.31,2.44,2.44,0,0,1-1.23-1,3.37,3.37,0,0,1-.46-1.81V332.72Z"/><path class="cls-2" d="M333.67,346.29v-16H336v6.71a3.43,3.43,0,0,1,1.48-1.51,4.64,4.64,0,0,1,2.08-.47,4.76,4.76,0,0,1,2.1.45,3.47,3.47,0,0,1,1.49,1.35,4.44,4.44,0,0,1,.55,2.29v7.13h-2.36v-6.38a3.06,3.06,0,0,0-.67-2.27A2.37,2.37,0,0,0,339,337a3.1,3.1,0,0,0-1.4.34,2.67,2.67,0,0,0-1.14,1.1,3.94,3.94,0,0,0-.45,2v5.81Z"/><path class="cls-2" d="M352.13,346.51a6,6,0,0,1-2.9-.68,4.75,4.75,0,0,1-2-2,7.17,7.17,0,0,1,0-6.14,4.76,4.76,0,0,1,1.93-2,5.71,5.71,0,0,1,2.79-.68,5.31,5.31,0,0,1,2.73.66,4.36,4.36,0,0,1,1.71,1.8,5.54,5.54,0,0,1,.6,2.6c0,.26,0,.51,0,.75s0,.44-.07.61h-8.84v-1.8h7.81l-1.17.35a3.25,3.25,0,0,0-.75-2.3,2.67,2.67,0,0,0-2-.8,3.06,3.06,0,0,0-1.65.44,2.78,2.78,0,0,0-1.08,1.31,5.36,5.36,0,0,0-.38,2.12,5,5,0,0,0,.4,2.09,2.87,2.87,0,0,0,1.12,1.3,3.31,3.31,0,0,0,1.72.44,3.37,3.37,0,0,0,1.78-.42,3.1,3.1,0,0,0,1.08-1.16l1.87.88a4.51,4.51,0,0,1-2.66,2.26A6.26,6.26,0,0,1,352.13,346.51Z"/><path class="cls-2" d="M163.77,377.31V361.69h2.09l.18,3.08-.31-.37a4.13,4.13,0,0,1,.81-1.52,3.88,3.88,0,0,1,1.38-1,4.31,4.31,0,0,1,1.81-.37,4.55,4.55,0,0,1,2.44.68,4.72,4.72,0,0,1,1.74,2,6.7,6.7,0,0,1,.64,3.07,6.84,6.84,0,0,1-.65,3.09,4.76,4.76,0,0,1-1.76,2,4.66,4.66,0,0,1-2.47.68,3.92,3.92,0,0,1-2.4-.74,4,4,0,0,1-1.41-1.88l.26-.37v7.39Zm5.39-6.31a2.67,2.67,0,0,0,2.23-1,4.33,4.33,0,0,0,.81-2.79,4.49,4.49,0,0,0-.8-2.81,2.62,2.62,0,0,0-2.2-1,2.82,2.82,0,0,0-1.61.47,3.07,3.07,0,0,0-1.08,1.32,4.88,4.88,0,0,0-.39,2,5,5,0,0,0,.38,2,2.92,2.92,0,0,0,1.05,1.32A2.8,2.8,0,0,0,169.16,371Z"/><path class="cls-2" d="M177.56,372.69v-11h2l.22,2a3.36,3.36,0,0,1,1.3-1.64,3.93,3.93,0,0,1,2.15-.56,4.89,4.89,0,0,1,.66,0,2.24,2.24,0,0,1,.55.17l-.33,2.07a3.49,3.49,0,0,0-.54-.15,5.45,5.45,0,0,0-.8-.05,2.75,2.75,0,0,0-1.34.36,2.78,2.78,0,0,0-1.09,1.09,3.57,3.57,0,0,0-.43,1.85v5.83Z"/><path class="cls-2" d="M191.16,361.47a5.82,5.82,0,0,1,2.84.68,4.8,4.8,0,0,1,1.92,2,7.08,7.08,0,0,1,0,6.14,4.8,4.8,0,0,1-1.92,2,6.27,6.27,0,0,1-5.68,0,4.88,4.88,0,0,1-1.93-2,7,7,0,0,1,0-6.14,4.88,4.88,0,0,1,1.93-2A5.82,5.82,0,0,1,191.16,361.47Zm0,1.85a3,3,0,0,0-1.68.45,2.86,2.86,0,0,0-1.07,1.31,6.17,6.17,0,0,0,0,4.21,2.83,2.83,0,0,0,1.07,1.32,3,3,0,0,0,1.68.45,3,3,0,0,0,1.67-.45,2.88,2.88,0,0,0,1.06-1.32,6.17,6.17,0,0,0,0-4.21,2.9,2.9,0,0,0-1.06-1.31A3,3,0,0,0,191.16,363.32Z"/><path class="cls-2" d="M205.48,372.91a4.31,4.31,0,0,1-1.77-.37,3.68,3.68,0,0,1-1.35-1.05,4.53,4.53,0,0,1-.82-1.51l.29-.37-.18,3.08h-2.06V356.74h2.35v7.72l-.26-.37a3.89,3.89,0,0,1,1.43-1.88,4,4,0,0,1,2.44-.74,4.59,4.59,0,0,1,2.43.68,4.78,4.78,0,0,1,1.75,2,6.93,6.93,0,0,1,.64,3.1,6.71,6.71,0,0,1-.65,3.06,4.87,4.87,0,0,1-1.76,2A4.69,4.69,0,0,1,205.48,372.91ZM205,371a2.67,2.67,0,0,0,2.23-1,4.44,4.44,0,0,0,.8-2.8,4.39,4.39,0,0,0-.79-2.79,2.65,2.65,0,0,0-2.22-1,2.73,2.73,0,0,0-1.61.48,3.18,3.18,0,0,0-1.07,1.33,5.05,5.05,0,0,0-.38,2,5,5,0,0,0,.37,2,3,3,0,0,0,1.07,1.31A2.86,2.86,0,0,0,205,371Z"/><path class="cls-2" d="M215.67,356.74v12.87a1.66,1.66,0,0,0,.28,1.12,1.23,1.23,0,0,0,1,.31,3.2,3.2,0,0,0,.67-.06,4.31,4.31,0,0,0,.69-.2l-.26,1.76a4.58,4.58,0,0,1-.86.27,4.5,4.5,0,0,1-1,.1,2.77,2.77,0,0,1-2.16-.76,3.36,3.36,0,0,1-.7-2.34V356.74Z"/><path class="cls-2" d="M225.08,372.91a6,6,0,0,1-2.9-.68,4.75,4.75,0,0,1-2-2,7.17,7.17,0,0,1,0-6.14,4.82,4.82,0,0,1,1.93-2,5.71,5.71,0,0,1,2.79-.68,5.31,5.31,0,0,1,2.73.66,4.45,4.45,0,0,1,1.72,1.8,5.65,5.65,0,0,1,.59,2.6c0,.26,0,.51,0,.75s0,.44-.07.61h-8.84v-1.8h7.81l-1.17.35a3.25,3.25,0,0,0-.75-2.3,2.67,2.67,0,0,0-2-.8,3.08,3.08,0,0,0-1.65.44,2.78,2.78,0,0,0-1.08,1.31,5.36,5.36,0,0,0-.37,2.12,5,5,0,0,0,.39,2.09,2.87,2.87,0,0,0,1.12,1.3A3.31,3.31,0,0,0,225,371a3.35,3.35,0,0,0,1.78-.42,3,3,0,0,0,1.08-1.16l1.87.88a4.51,4.51,0,0,1-2.66,2.26A6.26,6.26,0,0,1,225.08,372.91Z"/><path class="cls-2" d="M233,372.69v-11h2.09l.11,1.85a3.6,3.6,0,0,1,1.53-1.56,4.25,4.25,0,0,1,2-.51,4.55,4.55,0,0,1,2.19.54,3.45,3.45,0,0,1,1.51,1.62,3.29,3.29,0,0,1,1-1.21,4,4,0,0,1,1.36-.72,5.11,5.11,0,0,1,1.47-.23,4.56,4.56,0,0,1,2,.44,3.52,3.52,0,0,1,1.5,1.34,4.25,4.25,0,0,1,.57,2.31v7.13h-2.35v-6.75a2.53,2.53,0,0,0-.64-1.94,2.27,2.27,0,0,0-1.63-.59,2.81,2.81,0,0,0-1.42.37,2.73,2.73,0,0,0-1,1.11,3.74,3.74,0,0,0-.4,1.82v6h-2.35v-6.75a2.53,2.53,0,0,0-.64-1.94,2.27,2.27,0,0,0-1.63-.59,2.72,2.72,0,0,0-1.32.35,2.83,2.83,0,0,0-1.1,1.1,3.92,3.92,0,0,0-.44,2v5.85Z"/><path class="cls-2" d="M258,372.91a7,7,0,0,1-3-.64,5.08,5.08,0,0,1-2.15-1.8l1.62-1.41a3.72,3.72,0,0,0,1.4,1.44,4.23,4.23,0,0,0,2.19.54,3.2,3.2,0,0,0,1.61-.35A1.13,1.13,0,0,0,260,369a2,2,0,0,0-1.05-.49l-2.31-.49a4.7,4.7,0,0,1-2.51-1.13,2.76,2.76,0,0,1-.75-2,2.9,2.9,0,0,1,.53-1.67,3.7,3.7,0,0,1,1.55-1.25,5.93,5.93,0,0,1,2.46-.47,6.18,6.18,0,0,1,2.81.58,4.15,4.15,0,0,1,1.78,1.66l-1.62,1.37a2.73,2.73,0,0,0-1.24-1.31,3.51,3.51,0,0,0-1.69-.43,3.63,3.63,0,0,0-1.21.18,1.64,1.64,0,0,0-.77.48,1.07,1.07,0,0,0-.26.73,1.06,1.06,0,0,0,.33.77,2.37,2.37,0,0,0,1.18.5l2.51.53a4,4,0,0,1,2.24,1,2.65,2.65,0,0,1,.65,1.8,3.28,3.28,0,0,1-.55,1.86,3.58,3.58,0,0,1-1.59,1.24A6.32,6.32,0,0,1,258,372.91Z"/><path class="cls-2" d="M276.85,372.91a4.69,4.69,0,0,1-2.48-.68,4.78,4.78,0,0,1-1.75-2,6.85,6.85,0,0,1-.63-3.06,6.48,6.48,0,0,1,.68-3.12,4.77,4.77,0,0,1,4.33-2.62,3.66,3.66,0,0,1,3.68,2.77l-.27.24v-7.74h2.36v15.95h-2.09l-.18-3,.31,0a3.49,3.49,0,0,1-.73,1.7,3.66,3.66,0,0,1-1.42,1.1A4.27,4.27,0,0,1,276.85,372.91Zm.5-1.89a2.67,2.67,0,0,0,1.63-.49,3,3,0,0,0,1.06-1.36,5.38,5.38,0,0,0,.37-2.11,4.74,4.74,0,0,0-.37-2,2.94,2.94,0,0,0-1.05-1.27,3,3,0,0,0-3.84.58,4.33,4.33,0,0,0-.81,2.79,4.44,4.44,0,0,0,.79,2.8A2.64,2.64,0,0,0,277.35,371Z"/><path class="cls-2" d="M291.26,372.91a6.07,6.07,0,0,1-2.91-.68,4.78,4.78,0,0,1-1.94-2,7.08,7.08,0,0,1,0-6.14,4.8,4.8,0,0,1,1.92-2,5.72,5.72,0,0,1,2.8-.68,5.24,5.24,0,0,1,2.72.66,4.45,4.45,0,0,1,1.72,1.8,5.53,5.53,0,0,1,.59,2.6c0,.26,0,.51,0,.75a4.84,4.84,0,0,1-.06.61h-8.85v-1.8H295l-1.16.35a3.25,3.25,0,0,0-.75-2.3,2.68,2.68,0,0,0-2.05-.8,3.08,3.08,0,0,0-1.65.44,2.78,2.78,0,0,0-1.08,1.31,5.36,5.36,0,0,0-.37,2.12,4.87,4.87,0,0,0,.4,2.09,2.81,2.81,0,0,0,1.12,1.3,3.25,3.25,0,0,0,1.71.44,3.39,3.39,0,0,0,1.79-.42,3,3,0,0,0,1.07-1.16l1.87.88a4.39,4.39,0,0,1-1.06,1.37,4.54,4.54,0,0,1-1.6.89A6.2,6.2,0,0,1,291.26,372.91Z"/><path class="cls-2" d="M305.73,361.69v1.85h-7.92v-1.85Zm-2-5.1a4.8,4.8,0,0,1,1.24.14,2,2,0,0,1,.85.38l-.44,1.7a1.82,1.82,0,0,0-.55-.23,3,3,0,0,0-.7-.08,2.17,2.17,0,0,0-1.42.42,1.63,1.63,0,0,0-.52,1.36v1.61l.07.59v10.21h-2.36V360.11a4.14,4.14,0,0,1,.26-1.5,2.77,2.77,0,0,1,.75-1.11,3.34,3.34,0,0,1,1.23-.68A4.92,4.92,0,0,1,303.71,356.59Zm5.32,3.25a1.66,1.66,0,0,1-1.17-.38,1.44,1.44,0,0,1-.41-1.09,1.4,1.4,0,0,1,.41-1.08,2,2,0,0,1,2.33,0,1.4,1.4,0,0,1,.41,1.08,1.44,1.44,0,0,1-.41,1.09A1.65,1.65,0,0,1,309,359.84Zm1.17,1.85v11h-2.35v-11Z"/><path class="cls-2" d="M313.85,372.69v-11h2.09l.16,2.86-.31-.31a4.08,4.08,0,0,1,.89-1.57,3.4,3.4,0,0,1,1.39-.91,5,5,0,0,1,1.7-.29,4.76,4.76,0,0,1,2.1.45,3.53,3.53,0,0,1,1.49,1.35,4.44,4.44,0,0,1,.55,2.29v7.13h-2.36v-6.4a3,3,0,0,0-.67-2.26,2.36,2.36,0,0,0-1.68-.62,3.05,3.05,0,0,0-1.41.34,2.68,2.68,0,0,0-1.13,1.09,3.82,3.82,0,0,0-.45,2v5.85Z"/><path class="cls-2" d="M328.66,359.84a1.67,1.67,0,0,1-1.18-.38,1.44,1.44,0,0,1-.41-1.09,1.4,1.4,0,0,1,.41-1.08,1.67,1.67,0,0,1,1.18-.37,1.62,1.62,0,0,1,1.15.37,1.4,1.4,0,0,1,.41,1.08,1.44,1.44,0,0,1-.41,1.09A1.63,1.63,0,0,1,328.66,359.84Zm1.16,1.85v11h-2.35v-11Z"/><path class="cls-2" d="M338.34,372.91a6.07,6.07,0,0,1-2.91-.68,4.78,4.78,0,0,1-1.94-2,7.08,7.08,0,0,1,0-6.14,4.8,4.8,0,0,1,1.92-2,5.72,5.72,0,0,1,2.8-.68,5.24,5.24,0,0,1,2.72.66,4.45,4.45,0,0,1,1.72,1.8,5.53,5.53,0,0,1,.59,2.6c0,.26,0,.51,0,.75s0,.44-.06.61h-8.85v-1.8h7.81l-1.16.35a3.25,3.25,0,0,0-.75-2.3,2.68,2.68,0,0,0-2-.8,3.08,3.08,0,0,0-1.65.44,2.78,2.78,0,0,0-1.08,1.31,5.36,5.36,0,0,0-.37,2.12,4.87,4.87,0,0,0,.4,2.09,2.81,2.81,0,0,0,1.12,1.3,3.25,3.25,0,0,0,1.71.44,3.39,3.39,0,0,0,1.79-.42,3,3,0,0,0,1.07-1.16l1.87.88a4.43,4.43,0,0,1-2.66,2.26A6.2,6.2,0,0,1,338.34,372.91Z"/><path class="cls-2" d="M350.44,372.91a4.69,4.69,0,0,1-2.48-.68,4.78,4.78,0,0,1-1.75-2,6.85,6.85,0,0,1-.63-3.06,6.48,6.48,0,0,1,.68-3.12,4.77,4.77,0,0,1,4.33-2.62,3.66,3.66,0,0,1,3.68,2.77l-.27.24v-7.74h2.36v15.95h-2.09l-.18-3,.31,0a3.59,3.59,0,0,1-.73,1.7,3.66,3.66,0,0,1-1.42,1.1A4.27,4.27,0,0,1,350.44,372.91Zm.5-1.89a2.69,2.69,0,0,0,1.63-.49,3,3,0,0,0,1.06-1.36,5.38,5.38,0,0,0,.37-2.11,4.74,4.74,0,0,0-.37-2,2.94,2.94,0,0,0-1.05-1.27,3,3,0,0,0-3.84.58,4.33,4.33,0,0,0-.81,2.79,4.44,4.44,0,0,0,.79,2.8A2.64,2.64,0,0,0,350.94,371Z"/><text class="cls-3" transform="translate(181.61 503.87)">Prototype</text><text class="cls-7" transform="translate(51.48 547.17)">Designing p<tspan class="cls-13" x="124.19" y="0">r</tspan><tspan class="cls-16" x="133.01" y="0">o</tspan><tspan x="146.06" y="0">t</tspan><tspan class="cls-16" x="155.38" y="0">o</tspan><tspan x="168.43" y="0">types</tspan><tspan class="cls-17" x="227.57" y="0"> </tspan><tspan x="234.36" y="0">to</tspan><tspan class="cls-18" x="256.89" y="0"> </tspan><tspan x="263.69" y="0">test </tspan><tspan x="98.3" y="26.4">ou</tspan><tspan class="cls-11" x="125.09" y="26.4">r</tspan><tspan x="133.74" y="26.4" xml:space="preserve"> initia</tspan><tspan class="cls-19" x="194.46" y="26.4">l</tspan><tspan x="200.68" y="26.4" xml:space="preserve"> conce</tspan><tspan class="cls-16" x="272.09" y="26.4">p</tspan><tspan x="285.73" y="26.4">ts</tspan></text><text class="cls-3" transform="translate(169.32 710)">Implement</text><path class="cls-2" d="M205,738.78a7.27,7.27,0,1,1,0,14.52h-5.12V738.78Zm0,12.52a4.46,4.46,0,0,0,3.53-1.38,6.73,6.73,0,0,0,0-7.76,4.46,4.46,0,0,0-3.53-1.38h-2.77V751.3Z"/><path class="cls-2" d="M220.18,753.52a6.07,6.07,0,0,1-2.91-.68,4.78,4.78,0,0,1-1.94-2,7.08,7.08,0,0,1,0-6.14,4.8,4.8,0,0,1,1.92-2,5.72,5.72,0,0,1,2.8-.68,5.24,5.24,0,0,1,2.72.66,4.45,4.45,0,0,1,1.72,1.8,5.53,5.53,0,0,1,.59,2.6c0,.26,0,.51,0,.75a4.69,4.69,0,0,1-.07.61h-8.84v-1.8H224l-1.16.35a3.25,3.25,0,0,0-.75-2.3A2.68,2.68,0,0,0,220,744a3.08,3.08,0,0,0-1.65.44,2.78,2.78,0,0,0-1.08,1.31,5.36,5.36,0,0,0-.37,2.12,4.87,4.87,0,0,0,.4,2.09,2.81,2.81,0,0,0,1.12,1.3,3.25,3.25,0,0,0,1.71.44,3.33,3.33,0,0,0,1.78-.42,3,3,0,0,0,1.08-1.16l1.87.88a4.43,4.43,0,0,1-2.66,2.26A6.2,6.2,0,0,1,220.18,753.52Z"/><path class="cls-2" d="M235,742.3h2.46l-4.37,11h-2.58l-4.4-11h2.58l3.12,9Z"/><path class="cls-2" d="M244.2,753.52a6,6,0,0,1-2.9-.68,4.75,4.75,0,0,1-2-2,7.17,7.17,0,0,1,0-6.14,4.76,4.76,0,0,1,1.93-2,5.71,5.71,0,0,1,2.79-.68,5.31,5.31,0,0,1,2.73.66,4.42,4.42,0,0,1,1.71,1.8,5.54,5.54,0,0,1,.6,2.6q0,.39,0,.75a4.84,4.84,0,0,1-.06.61h-8.84v-1.8H248l-1.17.35a3.25,3.25,0,0,0-.75-2.3,2.67,2.67,0,0,0-2-.8,3.09,3.09,0,0,0-1.66.44,2.82,2.82,0,0,0-1.07,1.31,5.36,5.36,0,0,0-.38,2.12,5,5,0,0,0,.4,2.09,2.87,2.87,0,0,0,1.12,1.3,3.31,3.31,0,0,0,1.72.44,3.37,3.37,0,0,0,1.78-.42,3.1,3.1,0,0,0,1.08-1.16l1.87.88a4.51,4.51,0,0,1-2.66,2.26A6.31,6.31,0,0,1,244.2,753.52Z"/><path class="cls-2" d="M254.37,737.35v12.87a1.66,1.66,0,0,0,.28,1.12,1.23,1.23,0,0,0,.95.31,4.27,4.27,0,0,0,.67,0,6.05,6.05,0,0,0,.69-.21l-.26,1.76a4.66,4.66,0,0,1-1.83.37,2.81,2.81,0,0,1-2.17-.76,3.39,3.39,0,0,1-.69-2.34V737.35Z"/><path class="cls-2" d="M263.71,742.08a5.79,5.79,0,0,1,2.84.68,4.82,4.82,0,0,1,1.93,2,7.17,7.17,0,0,1,0,6.14,4.82,4.82,0,0,1-1.93,2,6.25,6.25,0,0,1-5.67,0,4.91,4.91,0,0,1-1.94-2,7.08,7.08,0,0,1,0-6.14,4.91,4.91,0,0,1,1.94-2A5.78,5.78,0,0,1,263.71,742.08Zm0,1.85a3,3,0,0,0-1.68.45,2.92,2.92,0,0,0-1.07,1.31,6.17,6.17,0,0,0,0,4.21,2.9,2.9,0,0,0,1.07,1.32,3.36,3.36,0,0,0,3.36,0,2.92,2.92,0,0,0,1.05-1.32,6,6,0,0,0,0-4.21,3,3,0,0,0-1.05-1.31A3,3,0,0,0,263.71,743.93Z"/><path class="cls-2" d="M272.14,757.92V742.3h2.09l.18,3.08-.31-.37a4.28,4.28,0,0,1,.81-1.52,3.88,3.88,0,0,1,1.38-1,4.31,4.31,0,0,1,1.81-.37,4.55,4.55,0,0,1,2.44.68,4.72,4.72,0,0,1,1.74,2,6.7,6.7,0,0,1,.64,3.07,6.84,6.84,0,0,1-.65,3.09,4.76,4.76,0,0,1-1.76,2,4.66,4.66,0,0,1-2.47.68,3.92,3.92,0,0,1-2.4-.74,4,4,0,0,1-1.41-1.88l.26-.37v7.39Zm5.39-6.31a2.67,2.67,0,0,0,2.23-1,4.33,4.33,0,0,0,.81-2.79,4.49,4.49,0,0,0-.8-2.81,2.62,2.62,0,0,0-2.2-1,2.82,2.82,0,0,0-1.61.47,3.22,3.22,0,0,0-1.08,1.32,4.88,4.88,0,0,0-.39,2,5,5,0,0,0,.38,2,2.92,2.92,0,0,0,1.05,1.32A2.8,2.8,0,0,0,277.53,751.61Z"/><path class="cls-2" d="M287.12,740.45a1.66,1.66,0,0,1-1.17-.38,1.4,1.4,0,0,1-.41-1.09,1.37,1.37,0,0,1,.41-1.08,2,2,0,0,1,2.33,0,1.4,1.4,0,0,1,.4,1.08,1.43,1.43,0,0,1-.4,1.09A1.65,1.65,0,0,1,287.12,740.45Zm1.17,1.85v11h-2.36v-11Z"/><path class="cls-2" d="M292,753.3v-11h2.09l.16,2.86-.31-.31a4.08,4.08,0,0,1,.89-1.57,3.4,3.4,0,0,1,1.39-.91,5,5,0,0,1,1.7-.29,4.76,4.76,0,0,1,2.1.45,3.53,3.53,0,0,1,1.49,1.35,4.44,4.44,0,0,1,.55,2.29v7.13h-2.36v-6.4a3,3,0,0,0-.67-2.26,2.36,2.36,0,0,0-1.68-.62,3.05,3.05,0,0,0-1.41.34,2.74,2.74,0,0,0-1.13,1.09,3.82,3.82,0,0,0-.45,2v5.85Z"/><path class="cls-2" d="M311.78,751.58a4.08,4.08,0,0,1,2.6.74,2.45,2.45,0,0,1,.92,2,2.88,2.88,0,0,1-.72,2,4.52,4.52,0,0,1-2,1.27,8.62,8.62,0,0,1-2.85.44,7.49,7.49,0,0,1-4-.84,2.42,2.42,0,0,1-1.3-2.09,2.2,2.2,0,0,1,.62-1.54,3.08,3.08,0,0,1,2.13-.74l-.13.35a3,3,0,0,1-1.49-.72A1.89,1.89,0,0,1,305,751a2.08,2.08,0,0,1,.73-1.61,3.38,3.38,0,0,1,2-.77l1.23.6h-.26a2.5,2.5,0,0,0-1.43.46,1.11,1.11,0,0,0-.42.84.91.91,0,0,0,.41.81,2.09,2.09,0,0,0,1.15.26Zm-2.11-9.5a6.27,6.27,0,0,1,2.52.46,3.8,3.8,0,0,1,1.65,1.3,3.6,3.6,0,0,1,0,3.92,3.78,3.78,0,0,1-1.65,1.29,6.26,6.26,0,0,1-2.52.47,5.31,5.31,0,0,1-3.51-1,3.35,3.35,0,0,1-1.22-2.69,3.28,3.28,0,0,1,.6-2,3.83,3.83,0,0,1,1.66-1.3A6.12,6.12,0,0,1,309.67,742.08Zm.09,14.19a7.3,7.3,0,0,0,2-.23,2.78,2.78,0,0,0,1.17-.6,1.1,1.1,0,0,0,.38-.8,1,1,0,0,0-.4-.81,2.53,2.53,0,0,0-1.47-.31h-3.54a1.64,1.64,0,0,0-1,.32,1,1,0,0,0-.42.87,1.27,1.27,0,0,0,.88,1.14A5.75,5.75,0,0,0,309.76,756.27Zm-.09-12.54a2.56,2.56,0,0,0-1.68.56,1.87,1.87,0,0,0-.67,1.51,1.9,1.9,0,0,0,.67,1.52,2.51,2.51,0,0,0,1.68.57,2.56,2.56,0,0,0,1.71-.57,1.93,1.93,0,0,0,.67-1.52,1.9,1.9,0,0,0-.67-1.51A2.61,2.61,0,0,0,309.67,743.73Zm5.59-3.74.37,1.85h-.26a2.51,2.51,0,0,0-1.61.45,1.61,1.61,0,0,0-.55,1.31l-1.14-.53a3.29,3.29,0,0,1,.37-1.58,2.71,2.71,0,0,1,1.07-1.08,3.06,3.06,0,0,1,1.57-.4h.18Z"/><path class="cls-2" d="M331.25,742.3v1.85H323V742.3Zm-3.78-3.23V750a1.49,1.49,0,0,0,.43,1.19,1.69,1.69,0,0,0,1.15.37,2.76,2.76,0,0,0,1-.18,3.19,3.19,0,0,0,.81-.52l.53,1.71a3.65,3.65,0,0,1-1.24.7,5.27,5.27,0,0,1-1.64.25,4.68,4.68,0,0,1-1.74-.31,2.44,2.44,0,0,1-1.23-1,3.46,3.46,0,0,1-.46-1.81V739.73Z"/><path class="cls-2" d="M333.67,753.3V737.35H336v6.71a3.43,3.43,0,0,1,1.48-1.51,4.64,4.64,0,0,1,2.08-.47,4.76,4.76,0,0,1,2.1.45,3.47,3.47,0,0,1,1.49,1.35,4.44,4.44,0,0,1,.55,2.29v7.13h-2.36v-6.38a3.06,3.06,0,0,0-.67-2.27A2.33,2.33,0,0,0,339,744a3.1,3.1,0,0,0-1.4.34,2.67,2.67,0,0,0-1.14,1.1,3.94,3.94,0,0,0-.45,2v5.81Z"/><path class="cls-2" d="M352.13,753.52a6,6,0,0,1-2.9-.68,4.75,4.75,0,0,1-2-2,7.17,7.17,0,0,1,0-6.14,4.76,4.76,0,0,1,1.93-2,5.71,5.71,0,0,1,2.79-.68,5.31,5.31,0,0,1,2.73.66,4.36,4.36,0,0,1,1.71,1.8,5.54,5.54,0,0,1,.6,2.6c0,.26,0,.51,0,.75s0,.44-.07.61h-8.84v-1.8h7.81l-1.17.35a3.25,3.25,0,0,0-.75-2.3,2.67,2.67,0,0,0-2-.8,3.08,3.08,0,0,0-1.65.44,2.78,2.78,0,0,0-1.08,1.31,5.36,5.36,0,0,0-.38,2.12,5,5,0,0,0,.4,2.09,2.87,2.87,0,0,0,1.12,1.3,3.31,3.31,0,0,0,1.72.44,3.37,3.37,0,0,0,1.78-.42,3.1,3.1,0,0,0,1.08-1.16l1.87.88a4.51,4.51,0,0,1-2.66,2.26A6.26,6.26,0,0,1,352.13,753.52Z"/><path class="cls-2" d="M172.37,768.7h2.46l-4.37,11h-2.58l-4.4-11h2.58l3.12,8.95Z"/><path class="cls-2" d="M182.93,772.64a2.33,2.33,0,0,0-.6-1.71,2.28,2.28,0,0,0-1.67-.6,3,3,0,0,0-1.69.46,2.69,2.69,0,0,0-1,1.5l-2-.84a3.94,3.94,0,0,1,1.64-2.16,5.58,5.58,0,0,1,3.15-.81,5.84,5.84,0,0,1,2.33.43,3.47,3.47,0,0,1,1.6,1.29,3.81,3.81,0,0,1,.58,2.2v4.9a.72.72,0,0,0,.82.82,2.87,2.87,0,0,0,.77-.11l-.14,1.62a2.79,2.79,0,0,1-1.27.25,3.07,3.07,0,0,1-1.27-.26,2,2,0,0,1-.88-.77,2.4,2.4,0,0,1-.31-1.28v-.16l.48,0a2.7,2.7,0,0,1-.81,1.42,4.05,4.05,0,0,1-1.44.83,4.92,4.92,0,0,1-1.64.28,5,5,0,0,1-1.86-.33,2.68,2.68,0,0,1-1.77-2.66,2.72,2.72,0,0,1,.8-2,4.34,4.34,0,0,1,2.28-1.07l4.26-.84,0,1.65-3.1.64a3.63,3.63,0,0,0-1.39.5,1.12,1.12,0,0,0-.46,1,1.18,1.18,0,0,0,.47,1,2.06,2.06,0,0,0,1.27.36,4.24,4.24,0,0,0,1.07-.13,2.82,2.82,0,0,0,.93-.43,2,2,0,0,0,.65-.77,2.59,2.59,0,0,0,.23-1.13Z"/><path class="cls-2" d="M191.4,763.75v12.87a1.66,1.66,0,0,0,.29,1.12,1.21,1.21,0,0,0,.94.31,3.13,3.13,0,0,0,.67-.06,4.11,4.11,0,0,0,.7-.2l-.27,1.76a3.78,3.78,0,0,1-.86.27,4.47,4.47,0,0,1-1,.1,2.78,2.78,0,0,1-2.17-.76,3.41,3.41,0,0,1-.69-2.34V763.75Z"/><path class="cls-2" d="M197.16,766.85a1.66,1.66,0,0,1-1.17-.38,1.44,1.44,0,0,1-.41-1.09,1.4,1.4,0,0,1,.41-1.08,2,2,0,0,1,2.33,0,1.4,1.4,0,0,1,.41,1.08,1.44,1.44,0,0,1-.41,1.09A1.65,1.65,0,0,1,197.16,766.85Zm1.17,1.85v11H196v-11Z"/><path class="cls-2" d="M206.23,779.92a4.69,4.69,0,0,1-2.48-.68,4.78,4.78,0,0,1-1.75-2,6.85,6.85,0,0,1-.63-3.06,6.48,6.48,0,0,1,.68-3.12,4.77,4.77,0,0,1,4.33-2.62,3.66,3.66,0,0,1,3.68,2.77l-.27.24v-7.74h2.36v16h-2.09l-.18-3,.31,0a3.49,3.49,0,0,1-.73,1.7,3.66,3.66,0,0,1-1.42,1.1A4.27,4.27,0,0,1,206.23,779.92Zm.51-1.89a2.66,2.66,0,0,0,1.62-.49,3,3,0,0,0,1.06-1.36,5.38,5.38,0,0,0,.37-2.11,4.71,4.71,0,0,0-.37-2,2.94,2.94,0,0,0-1-1.27,3,3,0,0,0-3.83.58,4.28,4.28,0,0,0-.82,2.79,4.55,4.55,0,0,0,.79,2.81A2.66,2.66,0,0,0,206.74,778Z"/><path class="cls-2" d="M222.16,772.64a2.33,2.33,0,0,0-.61-1.71,2.25,2.25,0,0,0-1.66-.6,3,3,0,0,0-1.69.46,2.7,2.7,0,0,0-1,1.5l-2-.84a4,4,0,0,1,1.64-2.16,5.64,5.64,0,0,1,3.16-.81,5.84,5.84,0,0,1,2.33.43,3.47,3.47,0,0,1,1.6,1.29,3.89,3.89,0,0,1,.58,2.2v4.9a.72.72,0,0,0,.81.82,2.81,2.81,0,0,0,.77-.11l-.13,1.62a2.83,2.83,0,0,1-1.28.25,3,3,0,0,1-1.26-.26,1.94,1.94,0,0,1-.88-.77,2.41,2.41,0,0,1-.32-1.28v-.16l.48,0a2.7,2.7,0,0,1-.81,1.42,4,4,0,0,1-1.43.83,5.21,5.21,0,0,1-3.51,0,2.68,2.68,0,0,1-1.77-2.66,2.76,2.76,0,0,1,.8-2,4.42,4.42,0,0,1,2.28-1.07l4.27-.84,0,1.65-3.11.64a3.64,3.64,0,0,0-1.38.5,1.12,1.12,0,0,0-.46,1,1.16,1.16,0,0,0,.47,1,2,2,0,0,0,1.26.36,4.18,4.18,0,0,0,1.07-.13,2.78,2.78,0,0,0,.94-.43,2,2,0,0,0,.65-.77,2.59,2.59,0,0,0,.23-1.13Z"/><path class="cls-2" d="M234.89,768.7v1.85h-8.25V768.7Zm-3.78-3.23V776.4a1.49,1.49,0,0,0,.43,1.19,1.7,1.7,0,0,0,1.16.37,2.53,2.53,0,0,0,1-.19,2.9,2.9,0,0,0,.81-.51l.53,1.71a3.65,3.65,0,0,1-1.24.7,5,5,0,0,1-1.64.25,4.68,4.68,0,0,1-1.74-.31,2.44,2.44,0,0,1-1.23-1,3.46,3.46,0,0,1-.46-1.81V766.13Z"/><path class="cls-2" d="M242.07,779.92a6.07,6.07,0,0,1-2.91-.68,4.78,4.78,0,0,1-1.94-2,7.08,7.08,0,0,1,0-6.14,4.8,4.8,0,0,1,1.92-2,5.72,5.72,0,0,1,2.8-.68,5.27,5.27,0,0,1,2.72.66,4.45,4.45,0,0,1,1.72,1.8,5.53,5.53,0,0,1,.59,2.6c0,.26,0,.51,0,.75a4.69,4.69,0,0,1-.07.61H238v-1.8h7.81l-1.16.35a3.25,3.25,0,0,0-.75-2.3,2.68,2.68,0,0,0-2.05-.8,3.08,3.08,0,0,0-1.65.44,2.78,2.78,0,0,0-1.08,1.31,5.36,5.36,0,0,0-.37,2.12,4.87,4.87,0,0,0,.4,2.09,2.81,2.81,0,0,0,1.12,1.3,3.25,3.25,0,0,0,1.71.44,3.33,3.33,0,0,0,1.78-.42,3,3,0,0,0,1.08-1.16l1.87.88a4.43,4.43,0,0,1-2.66,2.26A6.2,6.2,0,0,1,242.07,779.92Z"/><path class="cls-2" d="M254.17,779.92a4.69,4.69,0,0,1-2.48-.68,4.78,4.78,0,0,1-1.75-2,6.84,6.84,0,0,1-.64-3.06,6.48,6.48,0,0,1,.69-3.12,4.77,4.77,0,0,1,4.33-2.62,3.73,3.73,0,0,1,2.38.77,3.67,3.67,0,0,1,1.29,2l-.26.24v-7.74h2.35v16H258l-.17-3,.31,0a3.59,3.59,0,0,1-.73,1.7,3.66,3.66,0,0,1-1.42,1.1A4.27,4.27,0,0,1,254.17,779.92Zm.5-1.89a2.69,2.69,0,0,0,1.63-.49,3,3,0,0,0,1.06-1.36,5.38,5.38,0,0,0,.37-2.11,4.71,4.71,0,0,0-.37-2,2.94,2.94,0,0,0-1.05-1.27,3,3,0,0,0-3.84.58,4.33,4.33,0,0,0-.81,2.79,4.49,4.49,0,0,0,.79,2.81A2.65,2.65,0,0,0,254.67,778Z"/><path class="cls-2" d="M277.22,768.7v1.85H269.3V768.7Zm-2-5.1a4.8,4.8,0,0,1,1.24.14,2,2,0,0,1,.85.38l-.44,1.7a1.93,1.93,0,0,0-.55-.23,3,3,0,0,0-.7-.08,2.17,2.17,0,0,0-1.42.42,1.63,1.63,0,0,0-.52,1.36v1.61l.07.59V779.7h-2.36V767.12a4.14,4.14,0,0,1,.25-1.5,2.9,2.9,0,0,1,.76-1.11,3.38,3.38,0,0,1,1.22-.68A5,5,0,0,1,275.2,763.6Z"/><path class="cls-2" d="M283.93,779.92a6,6,0,0,1-2.9-.68,4.75,4.75,0,0,1-1.95-2,7.17,7.17,0,0,1,0-6.14,4.82,4.82,0,0,1,1.93-2,5.71,5.71,0,0,1,2.79-.68,5.31,5.31,0,0,1,2.73.66,4.36,4.36,0,0,1,1.71,1.8,5.54,5.54,0,0,1,.6,2.6c0,.26,0,.51,0,.75s0,.44-.07.61h-8.84v-1.8h7.81l-1.17.35a3.25,3.25,0,0,0-.75-2.3,2.67,2.67,0,0,0-2-.8,3.08,3.08,0,0,0-1.65.44A2.78,2.78,0,0,0,281,772.1a5.36,5.36,0,0,0-.37,2.12,5,5,0,0,0,.39,2.09,2.87,2.87,0,0,0,1.12,1.3,3.31,3.31,0,0,0,1.72.44,3.35,3.35,0,0,0,1.78-.42,3.1,3.1,0,0,0,1.08-1.16l1.87.88a4.51,4.51,0,0,1-2.66,2.26A6.26,6.26,0,0,1,283.93,779.92Z"/><path class="cls-2" d="M298.17,772.64a2.33,2.33,0,0,0-.61-1.71,2.25,2.25,0,0,0-1.66-.6,3,3,0,0,0-1.69.46,2.7,2.7,0,0,0-1,1.5l-2-.84a4,4,0,0,1,1.64-2.16,5.64,5.64,0,0,1,3.16-.81,5.84,5.84,0,0,1,2.33.43,3.52,3.52,0,0,1,1.6,1.29,3.89,3.89,0,0,1,.58,2.2v4.9a.72.72,0,0,0,.81.82,2.81,2.81,0,0,0,.77-.11l-.13,1.62a2.83,2.83,0,0,1-1.28.25,3,3,0,0,1-1.26-.26,1.94,1.94,0,0,1-.88-.77,2.41,2.41,0,0,1-.32-1.28v-.16l.48,0a2.7,2.7,0,0,1-.81,1.42,4,4,0,0,1-1.43.83,5.21,5.21,0,0,1-3.51,0,2.68,2.68,0,0,1-1.77-2.66,2.76,2.76,0,0,1,.8-2,4.42,4.42,0,0,1,2.28-1.07l4.27-.84,0,1.65-3.11.64a3.64,3.64,0,0,0-1.38.5,1.12,1.12,0,0,0-.46,1,1.16,1.16,0,0,0,.47,1,2,2,0,0,0,1.26.36,4.18,4.18,0,0,0,1.07-.13,2.78,2.78,0,0,0,.94-.43,2,2,0,0,0,.65-.77,2.59,2.59,0,0,0,.23-1.13Z"/><path class="cls-2" d="M310.91,768.7v1.85h-8.25V768.7Zm-3.79-3.23V776.4a1.49,1.49,0,0,0,.43,1.19,1.69,1.69,0,0,0,1.15.37,2.54,2.54,0,0,0,1-.19,2.9,2.9,0,0,0,.81-.51l.53,1.71a3.65,3.65,0,0,1-1.24.7,5,5,0,0,1-1.64.25,4.68,4.68,0,0,1-1.74-.31,2.44,2.44,0,0,1-1.23-1,3.46,3.46,0,0,1-.46-1.81V766.13Z"/><path class="cls-2" d="M317.15,779.92a4.85,4.85,0,0,1-2-.4,3.2,3.2,0,0,1-1.46-1.27,4.24,4.24,0,0,1-.55-2.29V768.7h2.35v6.67a2.67,2.67,0,0,0,.64,2,2.59,2.59,0,0,0,1.78.56,3.21,3.21,0,0,0,1.07-.18,2.61,2.61,0,0,0,1.58-1.64,4.29,4.29,0,0,0,.24-1.5v-6h2.35v11h-2.07l-.11-1.78a3.58,3.58,0,0,1-1.54,1.52A5.09,5.09,0,0,1,317.15,779.92Z"/><path class="cls-2" d="M326.83,779.7v-11h2l.22,2a3.44,3.44,0,0,1,1.31-1.64,3.93,3.93,0,0,1,2.15-.56,4.89,4.89,0,0,1,.66,0,2.24,2.24,0,0,1,.55.17l-.33,2.07a3.49,3.49,0,0,0-.54-.15,5.56,5.56,0,0,0-.8,0,2.82,2.82,0,0,0-1.35.36,2.9,2.9,0,0,0-1.08,1.09,3.57,3.57,0,0,0-.43,1.85v5.83Z"/><path class="cls-2" d="M340.49,779.92a6.06,6.06,0,0,1-2.9-.68,4.81,4.81,0,0,1-1.95-2,7.17,7.17,0,0,1,0-6.14,4.88,4.88,0,0,1,1.93-2,5.71,5.71,0,0,1,2.79-.68,5.31,5.31,0,0,1,2.73.66,4.45,4.45,0,0,1,1.72,1.8,5.65,5.65,0,0,1,.59,2.6c0,.26,0,.51,0,.75s0,.44-.07.61h-8.84v-1.8h7.81l-1.17.35a3.29,3.29,0,0,0-.74-2.3,2.7,2.7,0,0,0-2.05-.8,3.08,3.08,0,0,0-1.65.44,2.78,2.78,0,0,0-1.08,1.31,5.36,5.36,0,0,0-.37,2.12,5,5,0,0,0,.39,2.09,2.89,2.89,0,0,0,1.13,1.3,3.25,3.25,0,0,0,1.71.44,3.35,3.35,0,0,0,1.78-.42,3,3,0,0,0,1.08-1.16l1.87.88a4.51,4.51,0,0,1-2.66,2.26A6.26,6.26,0,0,1,340.49,779.92Z"/><path class="cls-2" d="M352.55,779.92a6.94,6.94,0,0,1-3-.64,5.17,5.17,0,0,1-2.16-1.8l1.63-1.41a3.65,3.65,0,0,0,1.4,1.44,4.17,4.17,0,0,0,2.18.54,3.2,3.2,0,0,0,1.61-.35,1.13,1.13,0,0,0,.32-1.73,1.9,1.9,0,0,0-1-.49l-2.32-.49a4.67,4.67,0,0,1-2.5-1.13,2.76,2.76,0,0,1-.75-2,2.83,2.83,0,0,1,.53-1.67A3.7,3.7,0,0,1,350,769a5.88,5.88,0,0,1,2.45-.47,6.25,6.25,0,0,1,2.82.58,4.21,4.21,0,0,1,1.78,1.66l-1.63,1.37a2.75,2.75,0,0,0-1.23-1.31,3.54,3.54,0,0,0-1.69-.43,3.59,3.59,0,0,0-1.21.18,1.68,1.68,0,0,0-.78.48,1.12,1.12,0,0,0-.26.73,1.06,1.06,0,0,0,.33.77,2.42,2.42,0,0,0,1.19.5l2.51.53a3.94,3.94,0,0,1,2.23,1,2.65,2.65,0,0,1,.65,1.8,3.21,3.21,0,0,1-.55,1.86,3.6,3.6,0,0,1-1.58,1.24A6.38,6.38,0,0,1,352.55,779.92Z"/><text class="cls-3" transform="translate(243.56 916.13)">E<tspan class="cls-5" x="21.91" y="0">v</tspan><tspan x="41.96" y="0">o</tspan><tspan class="cls-20" x="62.89" y="0">l</tspan><tspan class="cls-21" x="74.27" y="0">v</tspan><tspan x="94.32" y="0">e</tspan></text><path class="cls-2" d="M127.76,944.69a7.37,7.37,0,0,1,3.39.74,6.64,6.64,0,0,1,2.42,2.16L132,949.11a5.26,5.26,0,0,0-1.88-1.83,5.09,5.09,0,0,0-2.47-.57,4.51,4.51,0,0,0-1.74.29,2.1,2.1,0,0,0-1,.76,1.8,1.8,0,0,0-.32,1.07A1.64,1.64,0,0,0,125,950a3.48,3.48,0,0,0,1.77.8l2.95.66a5.64,5.64,0,0,1,3,1.4,3.39,3.39,0,0,1,.88,2.4,3.84,3.84,0,0,1-.72,2.33,4.61,4.61,0,0,1-2,1.52,8,8,0,0,1-3,.53,8.82,8.82,0,0,1-2.77-.4,7.39,7.39,0,0,1-2.16-1.07,6.45,6.45,0,0,1-1.52-1.57l1.63-1.62a5.64,5.64,0,0,0,1.17,1.37,5,5,0,0,0,1.63.94,6.26,6.26,0,0,0,2.08.33,5.35,5.35,0,0,0,1.75-.25,2.33,2.33,0,0,0,1.12-.71,1.72,1.72,0,0,0,.39-1.13,1.65,1.65,0,0,0-.43-1.13,3,3,0,0,0-1.59-.74l-3.19-.73a7,7,0,0,1-2.18-.81,3.59,3.59,0,0,1-1.28-1.29,3.49,3.49,0,0,1-.42-1.71,4,4,0,0,1,.67-2.23,4.67,4.67,0,0,1,2-1.6A6.93,6.93,0,0,1,127.76,944.69Z"/><path class="cls-2" d="M140.43,959.65a4.85,4.85,0,0,1-2-.4A3.15,3.15,0,0,1,137,958a4.24,4.24,0,0,1-.55-2.29v-7.26h2.35v6.67a2.63,2.63,0,0,0,.64,2,2.57,2.57,0,0,0,1.78.56,3.25,3.25,0,0,0,1.07-.18,2.75,2.75,0,0,0,.93-.6,2.67,2.67,0,0,0,.65-1,4.55,4.55,0,0,0,.23-1.5v-6h2.36v11h-2.07l-.11-1.78a3.64,3.64,0,0,1-1.54,1.52A5.12,5.12,0,0,1,140.43,959.65Z"/><path class="cls-2" d="M154.29,959.65a6.91,6.91,0,0,1-3-.64,5.17,5.17,0,0,1-2.16-1.8l1.63-1.41a3.7,3.7,0,0,0,1.39,1.44,4.23,4.23,0,0,0,2.19.54,3.2,3.2,0,0,0,1.61-.35,1.13,1.13,0,0,0,.32-1.73,1.9,1.9,0,0,0-1-.49l-2.31-.49a4.63,4.63,0,0,1-2.5-1.13,2.76,2.76,0,0,1-.75-2,2.83,2.83,0,0,1,.53-1.67,3.64,3.64,0,0,1,1.55-1.25,5.88,5.88,0,0,1,2.45-.47,6.18,6.18,0,0,1,2.81.58,4.18,4.18,0,0,1,1.79,1.66l-1.63,1.37a2.8,2.8,0,0,0-1.23-1.31,3.58,3.58,0,0,0-1.7-.43,3.63,3.63,0,0,0-1.21.18,1.78,1.78,0,0,0-.77.48,1.12,1.12,0,0,0-.26.73,1.06,1.06,0,0,0,.33.77,2.33,2.33,0,0,0,1.19.5l2.51.53a3.94,3.94,0,0,1,2.23,1,2.65,2.65,0,0,1,.65,1.8,3.28,3.28,0,0,1-.55,1.86,3.58,3.58,0,0,1-1.59,1.24A6.32,6.32,0,0,1,154.29,959.65Z"/><path class="cls-2" d="M168.74,948.43v1.85h-8.25v-1.85ZM165,945.2v10.93a1.49,1.49,0,0,0,.43,1.19,1.67,1.67,0,0,0,1.15.37,2.76,2.76,0,0,0,1-.18,3.19,3.19,0,0,0,.81-.52l.53,1.71a3.65,3.65,0,0,1-1.24.7,5,5,0,0,1-1.64.25,4.68,4.68,0,0,1-1.74-.31,2.44,2.44,0,0,1-1.23-1,3.37,3.37,0,0,1-.46-1.81V945.86Z"/><path class="cls-2" d="M177.5,952.37a2.31,2.31,0,0,0-.61-1.71,2.24,2.24,0,0,0-1.66-.6,3,3,0,0,0-1.69.46,2.75,2.75,0,0,0-1,1.5l-2-.84a4,4,0,0,1,1.63-2.16,5.64,5.64,0,0,1,3.16-.81,5.84,5.84,0,0,1,2.33.43,3.53,3.53,0,0,1,1.6,1.29,3.81,3.81,0,0,1,.58,2.2V957a.72.72,0,0,0,.82.82,2.74,2.74,0,0,0,.76-.11l-.13,1.62a2.79,2.79,0,0,1-1.27.25,3.07,3.07,0,0,1-1.27-.26,1.94,1.94,0,0,1-.88-.77,2.41,2.41,0,0,1-.32-1.28v-.16l.49,0a2.68,2.68,0,0,1-.82,1.42,4.1,4.1,0,0,1-1.43.84,5.19,5.19,0,0,1-1.65.27,5,5,0,0,1-1.86-.33,2.71,2.71,0,0,1-1.77-2.66,2.73,2.73,0,0,1,.81-2,4.35,4.35,0,0,1,2.27-1.07l4.27-.84,0,1.65-3.1.64a3.63,3.63,0,0,0-1.39.5,1.12,1.12,0,0,0-.46,1,1.18,1.18,0,0,0,.47,1,2.06,2.06,0,0,0,1.27.36,4.16,4.16,0,0,0,1.06-.13,2.78,2.78,0,0,0,.94-.43,2,2,0,0,0,.65-.77,2.59,2.59,0,0,0,.23-1.13Z"/><path class="cls-2" d="M184.87,946.58a1.69,1.69,0,0,1-1.18-.38,1.43,1.43,0,0,1-.4-1.09,1.4,1.4,0,0,1,.4-1.08,1.69,1.69,0,0,1,1.18-.37A1.62,1.62,0,0,1,186,944a1.37,1.37,0,0,1,.41,1.08,1.4,1.4,0,0,1-.41,1.09A1.63,1.63,0,0,1,184.87,946.58Zm1.17,1.85v11h-2.36v-11Z"/><path class="cls-2" d="M189.71,959.43v-11h2.09l.15,2.86-.3-.31a4.08,4.08,0,0,1,.89-1.57,3.37,3.37,0,0,1,1.38-.91,5.12,5.12,0,0,1,1.71-.29,4.82,4.82,0,0,1,2.1.45,3.44,3.44,0,0,1,1.48,1.35,4.34,4.34,0,0,1,.55,2.29v7.13h-2.35V953a3,3,0,0,0-.67-2.26,2.37,2.37,0,0,0-1.69-.62,3,3,0,0,0-1.4.34,2.77,2.77,0,0,0-1.14,1.09,3.85,3.85,0,0,0-.45,2v5.85Z"/><path class="cls-2" d="M204.51,946.58a1.66,1.66,0,0,1-1.17-.38,1.44,1.44,0,0,1-.41-1.09,1.4,1.4,0,0,1,.41-1.08,2,2,0,0,1,2.33,0,1.4,1.4,0,0,1,.41,1.08,1.44,1.44,0,0,1-.41,1.09A1.65,1.65,0,0,1,204.51,946.58Zm1.17,1.85v11h-2.35v-11Z"/><path class="cls-2" d="M209.35,959.43v-11h2.09l.16,2.86-.31-.31a4.22,4.22,0,0,1,.89-1.57,3.4,3.4,0,0,1,1.39-.91,5,5,0,0,1,1.7-.29,4.76,4.76,0,0,1,2.1.45,3.47,3.47,0,0,1,1.49,1.35,4.44,4.44,0,0,1,.55,2.29v7.13h-2.36V953a3,3,0,0,0-.67-2.26,2.34,2.34,0,0,0-1.68-.62,3.11,3.11,0,0,0-1.41.34,2.81,2.81,0,0,0-1.13,1.09,3.85,3.85,0,0,0-.45,2v5.85Z"/><path class="cls-2" d="M229.18,957.71a4.05,4.05,0,0,1,2.59.74,2.45,2.45,0,0,1,.93,2,2.91,2.91,0,0,1-.73,2,4.54,4.54,0,0,1-2,1.26,8.62,8.62,0,0,1-2.85.44,7.49,7.49,0,0,1-4-.84,2.42,2.42,0,0,1-1.3-2.09,2.17,2.17,0,0,1,.63-1.54,3.1,3.1,0,0,1,2.12-.74l-.13.35a3.07,3.07,0,0,1-1.49-.72,1.89,1.89,0,0,1-.56-1.46,2.08,2.08,0,0,1,.73-1.61,3.38,3.38,0,0,1,2-.77l1.24.6h-.27a2.5,2.5,0,0,0-1.43.46,1.11,1.11,0,0,0-.42.84.91.91,0,0,0,.41.81,2.1,2.1,0,0,0,1.16.26Zm-2.12-9.5a6.27,6.27,0,0,1,2.52.46,3.8,3.8,0,0,1,1.65,1.3,3.55,3.55,0,0,1,0,3.92,3.78,3.78,0,0,1-1.65,1.29,6.26,6.26,0,0,1-2.52.47,5.31,5.31,0,0,1-3.5-1,3.33,3.33,0,0,1-1.23-2.69,3.28,3.28,0,0,1,.6-2,3.83,3.83,0,0,1,1.66-1.3A6.12,6.12,0,0,1,227.06,948.21Zm.09,14.19a7.3,7.3,0,0,0,2-.23,3,3,0,0,0,1.17-.59,1.09,1.09,0,0,0,.38-.81,1,1,0,0,0-.4-.81,2.5,2.5,0,0,0-1.47-.31h-3.54a1.66,1.66,0,0,0-1,.32,1,1,0,0,0-.42.87,1.27,1.27,0,0,0,.88,1.14A5.78,5.78,0,0,0,227.15,962.4Zm-.09-12.54a2.56,2.56,0,0,0-1.68.56,1.87,1.87,0,0,0-.67,1.51,1.9,1.9,0,0,0,.67,1.52,2.51,2.51,0,0,0,1.68.57,2.56,2.56,0,0,0,1.71-.57,1.9,1.9,0,0,0,.67-1.52,1.87,1.87,0,0,0-.67-1.51A2.61,2.61,0,0,0,227.06,949.86Zm5.59-3.74L233,948h-.27a2.46,2.46,0,0,0-1.6.45,1.58,1.58,0,0,0-.55,1.31l-1.15-.53a3.3,3.3,0,0,1,.38-1.58,2.69,2.69,0,0,1,1.06-1.08,3.09,3.09,0,0,1,1.58-.4h.17Z"/><path class="cls-2" d="M236,956.46a1.67,1.67,0,0,1,1,.3,2,2,0,0,1,.63.81,3.14,3.14,0,0,1,.22,1.18,4.07,4.07,0,0,1-.31,1.57,4.57,4.57,0,0,1-.89,1.39,4.64,4.64,0,0,1-1.4,1l-1.1-1a3.72,3.72,0,0,0,1.06-.57,3.65,3.65,0,0,0,.78-.79,2.92,2.92,0,0,0,.45-.9l-.09,0a1,1,0,0,1-.25.11,1.42,1.42,0,0,1-.41,0,1.48,1.48,0,0,1-1.16-.66,1.5,1.5,0,0,1-.22-.86,1.56,1.56,0,0,1,.23-.86,1.59,1.59,0,0,1,.6-.58A1.69,1.69,0,0,1,236,956.46Z"/><path class="cls-2" d="M248,959.43v-11h2.09l.11,1.85a3.6,3.6,0,0,1,1.53-1.56,4.22,4.22,0,0,1,2-.51,4.55,4.55,0,0,1,2.19.54,3.45,3.45,0,0,1,1.51,1.62,3.29,3.29,0,0,1,1-1.21,4.14,4.14,0,0,1,1.36-.72,5.11,5.11,0,0,1,1.47-.23,4.56,4.56,0,0,1,2,.44,3.52,3.52,0,0,1,1.5,1.34,4.25,4.25,0,0,1,.57,2.31v7.13H263v-6.75a2.57,2.57,0,0,0-.64-1.94,2.29,2.29,0,0,0-1.63-.59,2.79,2.79,0,0,0-1.42.37,2.73,2.73,0,0,0-1,1.11,3.74,3.74,0,0,0-.4,1.82v6h-2.35v-6.75a2.53,2.53,0,0,0-.64-1.94,2.29,2.29,0,0,0-1.63-.59,2.72,2.72,0,0,0-1.32.35,2.77,2.77,0,0,0-1.1,1.1,3.92,3.92,0,0,0-.44,2v5.85Z"/><path class="cls-2" d="M273.73,959.65a6.07,6.07,0,0,1-2.91-.68,4.87,4.87,0,0,1-1.95-2,7.17,7.17,0,0,1,0-6.14,4.88,4.88,0,0,1,1.93-2,5.71,5.71,0,0,1,2.79-.68,5.31,5.31,0,0,1,2.73.66,4.45,4.45,0,0,1,1.72,1.8,5.65,5.65,0,0,1,.59,2.6c0,.26,0,.51,0,.75s0,.44-.07.61H269.7v-1.8h7.81l-1.17.35a3.29,3.29,0,0,0-.74-2.3,2.7,2.7,0,0,0-2.05-.8,3.08,3.08,0,0,0-1.65.44,2.78,2.78,0,0,0-1.08,1.31,5.36,5.36,0,0,0-.37,2.12,5,5,0,0,0,.39,2.09,2.89,2.89,0,0,0,1.13,1.3,3.25,3.25,0,0,0,1.71.44,3.35,3.35,0,0,0,1.78-.42,3,3,0,0,0,1.08-1.16l1.87.88a4.51,4.51,0,0,1-2.66,2.26A6.25,6.25,0,0,1,273.73,959.65Z"/><path class="cls-2" d="M288,952.37a2.31,2.31,0,0,0-.61-1.71,2.24,2.24,0,0,0-1.66-.6,3,3,0,0,0-1.69.46,2.69,2.69,0,0,0-1,1.5l-2-.84a4,4,0,0,1,1.63-2.16,5.64,5.64,0,0,1,3.16-.81,5.84,5.84,0,0,1,2.33.43,3.53,3.53,0,0,1,1.6,1.29,3.81,3.81,0,0,1,.58,2.2V957a.72.72,0,0,0,.82.82,2.87,2.87,0,0,0,.77-.11l-.14,1.62a2.79,2.79,0,0,1-1.27.25,3.07,3.07,0,0,1-1.27-.26,2,2,0,0,1-.88-.77,2.41,2.41,0,0,1-.32-1.28v-.16l.49,0a2.68,2.68,0,0,1-.82,1.42,4.1,4.1,0,0,1-1.43.84,5.19,5.19,0,0,1-1.65.27,5,5,0,0,1-1.86-.33,2.71,2.71,0,0,1-1.77-2.66,2.73,2.73,0,0,1,.81-2,4.35,4.35,0,0,1,2.27-1.07l4.27-.84,0,1.65-3.1.64a3.63,3.63,0,0,0-1.39.5,1.12,1.12,0,0,0-.46,1,1.18,1.18,0,0,0,.47,1,2.06,2.06,0,0,0,1.27.36,4.16,4.16,0,0,0,1.06-.13,2.78,2.78,0,0,0,.94-.43,2,2,0,0,0,.65-.77,2.59,2.59,0,0,0,.23-1.13Z"/><path class="cls-2" d="M298.32,959.65a6.94,6.94,0,0,1-3-.64,5.17,5.17,0,0,1-2.16-1.8l1.63-1.41a3.65,3.65,0,0,0,1.4,1.44,4.21,4.21,0,0,0,2.19.54,3.16,3.16,0,0,0,1.6-.35,1.12,1.12,0,0,0,.32-1.73,1.9,1.9,0,0,0-1-.49l-2.31-.49a4.67,4.67,0,0,1-2.51-1.13,2.76,2.76,0,0,1-.75-2,2.9,2.9,0,0,1,.53-1.67,3.7,3.7,0,0,1,1.55-1.25,5.88,5.88,0,0,1,2.45-.47,6.25,6.25,0,0,1,2.82.58,4.21,4.21,0,0,1,1.78,1.66l-1.63,1.37a2.8,2.8,0,0,0-1.23-1.31,3.54,3.54,0,0,0-1.69-.43,3.59,3.59,0,0,0-1.21.18,1.67,1.67,0,0,0-.77.48,1.08,1.08,0,0,0-.27.73,1.06,1.06,0,0,0,.33.77,2.33,2.33,0,0,0,1.19.5l2.51.53a3.94,3.94,0,0,1,2.23,1,2.65,2.65,0,0,1,.65,1.8,3.21,3.21,0,0,1-.55,1.86,3.6,3.6,0,0,1-1.58,1.24A6.38,6.38,0,0,1,298.32,959.65Z"/><path class="cls-2" d="M309.7,959.65a4.89,4.89,0,0,1-2-.4,3.25,3.25,0,0,1-1.46-1.27,4.24,4.24,0,0,1-.55-2.29v-7.26H308v6.67a2.67,2.67,0,0,0,.64,2,2.6,2.6,0,0,0,1.79.56,3.19,3.19,0,0,0,1.06-.18,2.69,2.69,0,0,0,.94-.6,2.8,2.8,0,0,0,.65-1,4.55,4.55,0,0,0,.23-1.5v-6h2.35v11h-2.07l-.11-1.78a3.58,3.58,0,0,1-1.54,1.52A5,5,0,0,1,309.7,959.65Z"/><path class="cls-2" d="M319.37,959.43v-11h2l.22,2a3.38,3.38,0,0,1,1.31-1.64,3.89,3.89,0,0,1,2.14-.56,4.89,4.89,0,0,1,.66,0,2.24,2.24,0,0,1,.55.17l-.33,2.07a3.49,3.49,0,0,0-.54-.15,5.45,5.45,0,0,0-.8-.05,2.75,2.75,0,0,0-1.34.36,2.92,2.92,0,0,0-1.09,1.09,3.57,3.57,0,0,0-.43,1.85v5.83Z"/><path class="cls-2" d="M329.67,946.58a1.71,1.71,0,0,1-1.18-.38,1.43,1.43,0,0,1-.4-1.09,1.4,1.4,0,0,1,.4-1.08,1.7,1.7,0,0,1,1.18-.37,1.67,1.67,0,0,1,1.16.37,1.4,1.4,0,0,1,.4,1.08,1.43,1.43,0,0,1-.4,1.09A1.67,1.67,0,0,1,329.67,946.58Zm1.17,1.85v11h-2.36v-11Z"/><path class="cls-2" d="M334.51,959.43v-11h2.09l.15,2.86-.3-.31a4.08,4.08,0,0,1,.89-1.57,3.44,3.44,0,0,1,1.38-.91,5.12,5.12,0,0,1,1.71-.29,4.76,4.76,0,0,1,2.1.45A3.44,3.44,0,0,1,344,950a4.34,4.34,0,0,1,.55,2.29v7.13h-2.35V953a3,3,0,0,0-.67-2.26,2.36,2.36,0,0,0-1.68-.62,3.05,3.05,0,0,0-1.41.34,2.74,2.74,0,0,0-1.13,1.09,3.75,3.75,0,0,0-.45,2v5.85Z"/><path class="cls-2" d="M354.33,957.71a4.08,4.08,0,0,1,2.6.74,2.48,2.48,0,0,1,.92,2,2.9,2.9,0,0,1-.72,2,4.6,4.6,0,0,1-2,1.26,8.62,8.62,0,0,1-2.85.44,7.53,7.53,0,0,1-4-.84,2.43,2.43,0,0,1-1.29-2.09,2.2,2.2,0,0,1,.62-1.54,3.13,3.13,0,0,1,2.13-.74l-.14.35a3,3,0,0,1-1.48-.72,1.89,1.89,0,0,1-.56-1.46,2.11,2.11,0,0,1,.72-1.61,3.44,3.44,0,0,1,2.05-.77l1.23.6h-.26a2.47,2.47,0,0,0-1.43.46,1.11,1.11,0,0,0-.42.84.91.91,0,0,0,.41.81,2.06,2.06,0,0,0,1.15.26Zm-2.11-9.5a6.27,6.27,0,0,1,2.52.46,3.8,3.8,0,0,1,1.65,1.3,3.6,3.6,0,0,1,0,3.92,3.78,3.78,0,0,1-1.65,1.29,6.26,6.26,0,0,1-2.52.47,5.36,5.36,0,0,1-3.51-1,3.57,3.57,0,0,1-.63-4.65,3.89,3.89,0,0,1,1.66-1.3A6.2,6.2,0,0,1,352.22,948.21Zm.09,14.19a7.3,7.3,0,0,0,2-.23,3,3,0,0,0,1.17-.59,1.12,1.12,0,0,0,.38-.81,1,1,0,0,0-.41-.81,2.49,2.49,0,0,0-1.46-.31h-3.54a1.69,1.69,0,0,0-1,.32,1,1,0,0,0-.41.87,1.27,1.27,0,0,0,.88,1.14A5.75,5.75,0,0,0,352.31,962.4Zm-.09-12.54a2.54,2.54,0,0,0-1.68.56,1.87,1.87,0,0,0-.67,1.51,1.9,1.9,0,0,0,.67,1.52,2.5,2.5,0,0,0,1.68.57,2.56,2.56,0,0,0,1.71-.57,1.93,1.93,0,0,0,.67-1.52,1.9,1.9,0,0,0-.67-1.51A2.61,2.61,0,0,0,352.22,949.86Zm5.59-3.74.37,1.85h-.26a2.49,2.49,0,0,0-1.61.45,1.61,1.61,0,0,0-.55,1.31l-1.14-.53a3.29,3.29,0,0,1,.37-1.58,2.71,2.71,0,0,1,1.07-1.08,3.06,3.06,0,0,1,1.57-.4h.18Z"/><path class="cls-2" d="M67.61,978.77a2.29,2.29,0,0,0-.61-1.71,2.24,2.24,0,0,0-1.66-.6,3,3,0,0,0-1.69.46,2.7,2.7,0,0,0-1,1.5l-2-.84a4,4,0,0,1,1.64-2.16,5.64,5.64,0,0,1,3.16-.81,5.84,5.84,0,0,1,2.33.43,3.53,3.53,0,0,1,1.6,1.29,3.89,3.89,0,0,1,.58,2.2v4.9a.72.72,0,0,0,.81.82,2.81,2.81,0,0,0,.77-.11l-.13,1.62a2.82,2.82,0,0,1-1.27.25,3,3,0,0,1-1.27-.26A1.94,1.94,0,0,1,68,985a2.41,2.41,0,0,1-.32-1.28v-.16l.49,0a2.79,2.79,0,0,1-.82,1.42,4,4,0,0,1-1.43.83,5.21,5.21,0,0,1-3.51,0,2.68,2.68,0,0,1-1.77-2.66,2.76,2.76,0,0,1,.8-2A4.42,4.42,0,0,1,63.69,980l4.27-.84,0,1.65-3.1.64a3.63,3.63,0,0,0-1.39.5,1.12,1.12,0,0,0-.46,1,1.18,1.18,0,0,0,.47,1,2.06,2.06,0,0,0,1.27.36,4.16,4.16,0,0,0,1.06-.13,2.78,2.78,0,0,0,.94-.43,2,2,0,0,0,.65-.77,2.59,2.59,0,0,0,.23-1.13Z"/><path class="cls-2" d="M73.79,985.83v-11h2.09l.15,2.86-.3-.31a4.08,4.08,0,0,1,.89-1.57A3.44,3.44,0,0,1,78,974.9a5.12,5.12,0,0,1,1.71-.29,4.76,4.76,0,0,1,2.1.45,3.44,3.44,0,0,1,1.48,1.35,4.34,4.34,0,0,1,.55,2.29v7.13H81.49v-6.4a3,3,0,0,0-.67-2.26,2.4,2.4,0,0,0-1.68-.62,3.05,3.05,0,0,0-1.41.34A2.76,2.76,0,0,0,76.59,978a3.82,3.82,0,0,0-.45,2v5.85Z"/><path class="cls-2" d="M91.63,986.05a4.66,4.66,0,0,1-2.47-.68,4.71,4.71,0,0,1-1.75-2,6.71,6.71,0,0,1-.64-3.06,6.6,6.6,0,0,1,.68-3.12,4.8,4.8,0,0,1,4.34-2.62,3.65,3.65,0,0,1,3.67,2.77l-.26.24v-7.74h2.35v16H95.46l-.18-3,.31,0a3.48,3.48,0,0,1-.72,1.7,4,4,0,0,1-1.42,1.11A4.46,4.46,0,0,1,91.63,986.05Zm.51-1.89a2.71,2.71,0,0,0,1.63-.49,3.1,3.1,0,0,0,1-1.36,5.37,5.37,0,0,0,.38-2.11,4.74,4.74,0,0,0-.38-2,3,3,0,0,0-1-1.27,2.81,2.81,0,0,0-1.55-.44,2.75,2.75,0,0,0-2.29,1,4.28,4.28,0,0,0-.82,2.79,4.49,4.49,0,0,0,.8,2.81A2.63,2.63,0,0,0,92.14,984.16Z"/><path class="cls-2" d="M109.54,973a1.69,1.69,0,0,1-1.18-.38,1.43,1.43,0,0,1-.4-1.09,1.4,1.4,0,0,1,.4-1.08,1.69,1.69,0,0,1,1.18-.37,1.62,1.62,0,0,1,1.15.37,1.37,1.37,0,0,1,.41,1.08,1.4,1.4,0,0,1-.41,1.09A1.63,1.63,0,0,1,109.54,973Zm1.17,1.85v11h-2.36v-11Z"/><path class="cls-2" d="M114.38,985.83v-11h2.09l.11,1.85a3.6,3.6,0,0,1,1.53-1.56,4.25,4.25,0,0,1,2-.51,4.53,4.53,0,0,1,2.19.54,3.45,3.45,0,0,1,1.51,1.62,3.29,3.29,0,0,1,1-1.21,4.14,4.14,0,0,1,1.36-.72,5.12,5.12,0,0,1,1.48-.23,4.54,4.54,0,0,1,2,.44,3.52,3.52,0,0,1,1.5,1.34,4.25,4.25,0,0,1,.57,2.31v7.13h-2.35v-6.75a2.53,2.53,0,0,0-.64-1.94,2.27,2.27,0,0,0-1.63-.59,2.81,2.81,0,0,0-1.42.37,2.73,2.73,0,0,0-1,1.11,3.86,3.86,0,0,0-.4,1.82v6h-2.35v-6.75a2.53,2.53,0,0,0-.64-1.94,2.27,2.27,0,0,0-1.63-.59,2.72,2.72,0,0,0-1.32.35,2.83,2.83,0,0,0-1.1,1.1,3.92,3.92,0,0,0-.44,2v5.85Z"/><path class="cls-2" d="M135.26,990.45V974.83h2.09l.17,3.08-.3-.37A4.13,4.13,0,0,1,138,976a3.84,3.84,0,0,1,1.37-1,4.36,4.36,0,0,1,1.82-.37,4.58,4.58,0,0,1,2.44.68,4.86,4.86,0,0,1,1.74,2,7.68,7.68,0,0,1,0,6.16,4.76,4.76,0,0,1-1.76,2,4.69,4.69,0,0,1-2.48.68,3.87,3.87,0,0,1-2.39-.74,4,4,0,0,1-1.41-1.88l.26-.37v7.39Zm5.39-6.31a2.69,2.69,0,0,0,2.23-1,4.33,4.33,0,0,0,.8-2.79,4.49,4.49,0,0,0-.79-2.81,2.63,2.63,0,0,0-2.2-1,2.88,2.88,0,0,0-1.62.47A3.09,3.09,0,0,0,138,978.3a4.8,4.8,0,0,0-.39,2,5,5,0,0,0,.38,2,2.86,2.86,0,0,0,1,1.32A2.8,2.8,0,0,0,140.65,984.14Z"/><path class="cls-2" d="M149.05,985.83v-11h2l.22,2a3.48,3.48,0,0,1,1.31-1.64,3.93,3.93,0,0,1,2.15-.56,3.68,3.68,0,0,1,.66.06,1.89,1.89,0,0,1,.55.16l-.33,2.07a2.66,2.66,0,0,0-.54-.14,4.27,4.27,0,0,0-.8-.06,2.79,2.79,0,0,0-1.35.36,2.92,2.92,0,0,0-1.09,1.09,3.67,3.67,0,0,0-.42,1.85v5.83Z"/><path class="cls-2" d="M162.65,974.61a5.85,5.85,0,0,1,2.84.68,4.8,4.8,0,0,1,1.92,2,7.17,7.17,0,0,1,0,6.14,4.8,4.8,0,0,1-1.92,2,6.27,6.27,0,0,1-5.68,0,4.91,4.91,0,0,1-1.94-2,7.08,7.08,0,0,1,0-6.14,4.91,4.91,0,0,1,1.94-2A5.82,5.82,0,0,1,162.65,974.61Zm0,1.85a3.07,3.07,0,0,0-1.69.45,2.9,2.9,0,0,0-1.06,1.31,6,6,0,0,0,0,4.21,2.88,2.88,0,0,0,1.06,1.32,3.07,3.07,0,0,0,1.69.45,2.76,2.76,0,0,0,2.73-1.77,6.17,6.17,0,0,0,0-4.21,2.77,2.77,0,0,0-2.73-1.76Z"/><path class="cls-2" d="M178.24,974.83h2.47l-4.38,11h-2.57l-4.4-11h2.57l3.13,8.95Z"/><path class="cls-2" d="M183.9,973a1.69,1.69,0,0,1-1.18-.38,1.43,1.43,0,0,1-.4-1.09,1.4,1.4,0,0,1,.4-1.08,1.69,1.69,0,0,1,1.18-.37,1.62,1.62,0,0,1,1.15.37,1.37,1.37,0,0,1,.41,1.08,1.4,1.4,0,0,1-.41,1.09A1.63,1.63,0,0,1,183.9,973Zm1.17,1.85v11h-2.36v-11Z"/><path class="cls-2" d="M188.74,985.83v-11h2.09l.15,2.86-.3-.31a4.08,4.08,0,0,1,.89-1.57,3.37,3.37,0,0,1,1.38-.91,5.12,5.12,0,0,1,1.71-.29,4.82,4.82,0,0,1,2.1.45,3.44,3.44,0,0,1,1.48,1.35,4.34,4.34,0,0,1,.55,2.29v7.13h-2.35v-6.4a3,3,0,0,0-.67-2.26,2.41,2.41,0,0,0-1.69-.62,3,3,0,0,0-1.4.34,2.7,2.7,0,0,0-1.14,1.09,3.82,3.82,0,0,0-.45,2v5.85Z"/><path class="cls-2" d="M208.56,984.11a4.08,4.08,0,0,1,2.6.74,2.48,2.48,0,0,1,.92,2,2.88,2.88,0,0,1-.72,2,4.58,4.58,0,0,1-2,1.27,8.62,8.62,0,0,1-2.85.44,7.53,7.53,0,0,1-4-.84,2.43,2.43,0,0,1-1.29-2.09,2.16,2.16,0,0,1,.62-1.54,3.08,3.08,0,0,1,2.13-.74l-.14.35a3,3,0,0,1-1.48-.72,1.86,1.86,0,0,1-.56-1.46,2.11,2.11,0,0,1,.72-1.61,3.44,3.44,0,0,1,2.05-.77l1.23.6h-.26a2.47,2.47,0,0,0-1.43.46,1.11,1.11,0,0,0-.42.84.89.89,0,0,0,.41.81,2.06,2.06,0,0,0,1.15.26Zm-2.11-9.5a6.27,6.27,0,0,1,2.52.46,3.8,3.8,0,0,1,1.65,1.3,3.6,3.6,0,0,1,0,3.92,3.78,3.78,0,0,1-1.65,1.29,6.26,6.26,0,0,1-2.52.47,5.27,5.27,0,0,1-3.51-1,3.57,3.57,0,0,1-.63-4.65,3.89,3.89,0,0,1,1.66-1.3A6.2,6.2,0,0,1,206.45,974.61Zm.09,14.19a7.35,7.35,0,0,0,2-.23,2.68,2.68,0,0,0,1.16-.6,1.06,1.06,0,0,0,.39-.8,1,1,0,0,0-.41-.81,2.49,2.49,0,0,0-1.46-.31h-3.54a1.69,1.69,0,0,0-1,.32,1,1,0,0,0-.42.87,1.29,1.29,0,0,0,.88,1.14A5.8,5.8,0,0,0,206.54,988.8Zm-.09-12.54a2.52,2.52,0,0,0-1.68.56,1.88,1.88,0,0,0-.68,1.51,1.9,1.9,0,0,0,.68,1.52,2.48,2.48,0,0,0,1.68.57,2.51,2.51,0,0,0,1.7-.57,1.9,1.9,0,0,0,.68-1.52,1.88,1.88,0,0,0-.68-1.51A2.56,2.56,0,0,0,206.45,976.26Zm5.59-3.74.37,1.85h-.26a2.49,2.49,0,0,0-1.61.45,1.58,1.58,0,0,0-.55,1.31l-1.14-.53a3.22,3.22,0,0,1,.37-1.57,2.67,2.67,0,0,1,1.07-1.09,3,3,0,0,1,1.57-.4H212Z"/><path class="cls-2" d="M230.58,974.83l-4.82,12.3a8.37,8.37,0,0,1-1,2,3.28,3.28,0,0,1-1.29,1.08,4,4,0,0,1-1.69.33,4.81,4.81,0,0,1-1.46-.21,4.45,4.45,0,0,1-1.18-.56l.57-1.83a3,3,0,0,0,.89.53,2.88,2.88,0,0,0,1,.18,1.87,1.87,0,0,0,1.07-.32,2.66,2.66,0,0,0,.85-1.27l.48-1.18-1.16-2.73-3.44-8.34H222l2.45,6.91.63,2.07.73-2.27,2.31-6.71Z"/><path class="cls-2" d="M237.29,974.61a5.82,5.82,0,0,1,2.84.68,4.88,4.88,0,0,1,1.93,2,7.17,7.17,0,0,1,0,6.14,4.88,4.88,0,0,1-1.93,2,6.27,6.27,0,0,1-5.68,0,4.88,4.88,0,0,1-1.93-2,7.08,7.08,0,0,1,0-6.14,4.88,4.88,0,0,1,1.93-2A5.85,5.85,0,0,1,237.29,974.61Zm0,1.85a3,3,0,0,0-1.68.45,2.92,2.92,0,0,0-1.07,1.31,6.17,6.17,0,0,0,0,4.21,2.9,2.9,0,0,0,1.07,1.32,3,3,0,0,0,1.68.45,3,3,0,0,0,1.67-.45,2.88,2.88,0,0,0,1.06-1.32,6,6,0,0,0,0-4.21,2.9,2.9,0,0,0-1.06-1.31A3,3,0,0,0,237.29,976.46Z"/><path class="cls-2" d="M249.63,986.05a4.88,4.88,0,0,1-2-.4,3.2,3.2,0,0,1-1.46-1.27,4.24,4.24,0,0,1-.55-2.29v-7.26H248v6.67a2.67,2.67,0,0,0,.64,2,2.6,2.6,0,0,0,1.79.56,3.19,3.19,0,0,0,1.06-.18,2.69,2.69,0,0,0,.94-.6,2.8,2.8,0,0,0,.65-1,4.55,4.55,0,0,0,.23-1.5v-6h2.35v11h-2.07l-.11-1.78a3.58,3.58,0,0,1-1.54,1.52A5.09,5.09,0,0,1,249.63,986.05Z"/><path class="cls-2" d="M259.31,985.83v-11h2l.22,2a3.43,3.43,0,0,1,1.31-1.64,3.87,3.87,0,0,1,2.14-.56,3.68,3.68,0,0,1,.66.06,1.89,1.89,0,0,1,.55.16l-.33,2.07a2.66,2.66,0,0,0-.54-.14,4.2,4.2,0,0,0-.8-.06,2.75,2.75,0,0,0-1.34.36,2.85,2.85,0,0,0-1.09,1.09,3.57,3.57,0,0,0-.43,1.85v5.83Z"/><path class="cls-2" d="M275.11,990.45V974.83h2.09l.18,3.08-.31-.37a4.28,4.28,0,0,1,.81-1.52,3.88,3.88,0,0,1,1.38-1,4.31,4.31,0,0,1,1.81-.37,4.55,4.55,0,0,1,2.44.68,4.72,4.72,0,0,1,1.74,2,6.7,6.7,0,0,1,.64,3.07,6.84,6.84,0,0,1-.65,3.09,4.76,4.76,0,0,1-1.76,2,4.66,4.66,0,0,1-2.47.68,3.92,3.92,0,0,1-2.4-.74,4,4,0,0,1-1.41-1.88l.26-.37v7.39Zm5.39-6.31a2.67,2.67,0,0,0,2.23-1,4.33,4.33,0,0,0,.81-2.79,4.49,4.49,0,0,0-.8-2.81,2.62,2.62,0,0,0-2.2-1,2.82,2.82,0,0,0-1.61.47,3.18,3.18,0,0,0-1.08,1.33,4.8,4.8,0,0,0-.39,2,5,5,0,0,0,.38,2,2.92,2.92,0,0,0,1.05,1.32A2.8,2.8,0,0,0,280.5,984.14Z"/><path class="cls-2" d="M288.9,985.83v-11h2l.22,2a3.43,3.43,0,0,1,1.31-1.64,3.87,3.87,0,0,1,2.14-.56,3.68,3.68,0,0,1,.66.06,1.89,1.89,0,0,1,.55.16l-.33,2.07a2.66,2.66,0,0,0-.54-.14,4.2,4.2,0,0,0-.8-.06,2.75,2.75,0,0,0-1.34.36,2.85,2.85,0,0,0-1.09,1.09,3.57,3.57,0,0,0-.43,1.85v5.83Z"/><path class="cls-2" d="M302.5,974.61a5.82,5.82,0,0,1,2.84.68,4.8,4.8,0,0,1,1.92,2,7.08,7.08,0,0,1,0,6.14,4.8,4.8,0,0,1-1.92,2,6.27,6.27,0,0,1-5.68,0,4.88,4.88,0,0,1-1.93-2,7,7,0,0,1,0-6.14,4.88,4.88,0,0,1,1.93-2A5.82,5.82,0,0,1,302.5,974.61Zm0,1.85a3,3,0,0,0-1.68.45,2.92,2.92,0,0,0-1.07,1.31,6.17,6.17,0,0,0,0,4.21,2.9,2.9,0,0,0,1.07,1.32,3,3,0,0,0,1.68.45,3,3,0,0,0,1.67-.45,2.88,2.88,0,0,0,1.06-1.32,6.17,6.17,0,0,0,0-4.21,2.9,2.9,0,0,0-1.06-1.31A3,3,0,0,0,302.5,976.46Z"/><path class="cls-2" d="M315.15,986.05a4.59,4.59,0,0,1-4.22-2.64,6.71,6.71,0,0,1-.64-3.06,6.6,6.6,0,0,1,.68-3.12,4.8,4.8,0,0,1,4.33-2.62,3.66,3.66,0,0,1,3.68,2.77l-.27.24v-7.74h2.36v16H319l-.18-3,.31,0a3.4,3.4,0,0,1-.73,1.7,3.83,3.83,0,0,1-1.41,1.11A4.46,4.46,0,0,1,315.15,986.05Zm.51-1.89a2.66,2.66,0,0,0,1.62-.49,3,3,0,0,0,1.06-1.36,5.38,5.38,0,0,0,.37-2.11,4.74,4.74,0,0,0-.37-2,2.94,2.94,0,0,0-1-1.27,3,3,0,0,0-3.83.58,4.28,4.28,0,0,0-.82,2.79,4.55,4.55,0,0,0,.79,2.81A2.66,2.66,0,0,0,315.66,984.16Z"/><path class="cls-2" d="M328.64,986.05a4.81,4.81,0,0,1-2-.4,3.17,3.17,0,0,1-1.47-1.27,4.34,4.34,0,0,1-.55-2.29v-7.26H327v6.67a2.67,2.67,0,0,0,.63,2,2.6,2.6,0,0,0,1.79.56,3.19,3.19,0,0,0,1.06-.18,2.69,2.69,0,0,0,.94-.6,2.8,2.8,0,0,0,.65-1,4.55,4.55,0,0,0,.23-1.5v-6h2.35v11h-2.07l-.11-1.78a3.58,3.58,0,0,1-1.54,1.52A5,5,0,0,1,328.64,986.05Z"/><path class="cls-2" d="M343.07,974.61a5.81,5.81,0,0,1,2.25.39,4.2,4.2,0,0,1,1.58,1.08,5,5,0,0,1,1,1.61l-2.22.88a3.09,3.09,0,0,0-.91-1.55,2.44,2.44,0,0,0-1.64-.54,3.07,3.07,0,0,0-1.69.45,2.8,2.8,0,0,0-1.07,1.31,5.47,5.47,0,0,0-.36,2.11,5.21,5.21,0,0,0,.37,2.09,2.8,2.8,0,0,0,1.08,1.3,3.44,3.44,0,0,0,3,.19,2.4,2.4,0,0,0,.91-.73,2.74,2.74,0,0,0,.5-1.15l2.13.72a4.65,4.65,0,0,1-1,1.73,4.37,4.37,0,0,1-1.61,1.14,5.76,5.76,0,0,1-2.23.41,6,6,0,0,1-2.88-.68,4.87,4.87,0,0,1-1.95-2,7.17,7.17,0,0,1,0-6.14,4.84,4.84,0,0,1,1.94-2A5.83,5.83,0,0,1,343.07,974.61Z"/><path class="cls-2" d="M357.68,974.83v1.85h-8.25v-1.85Zm-3.79-3.23v10.93a1.53,1.53,0,0,0,.43,1.19,1.7,1.7,0,0,0,1.16.37,2.71,2.71,0,0,0,1-.18,3.19,3.19,0,0,0,.81-.52l.53,1.71a3.65,3.65,0,0,1-1.24.7,5,5,0,0,1-1.64.25,4.68,4.68,0,0,1-1.74-.31,2.44,2.44,0,0,1-1.23-1,3.46,3.46,0,0,1-.46-1.81V972.26Z"/><circle class="cls-2" cx="391.49" cy="93.88" r="8.52"/><circle class="cls-2" cx="391.49" cy="297.22" r="8.52"/><circle class="cls-2" cx="391.49" cy="498.82" r="8.52"/><circle class="cls-2" cx="391.49" cy="697.75" r="8.52"/><circle class="cls-2" cx="391.49" cy="904.72" r="8.52"/><line class="cls-1" x1="352.6" y1="602.35" x2="352.6" y2="660.51"/><polygon class="cls-2" points="345.82 658.53 352.6 670.27 359.38 658.53 345.82 658.53"/><line class="cls-1" x1="333.88" y1="670.27" x2="333.88" y2="612.11"/><polygon class="cls-2" points="340.66 614.1 333.88 602.35 327.1 614.1 340.66 614.1"/></g></g></svg>