<svg xmlns="http://www.w3.org/2000/svg" viewBox="0 0 400.01 1047.44"><defs><style>.cls-1{fill:none;stroke:#352f7f;stroke-miterlimit:10;stroke-width:2px;}.cls-2,.cls-3,.cls-7{fill:#352f7f;}.cls-3{font-size:35px;font-family:WorkSans-Black, Work Sans;font-weight:800;}.cls-4{letter-spacing:-0.05em;}.cls-5{letter-spacing:-0.01em;}.cls-6{letter-spacing:0.01em;}.cls-7{font-size:22px;font-family:WorkSans-Medium, Work Sans;font-weight:500;}.cls-8{letter-spacing:-0.01em;}.cls-9{letter-spacing:0em;}.cls-10{letter-spacing:-0.02em;}.cls-11{letter-spacing:-0.02em;}.cls-12{letter-spacing:-0.01em;}.cls-13{letter-spacing:-0.02em;}.cls-14{letter-spacing:-0.02em;}.cls-15{letter-spacing:0em;}.cls-16{letter-spacing:-0.06em;}.cls-17{letter-spacing:-0.01em;}.cls-18{letter-spacing:0em;}.cls-19{letter-spacing:-0.02em;}.cls-20{letter-spacing:0em;}.cls-21{letter-spacing:-0.01em;}.cls-22{letter-spacing:-0.02em;}.cls-23{letter-spacing:-0.07em;}.cls-24{letter-spacing:-0.01em;}.cls-25{letter-spacing:-0.03em;}.cls-26{letter-spacing:-0.01em;}.cls-27{letter-spacing:-0.03em;}.cls-28{letter-spacing:0em;}.cls-29{letter-spacing:-0.02em;}.cls-30{letter-spacing:0em;}</style></defs><g id="Layer_2" data-name="Layer 2"><g id="Layer_1-2" data-name="Layer 1"><line class="cls-1" x1="391.49" y1="697.75" x2="391.49" y2="862.56"/><polygon class="cls-2" points="384.71 860.58 391.49 872.32 398.27 860.58 384.71 860.58"/><line class="cls-1" x1="391.49" y1="498.82" x2="391.49" y2="661.86"/><polygon class="cls-2" points="384.71 659.88 391.49 671.62 398.27 659.88 384.71 659.88"/><line class="cls-1" x1="391.49" y1="297.22" x2="391.49" y2="460.26"/><polygon class="cls-2" points="384.71 458.28 391.49 470.02 398.27 458.28 384.71 458.28"/><line class="cls-1" x1="391.49" y1="90.76" x2="391.49" y2="257.46"/><polygon class="cls-2" points="384.71 255.48 391.49 267.22 398.27 255.48 384.71 255.48"/><polyline class="cls-1" points="391.24 904.72 391.24 1046.44 1 1046.44 1 1 391.24 1 391.24 53.28"/><polygon class="cls-2" points="384.46 51.3 391.24 63.04 398.02 51.3 384.46 51.3"/><text class="cls-3" transform="translate(214.86 102.11)"><tspan class="cls-4">F</tspan><tspan x="19.88" y="0">e</tspan><tspan class="cls-5" x="40.18" y="0">l</tspan><tspan class="cls-6" x="51.59" y="0">t</tspan><tspan x="67.79" y="0">árás</tspan></text><path class="cls-2" d="M159.83,145.41h-2.48L156,141.6h-6.09l-1.39,3.81h-2.42l5.48-14.52h2.81Zm-9.3-5.72h4.77l-2.38-6.78Z"/><path class="cls-2" d="M161.37,145.41v-1.63l5.32-6.2,1.35-1.37-1.92,0h-4.7v-1.85h9.21V136l-5.32,6.2L164,143.61l2.09-.05h4.75v1.85Z"/><path class="cls-2" d="M184.78,145.63a4.85,4.85,0,0,1-2-.4,3.15,3.15,0,0,1-1.46-1.27,4.24,4.24,0,0,1-.55-2.29v-7.26h2.35v6.67a2.63,2.63,0,0,0,.64,2,2.57,2.57,0,0,0,1.78.56,3.25,3.25,0,0,0,1.07-.18,2.75,2.75,0,0,0,.93-.6,2.67,2.67,0,0,0,.65-1,4.55,4.55,0,0,0,.23-1.5v-6h2.35v11h-2.06l-.11-1.78a3.64,3.64,0,0,1-1.54,1.52A5.12,5.12,0,0,1,184.78,145.63Zm-1.23-15.44a1.41,1.41,0,0,1,1,.37,1.49,1.49,0,0,1,0,2,1.38,1.38,0,0,1-1,.39,1.43,1.43,0,0,1-1-.39,1.49,1.49,0,0,1,0-2A1.46,1.46,0,0,1,183.55,130.19Zm4.44,0a1.45,1.45,0,0,1,1,.37,1.52,1.52,0,0,1,0,2,1.42,1.42,0,0,1-1,.39,1.38,1.38,0,0,1-1-.39,1.49,1.49,0,0,1,0-2A1.41,1.41,0,0,1,188,130.19Z"/><path class="cls-2" d="M193.76,145.41v-1.63l5.32-6.2,1.34-1.37-1.91,0H193.8v-1.85H203V136l-5.33,6.2-1.32,1.37,2.09-.05h4.75v1.85Z"/><path class="cls-2" d="M208.38,129.46v12.87a1.66,1.66,0,0,0,.29,1.12,1.23,1.23,0,0,0,1,.31,3.26,3.26,0,0,0,.67-.06,4.31,4.31,0,0,0,.69-.2l-.26,1.76a4,4,0,0,1-.86.27,4.57,4.57,0,0,1-1,.1,2.81,2.81,0,0,1-2.17-.76,3.39,3.39,0,0,1-.69-2.34V129.46Z"/><path class="cls-2" d="M217.8,145.63a6,6,0,0,1-2.9-.68,4.75,4.75,0,0,1-2-2,7.17,7.17,0,0,1,0-6.14,4.8,4.8,0,0,1,1.92-2,5.74,5.74,0,0,1,2.8-.68,5.31,5.31,0,0,1,2.73.66,4.42,4.42,0,0,1,1.71,1.8,5.54,5.54,0,0,1,.6,2.6q0,.39,0,.75a4.84,4.84,0,0,1-.06.61h-8.84v-1.8h7.8l-1.16.35a3.25,3.25,0,0,0-.75-2.3,2.68,2.68,0,0,0-2-.8,3.08,3.08,0,0,0-1.65.44,2.82,2.82,0,0,0-1.07,1.31,5.36,5.36,0,0,0-.38,2.12,4.87,4.87,0,0,0,.4,2.09,2.87,2.87,0,0,0,1.12,1.3,3.31,3.31,0,0,0,1.72.44,3.37,3.37,0,0,0,1.78-.42,3.1,3.1,0,0,0,1.08-1.16l1.87.88a4.49,4.49,0,0,1-2.67,2.26A6.2,6.2,0,0,1,217.8,145.63Z"/><path class="cls-2" d="M232.41,134.41v1.85h-8.25v-1.85Zm-3.79-3.23v10.93a1.53,1.53,0,0,0,.43,1.19,1.7,1.7,0,0,0,1.16.37,2.67,2.67,0,0,0,1-.18,3.08,3.08,0,0,0,.82-.52l.52,1.71a3.55,3.55,0,0,1-1.24.7,5,5,0,0,1-1.64.25,4.68,4.68,0,0,1-1.74-.31,2.52,2.52,0,0,1-1.23-1,3.46,3.46,0,0,1-.46-1.81V131.84Z"/><path class="cls-2" d="M235.93,132.56a1.69,1.69,0,0,1-1.18-.38,1.43,1.43,0,0,1-.4-1.09,1.4,1.4,0,0,1,.4-1.08,1.69,1.69,0,0,1,1.18-.37,1.62,1.62,0,0,1,1.15.37,1.37,1.37,0,0,1,.41,1.08,1.4,1.4,0,0,1-.41,1.09A1.63,1.63,0,0,1,235.93,132.56Zm1.17,1.85v11h-2.36v-11Z"/><path class="cls-2" d="M249.11,132.56a1.67,1.67,0,0,1-1.18-.38,1.44,1.44,0,0,1-.41-1.09,1.4,1.4,0,0,1,.41-1.08,1.67,1.67,0,0,1,1.18-.37,1.62,1.62,0,0,1,1.15.37,1.4,1.4,0,0,1,.41,1.08,1.44,1.44,0,0,1-.41,1.09A1.63,1.63,0,0,1,249.11,132.56Zm1.16,1.85v11h-2.35v-11Z"/><path class="cls-2" d="M260.15,143.69a4.08,4.08,0,0,1,2.6.74,2.48,2.48,0,0,1,.92,2,2.82,2.82,0,0,1-.73,2,4.49,4.49,0,0,1-2,1.27,8.62,8.62,0,0,1-2.85.44,7.53,7.53,0,0,1-4-.84,2.44,2.44,0,0,1-1.3-2.09,2.17,2.17,0,0,1,.63-1.54,3.07,3.07,0,0,1,2.12-.74l-.13.35a3,3,0,0,1-1.48-.72,1.86,1.86,0,0,1-.56-1.46,2.11,2.11,0,0,1,.72-1.61,3.44,3.44,0,0,1,2.05-.77l1.23.6h-.26a2.45,2.45,0,0,0-1.43.46,1.11,1.11,0,0,0-.42.84.9.9,0,0,0,.4.81,2.12,2.12,0,0,0,1.16.26Zm-2.11-9.5a6.27,6.27,0,0,1,2.52.46,3.8,3.8,0,0,1,1.65,1.3,3.6,3.6,0,0,1,0,3.92,3.78,3.78,0,0,1-1.65,1.29,6.26,6.26,0,0,1-2.52.47,5.32,5.32,0,0,1-3.51-1,3.57,3.57,0,0,1-.63-4.65,3.89,3.89,0,0,1,1.66-1.3A6.2,6.2,0,0,1,258,134.19Zm.09,14.19a7.35,7.35,0,0,0,2-.23,2.79,2.79,0,0,0,1.16-.6,1.06,1.06,0,0,0,.39-.8,1,1,0,0,0-.41-.81,2.49,2.49,0,0,0-1.46-.31h-3.54a1.69,1.69,0,0,0-1,.32,1,1,0,0,0-.42.87,1.29,1.29,0,0,0,.88,1.14A5.8,5.8,0,0,0,258.13,148.38ZM258,135.84a2.52,2.52,0,0,0-1.68.56,1.88,1.88,0,0,0-.68,1.51,1.91,1.91,0,0,0,.68,1.52A2.48,2.48,0,0,0,258,140a2.51,2.51,0,0,0,1.7-.57,1.9,1.9,0,0,0,.67-1.52,1.87,1.87,0,0,0-.67-1.51A2.56,2.56,0,0,0,258,135.84Zm5.59-3.74L264,134h-.26a2.49,2.49,0,0,0-1.61.45,1.58,1.58,0,0,0-.55,1.31l-1.14-.53a3.29,3.29,0,0,1,.37-1.58,2.71,2.71,0,0,1,1.07-1.08,3,3,0,0,1,1.57-.4h.18Z"/><path class="cls-2" d="M270.67,145.63a6.07,6.07,0,0,1-2.91-.68,4.78,4.78,0,0,1-1.94-2,7.08,7.08,0,0,1,0-6.14,4.8,4.8,0,0,1,1.92-2,5.71,5.71,0,0,1,2.79-.68,5.28,5.28,0,0,1,2.73.66,4.45,4.45,0,0,1,1.72,1.8,5.65,5.65,0,0,1,.59,2.6c0,.26,0,.51,0,.75s0,.44-.07.61h-8.84v-1.8h7.81l-1.17.35a3.29,3.29,0,0,0-.74-2.3,2.68,2.68,0,0,0-2.05-.8,3.08,3.08,0,0,0-1.65.44,2.78,2.78,0,0,0-1.08,1.31,5.36,5.36,0,0,0-.37,2.12,5,5,0,0,0,.39,2.09,2.89,2.89,0,0,0,1.13,1.3,3.25,3.25,0,0,0,1.71.44,3.33,3.33,0,0,0,1.78-.42,3,3,0,0,0,1.08-1.16l1.87.88a4.51,4.51,0,0,1-2.66,2.26A6.25,6.25,0,0,1,270.67,145.63Zm.11-16.63h2.37L271,132.69h-1.8Z"/><path class="cls-2" d="M278.54,145.41v-11h2.09l.16,2.86-.31-.31a4.08,4.08,0,0,1,.89-1.57,3.4,3.4,0,0,1,1.39-.91,5,5,0,0,1,1.7-.29,4.76,4.76,0,0,1,2.1.45,3.53,3.53,0,0,1,1.49,1.35,4.44,4.44,0,0,1,.55,2.29v7.13h-2.36V139a3,3,0,0,0-.67-2.26,2.36,2.36,0,0,0-1.68-.62,3.05,3.05,0,0,0-1.41.34,2.74,2.74,0,0,0-1.13,1.09,3.82,3.82,0,0,0-.45,2v5.85Z"/><path class="cls-2" d="M301.47,134.41l-4.82,12.3a8.36,8.36,0,0,1-1,2,3.33,3.33,0,0,1-1.28,1.08,4.09,4.09,0,0,1-1.7.33,4.86,4.86,0,0,1-1.46-.21,4.45,4.45,0,0,1-1.18-.56l.57-1.83a3,3,0,0,0,.89.53,2.9,2.9,0,0,0,1,.18,1.86,1.86,0,0,0,1.06-.32,2.66,2.66,0,0,0,.85-1.27l.48-1.18-1.16-2.73-3.43-8.34h2.64l2.44,6.91.64,2.07.72-2.27,2.31-6.71Z"/><path class="cls-2" d="M308.24,145.63a6,6,0,0,1-2.9-.68,4.75,4.75,0,0,1-1.95-2,7.17,7.17,0,0,1,0-6.14,4.76,4.76,0,0,1,1.93-2,5.71,5.71,0,0,1,2.79-.68,5.31,5.31,0,0,1,2.73.66,4.36,4.36,0,0,1,1.71,1.8,5.54,5.54,0,0,1,.6,2.6c0,.26,0,.51,0,.75s0,.44-.07.61h-8.84v-1.8H312l-1.17.35a3.25,3.25,0,0,0-.75-2.3,2.67,2.67,0,0,0-2-.8,3.06,3.06,0,0,0-1.65.44,2.78,2.78,0,0,0-1.08,1.31,5.36,5.36,0,0,0-.38,2.12,5,5,0,0,0,.4,2.09,2.87,2.87,0,0,0,1.12,1.3,3.31,3.31,0,0,0,1.72.44,3.35,3.35,0,0,0,1.78-.42,3.1,3.1,0,0,0,1.08-1.16l1.87.88a4.51,4.51,0,0,1-2.66,2.26A6.26,6.26,0,0,1,308.24,145.63Z"/><path class="cls-2" d="M318.47,129.46v15.95h-2.35V129.46Zm8,4.95-4.9,5-.51.35-3.45,3.58,0-2.68,6.1-6.27Zm-4.62,3.7,4.89,7.3H324l-3.92-6Z"/><path class="cls-2" d="M340.49,145.63a6,6,0,0,1-2.9-.68,4.81,4.81,0,0,1-1.95-2,7.17,7.17,0,0,1,0-6.14,4.88,4.88,0,0,1,1.93-2,5.71,5.71,0,0,1,2.79-.68,5.31,5.31,0,0,1,2.73.66,4.45,4.45,0,0,1,1.72,1.8,5.65,5.65,0,0,1,.59,2.6c0,.26,0,.51,0,.75s0,.44-.07.61h-8.84v-1.8h7.81l-1.17.35a3.25,3.25,0,0,0-.75-2.3,2.67,2.67,0,0,0-2-.8,3.08,3.08,0,0,0-1.65.44,2.78,2.78,0,0,0-1.08,1.31,5.36,5.36,0,0,0-.37,2.12,5,5,0,0,0,.39,2.09,2.93,2.93,0,0,0,1.12,1.3,3.31,3.31,0,0,0,1.72.44,3.35,3.35,0,0,0,1.78-.42,3,3,0,0,0,1.08-1.16l1.87.88a4.43,4.43,0,0,1-1.07,1.37,4.49,4.49,0,0,1-1.59.89A6.26,6.26,0,0,1,340.49,145.63ZM340.6,129H343l-2.18,3.69H339Z"/><path class="cls-2" d="M352.55,145.63a6.91,6.91,0,0,1-3-.64,5.17,5.17,0,0,1-2.16-1.8l1.63-1.41a3.7,3.7,0,0,0,1.39,1.44,4.23,4.23,0,0,0,2.19.54,3.2,3.2,0,0,0,1.61-.35,1.13,1.13,0,0,0,.32-1.73,1.9,1.9,0,0,0-1-.49l-2.31-.49a4.63,4.63,0,0,1-2.5-1.13,2.76,2.76,0,0,1-.75-2,2.83,2.83,0,0,1,.53-1.67,3.64,3.64,0,0,1,1.55-1.25,5.88,5.88,0,0,1,2.45-.47,6.25,6.25,0,0,1,2.82.58,4.21,4.21,0,0,1,1.78,1.66l-1.63,1.37a2.8,2.8,0,0,0-1.23-1.31,3.58,3.58,0,0,0-1.7-.43,3.63,3.63,0,0,0-1.21.18,1.7,1.7,0,0,0-.77.48,1.12,1.12,0,0,0-.26.73,1.06,1.06,0,0,0,.33.77,2.42,2.42,0,0,0,1.19.5l2.51.53a3.94,3.94,0,0,1,2.23,1,2.65,2.65,0,0,1,.65,1.8,3.28,3.28,0,0,1-.55,1.86,3.58,3.58,0,0,1-1.59,1.24A6.32,6.32,0,0,1,352.55,145.63Z"/><path class="cls-2" d="M80,155.86v15.95H77.68V155.86Zm8,4.95-4.91,5-.5.35-3.46,3.58,0-2.68,6.09-6.27Zm-4.62,3.7,4.88,7.3H85.6l-3.91-6Z"/><path class="cls-2" d="M94.82,160.59a5.82,5.82,0,0,1,2.84.68,4.8,4.8,0,0,1,1.92,2,7.08,7.08,0,0,1,0,6.14,4.8,4.8,0,0,1-1.92,2,6.27,6.27,0,0,1-5.68,0,4.88,4.88,0,0,1-1.93-2,7,7,0,0,1,0-6.14,4.88,4.88,0,0,1,1.93-2A5.82,5.82,0,0,1,94.82,160.59Zm-2.22-4.18a1.41,1.41,0,0,1,1,.37,1.5,1.5,0,0,1,0,2,1.6,1.6,0,0,1-2.07,0,1.48,1.48,0,0,1,0-2A1.42,1.42,0,0,1,92.6,156.41Zm2.22,6a3,3,0,0,0-1.68.45,2.92,2.92,0,0,0-1.07,1.31,6.17,6.17,0,0,0,0,4.21,2.9,2.9,0,0,0,1.07,1.32,3,3,0,0,0,1.68.45,3,3,0,0,0,1.67-.45,2.88,2.88,0,0,0,1.06-1.32,6.17,6.17,0,0,0,0-4.21,2.9,2.9,0,0,0-1.06-1.31A3,3,0,0,0,94.82,162.44Zm2.22-6a1.45,1.45,0,0,1,1,.37,1.53,1.53,0,0,1,0,2,1.45,1.45,0,0,1-1,.38,1.43,1.43,0,0,1-1-.38,1.5,1.5,0,0,1,0-2A1.42,1.42,0,0,1,97,156.41Z"/><path class="cls-2" d="M110.42,160.81h2.46l-4.37,11h-2.58l-4.4-11h2.58l3.12,8.95Z"/><path class="cls-2" d="M119.66,172a6,6,0,0,1-2.9-.68,4.75,4.75,0,0,1-2-2,7.17,7.17,0,0,1,0-6.14,4.8,4.8,0,0,1,1.92-2,5.77,5.77,0,0,1,2.8-.68,5.31,5.31,0,0,1,2.73.66,4.42,4.42,0,0,1,1.71,1.8,5.54,5.54,0,0,1,.6,2.6q0,.39,0,.75a4.84,4.84,0,0,1-.06.61h-8.85v-1.8h7.81l-1.16.35a3.25,3.25,0,0,0-.75-2.3,2.68,2.68,0,0,0-2-.8,3.08,3.08,0,0,0-1.65.44,2.76,2.76,0,0,0-1.07,1.31,5.36,5.36,0,0,0-.38,2.12,4.87,4.87,0,0,0,.4,2.09,2.87,2.87,0,0,0,1.12,1.3,3.28,3.28,0,0,0,1.72.44,3.37,3.37,0,0,0,1.78-.42,3.1,3.1,0,0,0,1.08-1.16l1.87.88a4.49,4.49,0,0,1-2.67,2.26A6.2,6.2,0,0,1,119.66,172Z"/><path class="cls-2" d="M134.27,160.81v1.85H126v-1.85Zm-3.79-3.23v10.93a1.53,1.53,0,0,0,.43,1.19,1.7,1.7,0,0,0,1.16.37,2.71,2.71,0,0,0,1-.18,3.08,3.08,0,0,0,.82-.52l.52,1.71a3.55,3.55,0,0,1-1.24.7,5,5,0,0,1-1.64.25,4.68,4.68,0,0,1-1.74-.31,2.52,2.52,0,0,1-1.23-1,3.46,3.46,0,0,1-.46-1.81V158.24Z"/><path class="cls-2" d="M141.44,172a6,6,0,0,1-2.9-.68,4.75,4.75,0,0,1-1.95-2,7.17,7.17,0,0,1,0-6.14,4.8,4.8,0,0,1,1.92-2,5.77,5.77,0,0,1,2.8-.68,5.31,5.31,0,0,1,2.73.66,4.42,4.42,0,0,1,1.71,1.8,5.54,5.54,0,0,1,.6,2.6q0,.39,0,.75a4.84,4.84,0,0,1-.06.61h-8.85v-1.8h7.81l-1.16.35a3.25,3.25,0,0,0-.75-2.3,2.68,2.68,0,0,0-2.05-.8,3.08,3.08,0,0,0-1.65.44,2.7,2.7,0,0,0-1.07,1.31,5.36,5.36,0,0,0-.38,2.12,4.87,4.87,0,0,0,.4,2.09,2.87,2.87,0,0,0,1.12,1.3,3.28,3.28,0,0,0,1.72.44,3.37,3.37,0,0,0,1.78-.42,3.1,3.1,0,0,0,1.08-1.16l1.87.88a4.49,4.49,0,0,1-2.67,2.26A6.2,6.2,0,0,1,141.44,172Z"/><path class="cls-2" d="M151.6,155.86v12.87a1.66,1.66,0,0,0,.29,1.12,1.23,1.23,0,0,0,1,.31,3.26,3.26,0,0,0,.67-.06,4.31,4.31,0,0,0,.69-.2l-.26,1.76a4,4,0,0,1-.86.27,4.57,4.57,0,0,1-1,.1,2.79,2.79,0,0,1-2.17-.76,3.41,3.41,0,0,1-.69-2.34V155.86Z"/><path class="cls-2" d="M156.18,171.81v-11h2.09l.11,1.85a3.6,3.6,0,0,1,1.53-1.56,4.25,4.25,0,0,1,2-.51,4.53,4.53,0,0,1,2.19.54,3.45,3.45,0,0,1,1.51,1.62,3.29,3.29,0,0,1,1-1.21,4,4,0,0,1,1.36-.72,5.11,5.11,0,0,1,1.47-.23,4.63,4.63,0,0,1,2,.44,3.55,3.55,0,0,1,1.49,1.34,4.25,4.25,0,0,1,.57,2.31v7.13h-2.35v-6.75a2.53,2.53,0,0,0-.64-1.94,2.27,2.27,0,0,0-1.63-.59,2.81,2.81,0,0,0-1.42.37,2.73,2.73,0,0,0-1,1.11,3.86,3.86,0,0,0-.4,1.82v6h-2.35v-6.75a2.53,2.53,0,0,0-.64-1.94,2.27,2.27,0,0,0-1.63-.59,2.72,2.72,0,0,0-1.32.35A2.83,2.83,0,0,0,159,164a3.92,3.92,0,0,0-.44,2v5.85Z"/><path class="cls-2" d="M181.9,172a6.07,6.07,0,0,1-2.91-.68,4.78,4.78,0,0,1-1.94-2,7.08,7.08,0,0,1,0-6.14,4.8,4.8,0,0,1,1.92-2,5.72,5.72,0,0,1,2.8-.68,5.24,5.24,0,0,1,2.72.66,4.45,4.45,0,0,1,1.72,1.8,5.53,5.53,0,0,1,.59,2.6c0,.26,0,.51,0,.75s0,.44-.06.61h-8.85v-1.8h7.81l-1.16.35a3.25,3.25,0,0,0-.75-2.3,2.68,2.68,0,0,0-2.05-.8,3.08,3.08,0,0,0-1.65.44,2.78,2.78,0,0,0-1.08,1.31,5.36,5.36,0,0,0-.37,2.12,4.87,4.87,0,0,0,.4,2.09,2.81,2.81,0,0,0,1.12,1.3,3.25,3.25,0,0,0,1.71.44,3.39,3.39,0,0,0,1.79-.42,3,3,0,0,0,1.07-1.16l1.87.88a4.43,4.43,0,0,1-2.66,2.26A6.2,6.2,0,0,1,181.9,172ZM182,155.4h2.37l-2.17,3.69H180.4Z"/><path class="cls-2" d="M189.77,171.81v-11h2.09l.16,2.86-.31-.31a4.08,4.08,0,0,1,.89-1.57,3.4,3.4,0,0,1,1.39-.91,5,5,0,0,1,1.7-.29,4.76,4.76,0,0,1,2.1.45,3.47,3.47,0,0,1,1.49,1.35,4.44,4.44,0,0,1,.55,2.29v7.13h-2.36v-6.4a3,3,0,0,0-.67-2.26,2.34,2.34,0,0,0-1.68-.62,3.11,3.11,0,0,0-1.41.34,2.74,2.74,0,0,0-1.13,1.09,3.82,3.82,0,0,0-.45,2v5.85Z"/><path class="cls-2" d="M212.7,160.81l-4.82,12.3a8,8,0,0,1-1,2,3.33,3.33,0,0,1-1.28,1.08,4.09,4.09,0,0,1-1.7.33,4.91,4.91,0,0,1-1.46-.21,4.45,4.45,0,0,1-1.18-.56l.57-1.83a3,3,0,0,0,.9.53,2.8,2.8,0,0,0,1,.18,1.9,1.9,0,0,0,1.07-.32,2.73,2.73,0,0,0,.84-1.27l.49-1.18-1.17-2.73-3.43-8.34h2.64l2.44,6.91.64,2.07.72-2.27,2.32-6.71Z"/><path class="cls-2" d="M219.47,172a6,6,0,0,1-2.9-.68,4.75,4.75,0,0,1-1.95-2,7.17,7.17,0,0,1,0-6.14,4.82,4.82,0,0,1,1.93-2,5.71,5.71,0,0,1,2.79-.68,5.31,5.31,0,0,1,2.73.66,4.45,4.45,0,0,1,1.72,1.8,5.65,5.65,0,0,1,.59,2.6c0,.26,0,.51,0,.75s0,.44-.07.61h-8.84v-1.8h7.81l-1.17.35a3.25,3.25,0,0,0-.75-2.3,2.66,2.66,0,0,0-2-.8,3.08,3.08,0,0,0-1.65.44,2.78,2.78,0,0,0-1.08,1.31,5.36,5.36,0,0,0-.37,2.12,5,5,0,0,0,.39,2.09,2.93,2.93,0,0,0,1.12,1.3,3.31,3.31,0,0,0,1.72.44,3.35,3.35,0,0,0,1.78-.42,3,3,0,0,0,1.08-1.16l1.87.88a4.43,4.43,0,0,1-1.07,1.37,4.49,4.49,0,0,1-1.59.89A6.26,6.26,0,0,1,219.47,172Z"/><path class="cls-2" d="M229.7,155.86v15.95h-2.35V155.86Zm8,4.95-4.9,5-.51.35-3.45,3.58,0-2.68,6.09-6.27Zm-4.62,3.7,4.89,7.3h-2.73l-3.92-6Z"/><path class="cls-2" d="M246.89,171.81v-11H249l.11,1.85a3.64,3.64,0,0,1,1.52-1.56,4.29,4.29,0,0,1,2-.51,4.55,4.55,0,0,1,2.19.54,3.45,3.45,0,0,1,1.51,1.62,3.27,3.27,0,0,1,1-1.21,4,4,0,0,1,1.37-.72,5.11,5.11,0,0,1,1.47-.23,4.56,4.56,0,0,1,2,.44,3.52,3.52,0,0,1,1.5,1.34,4.25,4.25,0,0,1,.57,2.31v7.13h-2.35v-6.75a2.57,2.57,0,0,0-.64-1.94,2.29,2.29,0,0,0-1.63-.59,2.79,2.79,0,0,0-1.42.37,2.82,2.82,0,0,0-1.05,1.11,3.86,3.86,0,0,0-.39,1.82v6h-2.36v-6.75a2.57,2.57,0,0,0-.63-1.94,2.29,2.29,0,0,0-1.63-.59,2.72,2.72,0,0,0-1.32.35,2.77,2.77,0,0,0-1.1,1.1,3.92,3.92,0,0,0-.44,2v5.85Z"/><path class="cls-2" d="M272.6,172a6,6,0,0,1-2.9-.68,4.75,4.75,0,0,1-1.95-2,7.17,7.17,0,0,1,0-6.14,4.82,4.82,0,0,1,1.93-2,5.71,5.71,0,0,1,2.79-.68,5.31,5.31,0,0,1,2.73.66,4.45,4.45,0,0,1,1.72,1.8,5.65,5.65,0,0,1,.59,2.6c0,.26,0,.51,0,.75s0,.44-.07.61h-8.84v-1.8h7.81l-1.17.35a3.25,3.25,0,0,0-.75-2.3,2.67,2.67,0,0,0-2-.8,3.08,3.08,0,0,0-1.65.44,2.78,2.78,0,0,0-1.08,1.31,5.36,5.36,0,0,0-.37,2.12,5,5,0,0,0,.39,2.09,2.87,2.87,0,0,0,1.12,1.3,3.31,3.31,0,0,0,1.72.44,3.35,3.35,0,0,0,1.78-.42,3,3,0,0,0,1.08-1.16l1.87.88a4.43,4.43,0,0,1-1.07,1.37,4.49,4.49,0,0,1-1.59.89A6.26,6.26,0,0,1,272.6,172Z"/><path class="cls-2" d="M286.68,170.09a4.08,4.08,0,0,1,2.6.74,2.45,2.45,0,0,1,.92,2,2.88,2.88,0,0,1-.72,2,4.52,4.52,0,0,1-2,1.27,8.62,8.62,0,0,1-2.85.44,7.56,7.56,0,0,1-4-.84,2.43,2.43,0,0,1-1.29-2.09,2.2,2.2,0,0,1,.62-1.54,3.08,3.08,0,0,1,2.13-.74l-.14.35a3,3,0,0,1-1.48-.72,1.89,1.89,0,0,1-.56-1.46,2.11,2.11,0,0,1,.72-1.61,3.44,3.44,0,0,1,2.05-.77l1.23.6h-.26a2.47,2.47,0,0,0-1.43.46,1.11,1.11,0,0,0-.42.84.91.91,0,0,0,.41.81,2.06,2.06,0,0,0,1.15.26Zm-2.11-9.5a6.27,6.27,0,0,1,2.52.46,3.8,3.8,0,0,1,1.65,1.3,3.6,3.6,0,0,1,0,3.92,3.78,3.78,0,0,1-1.65,1.29,6.26,6.26,0,0,1-2.52.47,5.36,5.36,0,0,1-3.51-1,3.35,3.35,0,0,1-1.22-2.69,3.28,3.28,0,0,1,.6-2,3.77,3.77,0,0,1,1.66-1.3A6.12,6.12,0,0,1,284.57,160.59Zm.09,14.19a7.3,7.3,0,0,0,2-.23,2.9,2.9,0,0,0,1.17-.6,1.08,1.08,0,0,0,.38-.8.94.94,0,0,0-.41-.81,2.49,2.49,0,0,0-1.46-.31h-3.54a1.64,1.64,0,0,0-1,.32,1,1,0,0,0-.42.87,1.27,1.27,0,0,0,.88,1.14A5.75,5.75,0,0,0,284.66,174.78Zm-.09-12.54a2.56,2.56,0,0,0-1.68.56,1.87,1.87,0,0,0-.67,1.51,1.9,1.9,0,0,0,.67,1.52,2.51,2.51,0,0,0,1.68.57,2.56,2.56,0,0,0,1.71-.57,1.93,1.93,0,0,0,.67-1.52,1.9,1.9,0,0,0-.67-1.51A2.61,2.61,0,0,0,284.57,162.24Zm5.59-3.74.37,1.85h-.26a2.51,2.51,0,0,0-1.61.45,1.61,1.61,0,0,0-.55,1.31l-1.14-.53a3.29,3.29,0,0,1,.37-1.58,2.71,2.71,0,0,1,1.07-1.08,3.06,3.06,0,0,1,1.57-.4h.18Z"/><path class="cls-2" d="M297.2,172a6.07,6.07,0,0,1-2.91-.68,4.78,4.78,0,0,1-1.94-2,7.08,7.08,0,0,1,0-6.14,4.8,4.8,0,0,1,1.92-2,5.74,5.74,0,0,1,2.8-.68,5.24,5.24,0,0,1,2.72.66,4.45,4.45,0,0,1,1.72,1.8,5.54,5.54,0,0,1,.6,2.6q0,.39,0,.75a4.84,4.84,0,0,1-.06.61h-8.85v-1.8H301l-1.16.35a3.25,3.25,0,0,0-.75-2.3,2.68,2.68,0,0,0-2.05-.8,3.08,3.08,0,0,0-1.65.44,2.78,2.78,0,0,0-1.08,1.31,5.36,5.36,0,0,0-.37,2.12,4.87,4.87,0,0,0,.4,2.09,2.81,2.81,0,0,0,1.12,1.3,3.25,3.25,0,0,0,1.71.44,3.39,3.39,0,0,0,1.79-.42,3.1,3.1,0,0,0,1.08-1.16l1.86.88a4.39,4.39,0,0,1-1.06,1.37,4.54,4.54,0,0,1-1.6.89A6.2,6.2,0,0,1,297.2,172Zm.11-16.63h2.38l-2.18,3.69H295.7Z"/><path class="cls-2" d="M305.07,171.81v-11h2l.22,2a3.38,3.38,0,0,1,1.31-1.64,3.89,3.89,0,0,1,2.14-.56,4.89,4.89,0,0,1,.66,0,2.24,2.24,0,0,1,.55.17l-.33,2.07a3.49,3.49,0,0,0-.54-.15,5.45,5.45,0,0,0-.8,0A2.75,2.75,0,0,0,309,163a2.85,2.85,0,0,0-1.09,1.09,3.57,3.57,0,0,0-.43,1.85v5.83Z"/><path class="cls-2" d="M320.63,160.81v1.85h-8.25v-1.85Zm-3.78-3.23v10.93a1.52,1.52,0,0,0,.42,1.19,1.7,1.7,0,0,0,1.16.37,2.71,2.71,0,0,0,1-.18,3.08,3.08,0,0,0,.82-.52l.52,1.71a3.55,3.55,0,0,1-1.24.7,5,5,0,0,1-1.64.25,4.59,4.59,0,0,1-1.73-.31,2.5,2.5,0,0,1-1.24-1,3.56,3.56,0,0,1-.46-1.81V158.24Z"/><path class="cls-2" d="M327.8,172a6,6,0,0,1-2.9-.68,4.75,4.75,0,0,1-1.95-2,7.17,7.17,0,0,1,0-6.14,4.8,4.8,0,0,1,1.92-2,5.77,5.77,0,0,1,2.8-.68,5.31,5.31,0,0,1,2.73.66,4.42,4.42,0,0,1,1.71,1.8,5.54,5.54,0,0,1,.6,2.6c0,.26,0,.51,0,.75s0,.44-.07.61h-8.84v-1.8h7.81l-1.17.35a3.25,3.25,0,0,0-.75-2.3,2.68,2.68,0,0,0-2.05-.8,3.08,3.08,0,0,0-1.65.44,2.82,2.82,0,0,0-1.07,1.31,5.36,5.36,0,0,0-.38,2.12,4.87,4.87,0,0,0,.4,2.09,2.87,2.87,0,0,0,1.12,1.3,3.31,3.31,0,0,0,1.72.44,3.37,3.37,0,0,0,1.78-.42,3.1,3.1,0,0,0,1.08-1.16l1.87.88a4.49,4.49,0,0,1-2.67,2.26A6.2,6.2,0,0,1,327.8,172Zm.11-16.63h2.38l-2.18,3.69H326.3Z"/><path class="cls-2" d="M339.86,172a7,7,0,0,1-3-.64,5.08,5.08,0,0,1-2.15-1.8l1.62-1.41a3.72,3.72,0,0,0,1.4,1.44,4.23,4.23,0,0,0,2.19.54,3.2,3.2,0,0,0,1.61-.35,1.13,1.13,0,0,0,.32-1.73,2,2,0,0,0-1.05-.49l-2.31-.49A4.7,4.7,0,0,1,336,166a2.76,2.76,0,0,1-.75-2,2.9,2.9,0,0,1,.53-1.67,3.77,3.77,0,0,1,1.55-1.25,5.93,5.93,0,0,1,2.46-.47,6.21,6.21,0,0,1,2.81.58,4.23,4.23,0,0,1,1.79,1.66l-1.63,1.37a2.77,2.77,0,0,0-1.24-1.31,3.51,3.51,0,0,0-1.69-.43,3.63,3.63,0,0,0-1.21.18,1.64,1.64,0,0,0-.77.48,1.07,1.07,0,0,0-.26.73,1.06,1.06,0,0,0,.33.77,2.37,2.37,0,0,0,1.18.5l2.51.53a4,4,0,0,1,2.24,1,2.65,2.65,0,0,1,.64,1.8,3.21,3.21,0,0,1-.55,1.86,3.49,3.49,0,0,1-1.58,1.24A6.32,6.32,0,0,1,339.86,172Z"/><path class="cls-2" d="M352.13,172a6,6,0,0,1-2.9-.68,4.75,4.75,0,0,1-2-2,7.17,7.17,0,0,1,0-6.14,4.76,4.76,0,0,1,1.93-2,5.71,5.71,0,0,1,2.79-.68,5.31,5.31,0,0,1,2.73.66,4.36,4.36,0,0,1,1.71,1.8,5.54,5.54,0,0,1,.6,2.6c0,.26,0,.51,0,.75s0,.44-.07.61h-8.84v-1.8h7.81l-1.17.35a3.25,3.25,0,0,0-.75-2.3,2.67,2.67,0,0,0-2-.8,3.08,3.08,0,0,0-1.65.44,2.78,2.78,0,0,0-1.08,1.31,5.36,5.36,0,0,0-.37,2.12,5,5,0,0,0,.39,2.09,2.87,2.87,0,0,0,1.12,1.3,3.31,3.31,0,0,0,1.72.44,3.35,3.35,0,0,0,1.78-.42,3.1,3.1,0,0,0,1.08-1.16l1.87.88a4.51,4.51,0,0,1-2.66,2.26A6.26,6.26,0,0,1,352.13,172Z"/><text class="cls-3" transform="translate(197.64 302.99)">Ötletelés</text><text class="cls-7" transform="translate(109.28 346.29)"><tspan class="cls-8">M</tspan><tspan x="19.01" y="0">egoldá</tspan><tspan class="cls-9" x="90" y="0">s</tspan><tspan x="101.62" y="0">o</tspan><tspan class="cls-10" x="114.82" y="0">k</tspan><tspan x="127.2" y="0"> </tspan><tspan class="cls-11" x="134.35" y="0">k</tspan><tspan x="146.72" y="0">e</tspan><tspan class="cls-12" x="159.43" y="0">r</tspan><tspan x="168.25" y="0">e</tspan><tspan class="cls-9" x="180.97" y="0">s</tspan><tspan x="192.59" y="0">é</tspan><tspan class="cls-9" x="205.3" y="0">s</tspan><tspan x="216.92" y="0">e </tspan><tspan class="cls-13" x="236.78" y="0">a</tspan><tspan x="248.91" y="0"> </tspan><tspan x="-51.61" y="26.4">megh</tspan><tspan class="cls-14" x="7.48" y="26.4">a</tspan><tspan class="cls-15" x="19.58" y="26.4">t</tspan><tspan x="28.97" y="26.4">á</tspan><tspan class="cls-12" x="41.51" y="26.4">r</tspan><tspan class="cls-8" x="50.34" y="26.4">ozo</tspan><tspan class="cls-16" x="87.91" y="26.4">t</tspan><tspan x="96.01" y="26.4">t p</tspan><tspan class="cls-12" x="126.28" y="26.4">r</tspan><tspan x="135.1" y="26.4">oblémák</tspan><tspan class="cls-17" x="227.92" y="26.4">r</tspan><tspan class="cls-13" x="236.79" y="26.4">a</tspan></text><text class="cls-3" transform="translate(171.39 503.87)">Prototípus</text><text class="cls-7" transform="translate(24.05 547.17)">P<tspan class="cls-12" x="13.79" y="0">r</tspan><tspan class="cls-8" x="22.62" y="0">o</tspan><tspan x="35.66" y="0">t</tspan><tspan class="cls-8" x="44.99" y="0">o</tspan><tspan x="58.04" y="0">típu</tspan><tspan class="cls-9" x="100.78" y="0">s</tspan><tspan class="cls-18" x="112.4" y="0">o</tspan><tspan class="cls-14" x="125.6" y="0">k</tspan><tspan class="cls-19" x="137.98" y="0"> </tspan><tspan x="144.78" y="0">ter</tspan><tspan class="cls-20" x="175.93" y="0">v</tspan><tspan x="187.57" y="0">e</tspan><tspan class="cls-8" x="200.29" y="0">z</tspan><tspan x="211.77" y="0">é</tspan><tspan class="cls-9" x="224.49" y="0">s</tspan><tspan x="236.1" y="0">e </tspan><tspan class="cls-11" x="255.97" y="0">k</tspan><tspan x="268.33" y="0">e</tspan><tspan class="cls-8" x="281.05" y="0">z</tspan><tspan x="292.53" y="0">d</tspan><tspan class="cls-21" x="306.33" y="0">e</tspan><tspan x="318.78" y="0">ti </tspan><tspan class="cls-11" x="52.85" y="26.4">k</tspan><tspan x="65.21" y="26.4">oncepcióin</tspan><tspan class="cls-14" x="182.14" y="26.4">k</tspan><tspan class="cls-22" x="194.52" y="26.4"> </tspan><tspan x="201.32" y="26.4">tesztelé</tspan><tspan class="cls-9" x="288.26" y="26.4">s</tspan><tspan x="299.88" y="26.4">é</tspan><tspan class="cls-12" x="312.6" y="26.4">r</tspan><tspan x="321.42" y="26.4">e</tspan></text><text class="cls-3" transform="translate(150.7 710)"><tspan class="cls-23">V</tspan><tspan x="22.44" y="0">égrehaj</tspan><tspan class="cls-6" x="151.86" y="0">t</tspan><tspan x="168.07" y="0">ás</tspan></text><path class="cls-2" d="M99.2,753.3H96.71l-1.38-3.81h-6.1l-1.38,3.81H85.43l5.48-14.52h2.81Zm-9.31-5.72h4.78l-2.38-6.78Z"/><path class="cls-2" d="M100.74,753.3v-1.63l5.32-6.2,1.35-1.37-1.92,0h-4.71V742.3H110v1.63l-5.32,6.2-1.32,1.37,2.09,0h4.75v1.85Z"/><path class="cls-2" d="M125.07,753.52a6,6,0,0,1-2.9-.68,4.75,4.75,0,0,1-2-2,7.17,7.17,0,0,1,0-6.14,4.76,4.76,0,0,1,1.93-2,5.71,5.71,0,0,1,2.79-.68,5.31,5.31,0,0,1,2.73.66,4.36,4.36,0,0,1,1.71,1.8,5.54,5.54,0,0,1,.6,2.6c0,.26,0,.51,0,.75s0,.44-.07.61h-8.84v-1.8h7.81l-1.17.35a3.25,3.25,0,0,0-.75-2.3,2.67,2.67,0,0,0-2-.8,3.06,3.06,0,0,0-1.65.44,2.78,2.78,0,0,0-1.08,1.31,5.36,5.36,0,0,0-.38,2.12,5,5,0,0,0,.4,2.09,2.87,2.87,0,0,0,1.12,1.3,3.31,3.31,0,0,0,1.72.44,3.35,3.35,0,0,0,1.78-.42,3.1,3.1,0,0,0,1.08-1.16l1.87.88a4.51,4.51,0,0,1-2.66,2.26A6.26,6.26,0,0,1,125.07,753.52Zm.11-16.63h2.38l-2.18,3.69h-1.8Z"/><path class="cls-2" d="M133,753.3v-11h2l.22,2a3.38,3.38,0,0,1,1.31-1.64,3.89,3.89,0,0,1,2.14-.56,3.68,3.68,0,0,1,.66.06,1.8,1.8,0,0,1,.55.16l-.33,2.07a3.49,3.49,0,0,0-.54-.15,5.35,5.35,0,0,0-.8-.05,2.78,2.78,0,0,0-1.34.36,2.92,2.92,0,0,0-1.09,1.09,3.57,3.57,0,0,0-.43,1.85v5.83Z"/><path class="cls-2" d="M149.29,742.3h2.47l-4.38,11h-2.57l-4.4-11H143l3.12,9Z"/><path class="cls-2" d="M158.53,753.52a6,6,0,0,1-2.9-.68,4.75,4.75,0,0,1-1.95-2,7.17,7.17,0,0,1,0-6.14,4.82,4.82,0,0,1,1.93-2,5.71,5.71,0,0,1,2.79-.68,5.31,5.31,0,0,1,2.73.66,4.45,4.45,0,0,1,1.72,1.8,5.65,5.65,0,0,1,.59,2.6c0,.26,0,.51,0,.75s0,.44-.07.61h-8.84v-1.8h7.81l-1.17.35a3.25,3.25,0,0,0-.75-2.3,2.67,2.67,0,0,0-2-.8,3.08,3.08,0,0,0-1.65.44,2.78,2.78,0,0,0-1.08,1.31,5.36,5.36,0,0,0-.37,2.12,5,5,0,0,0,.39,2.09,2.93,2.93,0,0,0,1.12,1.3,3.31,3.31,0,0,0,1.72.44,3.35,3.35,0,0,0,1.78-.42,3,3,0,0,0,1.08-1.16l1.87.88a4.43,4.43,0,0,1-1.07,1.37,4.58,4.58,0,0,1-1.59.89A6.26,6.26,0,0,1,158.53,753.52Zm.11-16.63H161l-2.18,3.69H157Z"/><path class="cls-2" d="M166.41,753.3v-11h2.09l.15,2.86-.3-.31a4.08,4.08,0,0,1,.89-1.57,3.37,3.37,0,0,1,1.38-.91,5.12,5.12,0,0,1,1.71-.29,4.76,4.76,0,0,1,2.1.45,3.44,3.44,0,0,1,1.48,1.35,4.34,4.34,0,0,1,.55,2.29v7.13h-2.35v-6.4a3,3,0,0,0-.67-2.26,2.36,2.36,0,0,0-1.68-.62,3.05,3.05,0,0,0-1.41.34,2.76,2.76,0,0,0-1.14,1.09,3.82,3.82,0,0,0-.45,2v5.85Z"/><path class="cls-2" d="M189.33,742.3l-4.81,12.3a8.36,8.36,0,0,1-1.05,2,3.28,3.28,0,0,1-1.29,1.08,4,4,0,0,1-1.69.33,4.81,4.81,0,0,1-1.46-.21,4.45,4.45,0,0,1-1.18-.56l.57-1.83a3,3,0,0,0,.89.53,2.9,2.9,0,0,0,1,.18,1.86,1.86,0,0,0,1.06-.32,2.66,2.66,0,0,0,.85-1.27l.48-1.18-1.16-2.73-3.43-8.34h2.64l2.44,6.91.64,2.07.72-2.27,2.31-6.71Z"/><path class="cls-2" d="M196.11,753.52a6,6,0,0,1-2.9-.68,4.75,4.75,0,0,1-2-2,7.17,7.17,0,0,1,0-6.14,4.8,4.8,0,0,1,1.92-2,5.77,5.77,0,0,1,2.8-.68,5.31,5.31,0,0,1,2.73.66,4.42,4.42,0,0,1,1.71,1.8,5.54,5.54,0,0,1,.6,2.6q0,.39,0,.75a4.84,4.84,0,0,1-.06.61h-8.85v-1.8h7.81l-1.16.35a3.25,3.25,0,0,0-.75-2.3,2.68,2.68,0,0,0-2-.8,3.08,3.08,0,0,0-1.65.44,2.7,2.7,0,0,0-1.07,1.31,5.36,5.36,0,0,0-.38,2.12,4.87,4.87,0,0,0,.4,2.09,2.87,2.87,0,0,0,1.12,1.3,3.28,3.28,0,0,0,1.72.44,3.37,3.37,0,0,0,1.78-.42,3.1,3.1,0,0,0,1.08-1.16l1.87.88a4.49,4.49,0,0,1-2.67,2.26A6.2,6.2,0,0,1,196.11,753.52Z"/><path class="cls-2" d="M208.17,753.52a7,7,0,0,1-3-.64,5.08,5.08,0,0,1-2.15-1.8l1.62-1.41a3.72,3.72,0,0,0,1.4,1.44,4.23,4.23,0,0,0,2.19.54,3.23,3.23,0,0,0,1.61-.35,1.12,1.12,0,0,0,.59-1,1.07,1.07,0,0,0-.28-.74,1.9,1.9,0,0,0-1-.49l-2.31-.49a4.7,4.7,0,0,1-2.51-1.13,2.76,2.76,0,0,1-.75-2,2.9,2.9,0,0,1,.53-1.67,3.7,3.7,0,0,1,1.55-1.25,5.9,5.9,0,0,1,2.46-.47,6.21,6.21,0,0,1,2.81.58,4.15,4.15,0,0,1,1.78,1.66L211,745.69a2.77,2.77,0,0,0-1.24-1.31,3.51,3.51,0,0,0-1.69-.43,3.63,3.63,0,0,0-1.21.18,1.64,1.64,0,0,0-.77.48,1.07,1.07,0,0,0-.26.73,1.06,1.06,0,0,0,.33.77,2.37,2.37,0,0,0,1.18.5l2.51.53a3.91,3.91,0,0,1,2.23,1,2.61,2.61,0,0,1,.65,1.8,3.21,3.21,0,0,1-.55,1.86,3.49,3.49,0,0,1-1.58,1.24A6.32,6.32,0,0,1,208.17,753.52Z"/><path class="cls-2" d="M217.16,736.89h2.38l-2.18,3.69h-1.8Zm.82,5.41v11h-2.36v-11Z"/><path class="cls-2" d="M228.65,742.3v1.85H220.4V742.3Zm-3.79-3.23V750a1.53,1.53,0,0,0,.43,1.19,1.7,1.7,0,0,0,1.16.37,2.71,2.71,0,0,0,1-.18,3.08,3.08,0,0,0,.82-.52l.52,1.71a3.55,3.55,0,0,1-1.24.7,5.27,5.27,0,0,1-1.64.25,4.68,4.68,0,0,1-1.74-.31,2.52,2.52,0,0,1-1.23-1,3.46,3.46,0,0,1-.46-1.81V739.73Z"/><path class="cls-2" d="M235.82,753.52a6,6,0,0,1-2.9-.68,4.75,4.75,0,0,1-1.95-2,7.17,7.17,0,0,1,0-6.14,4.8,4.8,0,0,1,1.92-2,5.74,5.74,0,0,1,2.8-.68,5.31,5.31,0,0,1,2.73.66,4.42,4.42,0,0,1,1.71,1.8,5.54,5.54,0,0,1,.6,2.6q0,.39,0,.75a4.84,4.84,0,0,1-.06.61h-8.85v-1.8h7.81l-1.16.35a3.25,3.25,0,0,0-.75-2.3,2.68,2.68,0,0,0-2.05-.8,3.08,3.08,0,0,0-1.65.44,2.7,2.7,0,0,0-1.07,1.31,5.36,5.36,0,0,0-.38,2.12,4.87,4.87,0,0,0,.4,2.09,2.87,2.87,0,0,0,1.12,1.3,3.26,3.26,0,0,0,1.72.44,3.37,3.37,0,0,0,1.78-.42,3.1,3.1,0,0,0,1.08-1.16l1.87.88a4.49,4.49,0,0,1-2.67,2.26A6.2,6.2,0,0,1,235.82,753.52Z"/><path class="cls-2" d="M250.43,742.3v1.85h-8.25V742.3Zm-3.79-3.23V750a1.53,1.53,0,0,0,.43,1.19,1.7,1.7,0,0,0,1.16.37,2.71,2.71,0,0,0,1-.18,3.24,3.24,0,0,0,.82-.52l.52,1.71a3.55,3.55,0,0,1-1.24.7,5.27,5.27,0,0,1-1.64.25,4.68,4.68,0,0,1-1.74-.31,2.48,2.48,0,0,1-1.23-1,3.46,3.46,0,0,1-.46-1.81V739.73Z"/><path class="cls-2" d="M258.52,742.3v1.85h-8.25V742.3Zm-3.78-3.23V750a1.49,1.49,0,0,0,.43,1.19,1.67,1.67,0,0,0,1.15.37,2.76,2.76,0,0,0,1-.18,3.19,3.19,0,0,0,.81-.52l.53,1.71a3.65,3.65,0,0,1-1.24.7,5.32,5.32,0,0,1-1.64.25,4.68,4.68,0,0,1-1.74-.31,2.44,2.44,0,0,1-1.23-1,3.37,3.37,0,0,1-.46-1.81V739.73Z"/><path class="cls-2" d="M274.34,742.3v1.85h-7.92V742.3Zm-2-5.1a4.8,4.8,0,0,1,1.24.14,2,2,0,0,1,.85.38l-.44,1.7a1.93,1.93,0,0,0-.55-.23,3,3,0,0,0-.71-.08,2.2,2.2,0,0,0-1.42.42,1.66,1.66,0,0,0-.51,1.36v1.61l.06.59V753.3h-2.35V740.72a4.14,4.14,0,0,1,.25-1.5,2.79,2.79,0,0,1,.76-1.11,3.38,3.38,0,0,1,1.22-.68A5,5,0,0,1,272.32,737.2Z"/><path class="cls-2" d="M280.37,753.52a4.85,4.85,0,0,1-2-.4,3.15,3.15,0,0,1-1.46-1.27,4.24,4.24,0,0,1-.56-2.29V742.3h2.36V749a2.63,2.63,0,0,0,.64,2,2.57,2.57,0,0,0,1.78.56,3.25,3.25,0,0,0,1.07-.18,2.75,2.75,0,0,0,.93-.6,2.67,2.67,0,0,0,.65-1,4.55,4.55,0,0,0,.23-1.5v-6h2.36v11h-2.07l-.11-1.78a3.64,3.64,0,0,1-1.54,1.52A5.12,5.12,0,0,1,280.37,753.52Z"/><path class="cls-2" d="M290.05,753.3v-11h2.09l.15,2.86-.3-.31a4.08,4.08,0,0,1,.89-1.57,3.44,3.44,0,0,1,1.38-.91,5.12,5.12,0,0,1,1.71-.29,4.82,4.82,0,0,1,2.1.45,3.44,3.44,0,0,1,1.48,1.35,4.34,4.34,0,0,1,.55,2.29v7.13h-2.35v-6.4a3,3,0,0,0-.67-2.26,2.36,2.36,0,0,0-1.68-.62,3.05,3.05,0,0,0-1.41.34,2.7,2.7,0,0,0-1.14,1.09,3.82,3.82,0,0,0-.45,2v5.85Z"/><path class="cls-2" d="M306,737.35V753.3h-2.35V737.35Zm8,4.95-4.9,5-.51.35-3.45,3.58,0-2.68,6.1-6.27Zm-4.62,3.7,4.89,7.3h-2.73l-3.92-6Z"/><path class="cls-2" d="M320.78,742.08a5.9,5.9,0,0,1,2.26.39,4.16,4.16,0,0,1,1.57,1.08,4.81,4.81,0,0,1,1,1.61l-2.22.88a3.1,3.1,0,0,0-.92-1.55,2.4,2.4,0,0,0-1.64-.54,3.07,3.07,0,0,0-1.69.45,2.86,2.86,0,0,0-1.07,1.31,5.47,5.47,0,0,0-.36,2.11,5.39,5.39,0,0,0,.37,2.09,2.8,2.8,0,0,0,1.08,1.3,3.13,3.13,0,0,0,1.67.44,3,3,0,0,0,1.3-.25,2.43,2.43,0,0,0,.92-.73,2.73,2.73,0,0,0,.49-1.15l2.13.72a4.63,4.63,0,0,1-.95,1.73,4.32,4.32,0,0,1-1.62,1.14,5.67,5.67,0,0,1-2.22.41,6,6,0,0,1-2.88-.68,4.75,4.75,0,0,1-2-2,7.17,7.17,0,0,1,0-6.14,4.78,4.78,0,0,1,1.94-2A5.8,5.8,0,0,1,320.78,742.08Z"/><path class="cls-2" d="M329.58,740.45a1.66,1.66,0,0,1-1.17-.38A1.4,1.4,0,0,1,328,739a1.37,1.37,0,0,1,.41-1.08,2,2,0,0,1,2.33,0,1.4,1.4,0,0,1,.4,1.08,1.43,1.43,0,0,1-.4,1.09A1.65,1.65,0,0,1,329.58,740.45Zm1.17,1.85v11h-2.36v-11Z"/><path class="cls-2" d="M339.2,742.08a5.78,5.78,0,0,1,2.83.68,4.76,4.76,0,0,1,1.93,2,7.17,7.17,0,0,1,0,6.14,4.76,4.76,0,0,1-1.93,2,6.25,6.25,0,0,1-5.67,0,4.91,4.91,0,0,1-1.94-2,7.08,7.08,0,0,1,0-6.14,4.91,4.91,0,0,1,1.94-2A5.82,5.82,0,0,1,339.2,742.08Zm0,1.85a3.07,3.07,0,0,0-1.69.45,2.84,2.84,0,0,0-1.06,1.31,6,6,0,0,0,0,4.21,2.82,2.82,0,0,0,1.06,1.32,3.07,3.07,0,0,0,1.69.45,3,3,0,0,0,1.67-.45,2.86,2.86,0,0,0,1.05-1.32,6,6,0,0,0,0-4.21,2.88,2.88,0,0,0-1.05-1.31A3,3,0,0,0,339.2,743.93Zm.35-7h2.37l-2.17,3.69h-1.81Z"/><path class="cls-2" d="M350,737.35V753.3h-2.36V737.35Zm8,4.95-4.91,5-.51.35-3.45,3.58,0-2.68,6.09-6.27Zm-4.62,3.7,4.88,7.3h-2.73l-3.91-6Z"/><path class="cls-2" d="M250.19,768.7v1.85h-7.92V768.7Zm-2-5.1a4.8,4.8,0,0,1,1.24.14,2,2,0,0,1,.85.38l-.44,1.7a1.82,1.82,0,0,0-.55-.23,2.93,2.93,0,0,0-.7-.08,2.18,2.18,0,0,0-1.42.42,1.63,1.63,0,0,0-.52,1.36v1.61l.07.59V779.7h-2.36V767.12a4.14,4.14,0,0,1,.26-1.5,2.69,2.69,0,0,1,.76-1.11,3.22,3.22,0,0,1,1.22-.68A4.92,4.92,0,0,1,248.16,763.6Z"/><path class="cls-2" d="M256.9,779.92a6,6,0,0,1-2.91-.68,4.81,4.81,0,0,1-2-2,7.17,7.17,0,0,1,0-6.14,4.88,4.88,0,0,1,1.93-2,5.71,5.71,0,0,1,2.79-.68,5.31,5.31,0,0,1,2.73.66,4.45,4.45,0,0,1,1.72,1.8,5.65,5.65,0,0,1,.59,2.6c0,.26,0,.51,0,.75s0,.44-.07.61h-8.84v-1.8h7.81l-1.17.35a3.29,3.29,0,0,0-.74-2.3,2.7,2.7,0,0,0-2-.8,3.08,3.08,0,0,0-1.65.44A2.78,2.78,0,0,0,254,772.1a5.36,5.36,0,0,0-.37,2.12,5,5,0,0,0,.39,2.09,2.93,2.93,0,0,0,1.12,1.3,3.31,3.31,0,0,0,1.72.44,3.35,3.35,0,0,0,1.78-.42,3,3,0,0,0,1.08-1.16l1.87.88a4.43,4.43,0,0,1-1.07,1.37,4.49,4.49,0,0,1-1.59.89A6.25,6.25,0,0,1,256.9,779.92Z"/><path class="cls-2" d="M267.1,768.7v12a4.21,4.21,0,0,1-.51,2.23,3,3,0,0,1-1.35,1.18,4.62,4.62,0,0,1-3.11.15,3.22,3.22,0,0,1-1-.53l.39-1.89a2.69,2.69,0,0,0,.74.44,2.49,2.49,0,0,0,1,.18,1.49,1.49,0,0,0,1.13-.45,2.17,2.17,0,0,0,.43-1.53V768.7Zm-1.16-1.85a1.67,1.67,0,0,1-1.18-.38,1.44,1.44,0,0,1-.41-1.09,1.4,1.4,0,0,1,.41-1.08,1.67,1.67,0,0,1,1.18-.37,1.62,1.62,0,0,1,1.15.37,1.4,1.4,0,0,1,.41,1.08,1.44,1.44,0,0,1-.41,1.09A1.63,1.63,0,0,1,265.94,766.85Z"/><path class="cls-2" d="M273.06,763.75v12.87a1.66,1.66,0,0,0,.29,1.12,1.23,1.23,0,0,0,.95.31A3.26,3.26,0,0,0,275,778a4.31,4.31,0,0,0,.69-.2l-.26,1.76a4,4,0,0,1-.86.27,4.57,4.57,0,0,1-1,.1,2.81,2.81,0,0,1-2.17-.76,3.41,3.41,0,0,1-.69-2.34V763.75Z"/><path class="cls-2" d="M282.48,779.92a6,6,0,0,1-2.9-.68,4.75,4.75,0,0,1-1.95-2,7.17,7.17,0,0,1,0-6.14,4.8,4.8,0,0,1,1.92-2,5.77,5.77,0,0,1,2.8-.68,5.31,5.31,0,0,1,2.73.66,4.42,4.42,0,0,1,1.71,1.8,5.54,5.54,0,0,1,.6,2.6q0,.39,0,.75a4.84,4.84,0,0,1-.06.61h-8.85v-1.8h7.82l-1.17.35a3.25,3.25,0,0,0-.75-2.3,2.68,2.68,0,0,0-2.05-.8,3.08,3.08,0,0,0-1.65.44,2.82,2.82,0,0,0-1.07,1.31,5.36,5.36,0,0,0-.38,2.12,4.87,4.87,0,0,0,.4,2.09,2.87,2.87,0,0,0,1.12,1.3,3.28,3.28,0,0,0,1.72.44,3.37,3.37,0,0,0,1.78-.42,3.1,3.1,0,0,0,1.08-1.16l1.87.88a4.49,4.49,0,0,1-2.67,2.26A6.2,6.2,0,0,1,282.48,779.92Z"/><path class="cls-2" d="M294.54,779.92a7,7,0,0,1-3-.64,5.08,5.08,0,0,1-2.15-1.8l1.62-1.41a3.72,3.72,0,0,0,1.4,1.44,4.23,4.23,0,0,0,2.19.54,3.2,3.2,0,0,0,1.61-.35,1.13,1.13,0,0,0,.32-1.73,2,2,0,0,0-1.05-.49l-2.31-.49a4.7,4.7,0,0,1-2.51-1.13,2.76,2.76,0,0,1-.75-2,2.9,2.9,0,0,1,.53-1.67A3.77,3.77,0,0,1,292,769a5.93,5.93,0,0,1,2.46-.47,6.21,6.21,0,0,1,2.81.58,4.23,4.23,0,0,1,1.79,1.66l-1.63,1.37a2.73,2.73,0,0,0-1.24-1.31,3.51,3.51,0,0,0-1.69-.43,3.63,3.63,0,0,0-1.21.18,1.64,1.64,0,0,0-.77.48,1.07,1.07,0,0,0-.26.73,1.06,1.06,0,0,0,.33.77,2.37,2.37,0,0,0,1.18.5l2.51.53a4,4,0,0,1,2.24,1,2.65,2.65,0,0,1,.64,1.8,3.21,3.21,0,0,1-.55,1.86,3.49,3.49,0,0,1-1.58,1.24A6.32,6.32,0,0,1,294.54,779.92Z"/><path class="cls-2" d="M301.29,779.7v-1.63l5.32-6.2L308,770.5l-1.92,0h-4.71V768.7h9.22v1.63l-5.32,6.2-1.32,1.37,2.09,0h4.75v1.85Z"/><path class="cls-2" d="M320.63,768.7v1.85h-8.25V768.7Zm-3.79-3.23V776.4a1.53,1.53,0,0,0,.43,1.19,1.7,1.7,0,0,0,1.16.37,2.53,2.53,0,0,0,1-.19,2.81,2.81,0,0,0,.82-.51l.52,1.71a3.55,3.55,0,0,1-1.24.7,5,5,0,0,1-1.64.25,4.68,4.68,0,0,1-1.74-.31,2.52,2.52,0,0,1-1.23-1,3.46,3.46,0,0,1-.46-1.81V766.13Z"/><path class="cls-2" d="M327.8,779.92a6,6,0,0,1-2.9-.68,4.75,4.75,0,0,1-1.95-2,7.17,7.17,0,0,1,0-6.14,4.8,4.8,0,0,1,1.92-2,5.74,5.74,0,0,1,2.8-.68,5.31,5.31,0,0,1,2.73.66,4.42,4.42,0,0,1,1.71,1.8,5.54,5.54,0,0,1,.6,2.6q0,.39,0,.75a4.84,4.84,0,0,1-.06.61h-8.85v-1.8h7.81l-1.16.35a3.25,3.25,0,0,0-.75-2.3,2.68,2.68,0,0,0-2.05-.8,3.08,3.08,0,0,0-1.65.44,2.76,2.76,0,0,0-1.07,1.31,5.36,5.36,0,0,0-.38,2.12,4.87,4.87,0,0,0,.4,2.09,2.87,2.87,0,0,0,1.12,1.3,3.28,3.28,0,0,0,1.72.44,3.37,3.37,0,0,0,1.78-.42,3.1,3.1,0,0,0,1.08-1.16l1.87.88a4.49,4.49,0,0,1-2.67,2.26A6.2,6.2,0,0,1,327.8,779.92Zm.11-16.63h2.38L328.11,767H326.3Z"/><path class="cls-2" d="M339.86,779.92a7,7,0,0,1-3-.64,5.08,5.08,0,0,1-2.15-1.8l1.62-1.41a3.72,3.72,0,0,0,1.4,1.44,4.23,4.23,0,0,0,2.19.54,3.23,3.23,0,0,0,1.61-.35,1.12,1.12,0,0,0,.59-1,1.07,1.07,0,0,0-.28-.74,1.9,1.9,0,0,0-1-.49l-2.31-.49a4.7,4.7,0,0,1-2.51-1.13,2.76,2.76,0,0,1-.75-2,2.9,2.9,0,0,1,.53-1.67,3.7,3.7,0,0,1,1.55-1.25,5.9,5.9,0,0,1,2.46-.47,6.21,6.21,0,0,1,2.81.58,4.15,4.15,0,0,1,1.78,1.66l-1.62,1.37a2.73,2.73,0,0,0-1.24-1.31,3.51,3.51,0,0,0-1.69-.43,3.63,3.63,0,0,0-1.21.18,1.64,1.64,0,0,0-.77.48,1.07,1.07,0,0,0-.26.73,1.06,1.06,0,0,0,.33.77,2.37,2.37,0,0,0,1.18.5l2.51.53a3.91,3.91,0,0,1,2.23,1,2.61,2.61,0,0,1,.65,1.8,3.21,3.21,0,0,1-.55,1.86,3.49,3.49,0,0,1-1.58,1.24A6.32,6.32,0,0,1,339.86,779.92Z"/><path class="cls-2" d="M352.13,779.92a6,6,0,0,1-2.9-.68,4.75,4.75,0,0,1-2-2,7.17,7.17,0,0,1,0-6.14,4.76,4.76,0,0,1,1.93-2,5.71,5.71,0,0,1,2.79-.68,5.31,5.31,0,0,1,2.73.66,4.36,4.36,0,0,1,1.71,1.8,5.54,5.54,0,0,1,.6,2.6c0,.26,0,.51,0,.75s0,.44-.07.61h-8.84v-1.8h7.81l-1.17.35a3.25,3.25,0,0,0-.75-2.3,2.67,2.67,0,0,0-2-.8,3.08,3.08,0,0,0-1.65.44,2.78,2.78,0,0,0-1.08,1.31,5.36,5.36,0,0,0-.38,2.12,5,5,0,0,0,.4,2.09,2.87,2.87,0,0,0,1.12,1.3,3.31,3.31,0,0,0,1.72.44,3.35,3.35,0,0,0,1.78-.42,3.1,3.1,0,0,0,1.08-1.16l1.87.88a4.51,4.51,0,0,1-2.66,2.26A6.31,6.31,0,0,1,352.13,779.92Z"/><text class="cls-3" transform="translate(213.56 916.13)"><tspan class="cls-4">F</tspan><tspan class="cls-24" x="19.88" y="0">e</tspan><tspan x="39.9" y="0">jlődés</tspan></text><text class="cls-7" transform="translate(122.5 959.43)"><tspan class="cls-25">A</tspan><tspan class="cls-19" x="13.86" y="0"> </tspan><tspan x="20.66" y="0">termé</tspan><tspan class="cls-14" x="85.4" y="0">k</tspan><tspan class="cls-22" x="97.79" y="0"> </tspan><tspan class="cls-17" x="104.59" y="0">f</tspan><tspan x="113.15" y="0">en</tspan><tspan class="cls-26" x="139.48" y="0">n</tspan><tspan class="cls-15" x="152.97" y="0">t</tspan><tspan x="162.36" y="0">a</tspan><tspan class="cls-27" x="174.9" y="0">r</tspan><tspan class="cls-15" x="183.46" y="0">t</tspan><tspan x="192.85" y="0">ás</tspan><tspan class="cls-28" x="217.03" y="0">a</tspan><tspan x="229.68" y="0">, </tspan><tspan x="35.97" y="26.4">mé</tspan><tspan class="cls-12" x="69.56" y="26.4">r</tspan><tspan x="78.39" y="26.4">é</tspan><tspan class="cls-9" x="91.1" y="26.4">s</tspan><tspan x="102.72" y="26.4">e és j</tspan><tspan class="cls-29" x="160.11" y="26.4">a</tspan><tspan x="172.26" y="26.4">ví</tspan><tspan class="cls-30" x="189.99" y="26.4">t</tspan><tspan x="199.38" y="26.4">ás</tspan><tspan class="cls-13" x="223.56" y="26.4">a</tspan></text><circle class="cls-2" cx="391.49" cy="93.88" r="8.52"/><circle class="cls-2" cx="391.49" cy="297.22" r="8.52"/><circle class="cls-2" cx="391.49" cy="498.82" r="8.52"/><circle class="cls-2" cx="391.49" cy="697.75" r="8.52"/><circle class="cls-2" cx="391.49" cy="904.72" r="8.52"/><line class="cls-1" x1="352.6" y1="602.35" x2="352.6" y2="660.51"/><polygon class="cls-2" points="345.82 658.53 352.6 670.27 359.38 658.53 345.82 658.53"/><line class="cls-1" x1="333.88" y1="670.27" x2="333.88" y2="612.11"/><polygon class="cls-2" points="340.66 614.1 333.88 602.35 327.1 614.1 340.66 614.1"/></g></g></svg>